<svg xmlns="http://www.w3.org/2000/svg" width="121.982" height="150.999" fill="none" overflow="visible"><g><path d="M 31.992 30.371 L 26.976 32.779 L 32.106 17 L 32.885 24.822 L 37.91 22.41 L 32.518 37.21 Z M 20.256 32.252 L 19.32 36.075 L 13 26.183 L 17.625 29.271 L 18.564 25.441 L 24.231 35.037 L 20.257 32.252 Z M 40.058 40.728 L 37.908 44.792 L 51.106 41.064 L 44.671 40.168 L 46.825 36.096 L 34.428 40.073 L 40.059 40.727 Z" fill="rgb(25,36,77)"></path><path d="M 119.763 124.306 C 119.086 123.932 118.452 123.477 117.801 123.056 C 116.525 122.232 115.288 121.337 113.965 120.599 C 112.695 119.89 111.337 119.345 109.995 118.717 C 110.12 118.385 110.228 118.119 110.323 117.847 C 110.745 116.628 110.653 116.342 109.57 115.596 C 108.574 114.911 107.565 114.242 106.57 113.553 C 106.309 113.372 106.081 113.141 105.644 112.765 C 106.195 112.73 106.471 112.684 106.744 112.7 C 109.9 112.87 113.054 113.042 116.209 113.232 C 116.832 113.271 117.299 113.099 117.442 112.447 C 117.547 111.966 117.571 111.465 117.623 110.972 C 117.951 107.841 118.278 104.709 118.601 101.576 C 118.781 99.838 118.953 98.099 119.119 96.361 C 119.192 95.601 118.972 95.059 118.119 94.924 C 117.558 94.834 117.02 94.584 116.459 94.509 C 115.816 94.425 115.58 94.059 115.373 93.482 C 114.65 91.468 114.201 89.227 113.004 87.548 C 111.856 85.936 111.147 84.287 110.557 82.468 C 110.308 81.697 110.358 81.15 110.719 80.455 C 112.614 76.807 114.533 73.167 116.285 69.447 C 118.062 65.675 117.841 61.901 115.815 58.24 C 113.707 54.434 111.149 50.97 108.259 47.746 C 103.562 42.503 97.753 39.299 90.937 37.906 C 90.047 37.724 88.952 37.666 88.357 37.108 C 87.253 36.071 86.069 35.33 84.719 34.71 C 84.342 34.537 84.275 33.57 84.183 32.95 C 84.166 32.84 84.706 32.56 85.019 32.492 C 88.552 31.718 91.467 26.772 89.345 23.097 C 88.852 22.243 88.899 21.652 89.237 20.803 C 91.274 15.695 91.062 10.76 87.964 6.095 C 87.773 5.805 87.541 5.515 87.453 5.189 C 87.13 4 86.365 3.159 85.453 2.423 C 84.729 1.84 83.943 1.531 82.973 1.738 C 82.585 1.821 82.113 1.705 81.728 1.554 C 79.498 0.679 77.221 0.063 74.813 0.004 C 71.828 -0.069 69.209 0.758 67.193 3.117 C 66.689 3.707 66.2 4.311 65.705 4.907 C 65.311 4.767 64.939 4.611 64.556 4.507 C 62.546 3.96 60.559 3.235 58.416 3.711 C 56.159 4.211 54.539 6.176 54.808 8.241 C 55.047 10.068 56.05 11.413 57.65 12.267 C 58.555 12.751 59.493 13.167 60.438 13.626 C 60.374 13.928 60.326 14.181 60.265 14.432 C 59.045 19.507 58.033 24.612 58.253 29.877 C 58.36 32.491 59.073 34.927 60.645 37.035 C 61.231 37.82 61.925 38.523 62.601 39.297 C 62.661 39.247 62.625 39.296 62.578 39.313 C 62.176 39.468 61.775 39.624 61.368 39.761 C 57.568 41.054 54.442 43.328 51.836 46.406 C 49.467 49.202 47.484 52.265 45.652 55.433 C 44.608 57.238 43.638 59.089 42.636 60.921 C 42.403 61.348 42.136 61.733 41.57 61.591 C 38.41 60.798 35.253 59.996 32.093 59.209 C 31.387 59.033 31.05 58.613 30.96 57.878 C 30.729 55.998 29.896 54.45 28.376 53.317 C 27.944 52.997 27.492 52.706 27.02 52.383 C 27.45 52.072 27.851 51.791 28.243 51.497 C 30.38 49.897 31.168 47.782 30.63 45.133 C 30.183 42.938 28.52 41.194 26.566 41.093 C 22.377 40.871 18.185 40.713 13.992 40.53 C 12.99 40.486 11.977 40.346 10.985 40.437 C 9.244 40.595 7.905 41.591 6.708 42.833 C 6.448 43.103 6.008 43.242 5.627 43.333 C 5.102 43.456 4.554 43.47 4.017 43.54 C 3.857 43.56 3.667 43.684 3.547 43.632 C 2.34 43.107 1.464 43.888 0.522 44.399 C -0.134 44.756 -0.139 45.356 0.322 45.769 C 1.142 46.509 1.999 47.319 3.288 46.907 C 3.49 46.842 3.748 46.881 3.96 46.942 C 4.525 47.107 5.067 47.358 5.639 47.479 C 6.105 47.579 6.349 47.736 6.519 48.245 C 7.124 50.07 8.354 51.343 10.204 51.822 C 11.134 52.062 12.129 52.033 13.092 52.135 C 14.205 52.253 15.319 52.381 16.432 52.505 C 16.437 52.593 16.442 52.683 16.449 52.772 C 15.155 53.127 13.873 53.482 13.381 54.962 C 12.909 56.38 13.279 57.581 14.251 58.608 C 13.231 60.21 13.037 62.088 14.731 63.494 C 13.764 65.076 14.664 66.29 15.554 67.449 C 15.077 67.835 14.588 68.125 14.244 68.539 C 13.928 68.922 13.638 69.419 13.564 69.9 C 13.414 70.877 13.454 71.881 13.355 72.868 C 13.175 74.668 13.913 74.986 15.378 75.085 C 19.159 75.334 22.948 75.483 26.735 75.631 C 28.236 75.691 28.515 75.383 28.737 73.881 C 28.825 73.293 28.984 72.717 29.124 72.08 C 29.344 72.187 29.471 72.243 29.594 72.308 C 33.736 74.516 38.037 76.305 42.579 77.477 C 44.889 78.072 47.22 78.399 49.246 76.792 C 51.027 75.38 52.653 73.762 54.344 72.234 C 54.603 72.001 54.855 71.76 55.192 71.446 C 55.615 73.03 55.985 74.428 56.363 75.824 C 56.506 76.352 56.809 76.872 56.81 77.397 C 56.823 82.147 57.605 86.787 58.655 91.391 C 58.757 91.831 58.718 92.026 58.365 92.318 C 52.354 97.283 47.592 103.282 44.088 110.303 C 42.007 114.477 40.226 118.806 37.74 122.773 C 36.866 124.169 36.59 124.234 35.179 123.362 C 33.719 122.459 32.249 121.489 30.655 120.919 C 26.797 119.538 23.149 119.788 20.133 123.038 C 19.865 123.326 19.48 123.506 19.145 123.729 C 17.675 124.705 17.188 125.883 17.585 127.631 C 17.72 128.221 17.898 128.811 18.143 129.362 C 20.009 133.546 23.078 136.642 26.853 139.025 C 28.962 140.356 31.203 141.476 33.394 142.667 C 34.149 143.078 34.7 143.57 34.712 144.525 C 34.73 145.74 35.362 146.59 36.355 147.216 C 36.675 147.418 36.953 147.691 37.459 148.101 C 36.787 148.101 36.389 148.073 35.999 148.104 C 33.258 148.332 30.515 148.554 27.777 148.824 C 27.341 148.866 26.93 149.14 26.507 149.307 C 26.511 149.4 26.512 149.495 26.516 149.59 C 26.834 149.748 27.138 149.985 27.473 150.048 C 28.794 150.298 30.119 150.596 31.454 150.691 C 37.483 151.116 43.514 151.135 49.534 150.533 C 50.454 150.442 51.474 150.419 52.326 149.428 L 49.828 148.445 C 49.951 148.078 50.062 147.727 50.183 147.381 C 51.263 144.297 53.045 141.485 53.618 138.198 C 53.651 138.006 54.168 137.781 54.46 137.781 C 55.142 137.783 55.824 137.918 56.506 137.985 C 57.874 138.12 58.403 137.788 58.958 136.484 C 61.038 131.601 62.986 126.649 65.751 122.106 C 67.091 119.907 68.565 117.786 70.058 115.687 C 70.668 114.832 70.82 114.895 71.495 115.675 C 76.311 121.238 81.842 125.948 87.957 129.965 C 88.727 130.471 89.732 130.718 89.881 131.882 C 89.898 132.016 90.099 132.144 90.237 132.244 C 91.69 133.284 93.139 134.332 94.607 135.353 C 95.947 136.282 96.279 136.215 97.527 135.124 C 98.394 134.366 99.326 133.681 100.23 132.963 C 100.307 133.015 100.387 133.07 100.466 133.122 C 100.313 134.004 100.19 134.891 99.996 135.764 C 99.832 136.515 99.338 136.907 98.568 137.06 C 97.013 137.367 95.759 138.208 94.863 139.541 C 93.401 141.719 92.353 144.056 92.433 146.766 C 92.456 147.565 92.159 147.767 91.387 147.8 C 89.44 147.883 87.497 148.085 85.556 148.269 C 85.264 148.297 84.986 148.494 84.701 148.613 L 84.723 148.858 C 84.973 148.965 85.217 149.126 85.478 149.17 C 87.28 149.47 89.08 149.904 90.893 149.996 C 94.454 150.182 98.019 150.251 101.584 150.203 C 104.393 150.161 107.198 149.897 109.998 149.655 C 111.033 149.567 111.825 148.998 112.092 147.876 C 112.672 145.422 113.209 142.955 113.86 140.521 C 114.304 138.858 114.909 137.239 115.462 135.546 C 116.175 135.876 116.666 136.11 117.161 136.331 C 118.543 136.951 118.928 136.814 119.644 135.49 C 120.797 133.352 121.516 131.064 121.912 128.669 C 122.231 126.744 121.45 125.234 119.764 124.306 Z M 9.162 47.636 C 8.915 48.146 8.376 48.264 7.899 47.989 C 7.301 47.643 7.733 47.242 7.966 46.903 C 8.6 45.98 8.574 45.031 8.201 44.011 C 8.098 43.728 8.246 43.351 8.279 43.017 C 8.679 43.15 9.284 43.165 9.439 43.44 C 9.751 43.993 9.815 44.689 10.009 45.428 C 9.742 46.14 9.511 46.916 9.162 47.636 Z M 34.872 142.156 C 31.448 140.273 27.921 138.547 24.974 135.895 C 23.014 134.13 21.148 132.265 19.877 129.896 C 19.516 129.206 19.204 128.49 18.944 127.754 C 18.638 126.911 18.676 126.022 19.32 125.385 C 19.996 124.719 20.94 124.684 21.742 125.077 C 23.261 125.821 24.74 126.643 26.172 127.541 C 30.811 130.472 34.737 134.29 38.696 138.061 C 39.639 138.96 40.566 139.88 41.486 140.802 C 41.743 141.058 41.959 141.359 42.255 141.713 C 41.966 141.819 41.792 141.929 41.61 141.944 C 39.667 142.083 37.723 142.206 35.777 142.314 C 35.477 142.332 35.127 142.298 34.872 142.156 Z M 35.787 143.584 C 37.974 143.433 40.099 143.285 42.272 143.136 L 42.272 145.047 C 41.612 145.047 40.966 145.062 40.322 145.043 C 39.232 145.01 38.14 144.906 37.05 144.924 C 36.18 144.94 35.926 144.457 35.787 143.584 Z M 37.245 145.988 C 38.617 146.072 39.907 146.323 41.156 146.19 C 43.402 145.949 45.158 146.908 46.866 148.139 C 47.006 148.239 47.145 148.347 47.273 148.462 C 47.331 148.515 47.364 148.598 47.413 148.671 C 43.932 149.808 39.531 148.58 37.245 145.988 Z M 48.767 147.699 C 47.143 146.91 45.625 146.185 44.117 145.438 C 43.63 145.196 43.298 143.519 43.685 143.134 C 43.818 143.003 44.229 142.983 44.402 143.094 C 45.882 144.032 47.343 145.003 48.796 145.984 C 49.694 146.592 48.805 147.128 48.766 147.699 Z M 51.843 139.286 C 51.667 140.667 50.525 143.561 49.53 145.003 C 48.002 143.981 46.51 142.981 45.015 141.982 C 46.354 139.97 48.668 138.551 50.905 138.338 C 51.762 138.256 51.95 138.445 51.843 139.286 Z M 53.116 134.496 C 52.904 135.339 52.807 136.21 52.634 137.225 C 49.062 136.866 46.33 138.58 43.924 141.197 C 43.652 140.96 43.416 140.767 43.193 140.56 C 39.527 137.147 35.938 133.644 32.173 130.348 C 29.007 127.575 25.618 125.069 21.635 123.427 C 22.775 122.304 24.125 121.721 25.643 121.623 C 31.041 121.275 34.953 123.671 37.565 128.407 C 37.606 128.483 37.631 128.591 37.695 128.628 C 37.983 128.795 38.282 128.943 38.575 129.097 C 38.641 128.767 38.857 128.367 38.743 128.121 C 38.335 127.23 37.815 126.393 37.339 125.536 C 38.361 125.578 39.081 126.214 39.62 127.083 C 40.063 127.796 40.394 128.581 40.852 129.28 C 41.022 129.538 41.413 129.643 41.704 129.819 C 41.774 129.494 41.958 129.143 41.894 128.846 C 41.754 128.207 41.489 127.597 41.275 126.976 L 41.498 126.805 C 41.87 127.23 42.291 127.62 42.602 128.087 C 42.935 128.591 43.117 129.203 43.465 129.693 C 43.655 129.958 44.056 130.068 44.362 130.247 C 44.424 129.891 44.517 129.536 44.533 129.176 C 44.54 128.999 44.403 128.816 44.234 128.393 C 45.154 128.85 45.914 129.15 46.595 129.577 C 48.645 130.859 50.662 132.193 52.698 133.498 C 53.082 133.742 53.242 133.992 53.116 134.496 Z M 111.292 120.917 C 111.47 121.038 111.605 121.425 111.562 121.649 C 111.235 123.379 110.909 125.112 110.481 126.819 C 110.161 128.089 109.239 128.825 107.981 129.043 C 106.801 129.246 105.601 129.405 104.535 128.595 L 109.567 119.956 C 110.118 120.255 110.735 120.541 111.292 120.917 Z M 82.627 79.805 L 80.68 79.805 C 80.68 79.343 80.654 78.962 80.685 78.586 C 80.78 77.45 80.333 76.677 79.365 76.068 C 77.626 74.97 77.572 72.584 79.285 71.108 C 79.353 71.672 79.438 72.168 79.471 72.666 C 79.528 73.546 79.925 73.986 80.856 74.136 C 81.753 74.282 82.312 73.964 82.576 73.104 C 82.71 72.672 82.772 72.215 82.866 71.765 C 83.741 72.124 84.29 73.049 84.086 73.978 C 83.952 74.591 83.772 75.251 83.418 75.745 C 82.538 76.976 82.114 78.256 82.627 79.805 Z M 87.027 81.077 C 88.485 80.978 89.94 80.844 91.391 80.674 C 92.018 80.604 92.274 80.761 92.267 81.452 C 92.26 82.404 92.369 83.354 92.43 84.343 C 91.642 84.303 91.01 84.31 90.386 84.229 C 89.291 84.087 88.529 84.564 88.09 85.525 C 87.213 87.445 86.346 89.369 85.577 91.333 C 85.29 92.07 84.983 92.439 84.173 92.323 C 83.667 92.249 83.136 92.351 82.625 92.3 C 81.829 92.22 81.532 92.637 81.48 93.354 C 81.385 94.632 81.273 95.909 81.212 97.189 C 81.182 97.799 81.069 97.962 80.385 97.819 C 79.143 97.555 78.626 96.654 78.479 95.618 C 78.184 93.524 77.979 91.405 77.925 89.29 C 77.868 87.08 78.034 84.863 78.101 82.648 C 78.123 81.921 78.358 81.521 79.207 81.493 C 81.815 81.408 84.422 81.245 87.027 81.077 Z M 96.339 65.543 C 95.874 64.441 96.515 63.794 96.9 63.016 C 96.959 62.895 97.534 62.863 97.708 63.002 C 98.969 64.005 100.217 65.031 101.396 66.128 C 101.607 66.325 101.607 66.929 101.497 67.278 C 100.626 70.038 99.638 72.759 98.831 75.534 C 98.482 76.732 98.165 77.529 96.741 77.845 C 95.632 78.093 94.684 79.085 93.445 79.889 L 94.92 71.825 C 95.055 71.935 95.16 72.073 95.299 72.127 C 95.725 72.299 96.297 72.684 96.569 72.533 C 96.921 72.336 97.179 71.72 97.229 71.256 C 97.446 69.28 97.093 67.34 96.339 65.543 Z M 92.212 98.97 C 91.042 98.856 89.873 98.75 88.705 98.617 C 86.691 98.387 84.679 98.14 82.523 97.883 L 82.791 93.659 C 84.201 93.753 85.561 93.829 86.921 93.941 C 88.662 94.083 90.398 94.28 92.139 94.404 C 93.307 94.487 93.563 94.761 93.397 95.913 C 93.288 96.661 93.153 97.411 93.137 98.164 C 93.119 98.854 92.789 99.026 92.212 98.97 Z M 92.934 101.148 C 92.651 104.188 92.371 107.228 92.074 110.457 C 90.204 110.29 88.494 110.148 86.79 109.981 C 85.31 109.837 83.836 109.628 82.354 109.521 C 81.817 109.483 81.64 109.298 81.675 108.789 C 81.835 106.552 81.979 104.311 82.147 102.073 C 82.214 101.178 82.33 100.286 82.437 99.262 C 83.468 99.353 84.457 99.416 85.441 99.534 C 87.714 99.803 89.981 100.108 92.253 100.372 C 92.756 100.43 92.983 100.628 92.934 101.148 Z M 93.224 92.994 C 92.842 91.218 92.48 89.527 92.112 87.822 C 92.685 87.596 92.974 87.885 93.138 88.392 C 93.308 88.914 93.458 89.443 93.634 89.962 C 94.302 91.94 95.948 92.727 97.838 91.884 C 98.365 91.649 98.745 91.689 99.168 91.977 C 99.989 92.537 100.852 92.594 101.794 92.325 C 102.134 92.228 102.566 92.275 102.901 92.404 C 103.746 92.727 104.571 93.017 105.483 92.718 C 105.592 92.679 105.71 92.672 105.822 92.698 C 106.948 93.061 107.967 92.876 108.872 92.035 C 109.056 93.145 108.437 93.99 107.485 93.93 C 104.25 93.723 101.018 93.472 97.785 93.252 C 96.268 93.149 94.75 93.08 93.225 92.994 Z M 91.484 86.504 C 90.516 86.496 90.414 86.758 90.588 87.743 C 90.854 89.248 91.018 90.773 91.217 92.29 C 91.236 92.429 91.203 92.574 91.182 92.911 L 86.323 92.439 C 87.386 90.209 88.33 88.175 89.334 86.173 C 89.457 85.929 89.889 85.715 90.181 85.709 C 91.982 85.681 93.786 85.716 95.589 85.738 C 95.663 85.738 95.736 85.808 95.86 85.869 C 95.65 86.465 95.337 86.731 94.66 86.656 C 93.61 86.538 92.544 86.51 91.485 86.503 Z M 93.036 75.773 C 92.918 76.686 92.684 77.593 92.414 78.474 C 92.309 78.824 91.967 79.101 91.734 79.41 C 91.587 79.363 91.44 79.315 91.293 79.266 C 91.117 77.426 90.863 75.589 90.792 73.745 C 90.744 72.478 90.949 71.204 91.042 69.932 C 91.044 69.875 91.053 69.818 91.07 69.762 C 91.324 69.073 91.562 68.344 92.443 68.292 C 93.001 68.26 93.666 69.04 93.62 69.997 C 93.525 71.927 93.285 73.853 93.036 75.773 Z M 95.822 70.311 C 95.356 69.63 94.872 68.959 94.428 68.261 C 93.19 66.323 91.345 66.335 90.281 68.385 C 89.923 69.073 89.517 69.225 88.868 69.149 C 88.13 69.063 87.463 68.892 87.142 68.086 C 86.588 66.702 85.502 66.066 84.112 66.379 C 83.857 66.435 83.705 66.885 83.454 67.087 C 83.205 67.296 82.913 67.447 82.599 67.53 C 82.525 67.547 82.245 67.127 82.239 66.906 C 82.205 65.48 82.223 64.054 82.223 62.609 C 82.96 62.381 83.493 62.393 83.896 63.111 C 84.223 63.687 84.774 63.877 85.448 63.734 C 87.286 63.348 89.127 63.208 91.001 63.519 C 94.155 64.044 95.291 65.129 95.855 68.319 C 95.964 68.942 96.012 69.576 96.09 70.204 Z M 89.657 70.176 L 89.455 74.718 L 87.715 74.718 L 87.715 70.176 Z M 117.098 103.406 C 116.934 105.408 116.713 107.405 116.511 109.405 C 116.494 109.579 116.445 109.75 116.431 109.923 C 116.274 111.808 116.272 111.866 114.398 111.771 C 110.961 111.597 107.527 111.341 104.091 111.132 C 101.712 110.986 99.332 110.866 96.954 110.729 C 95.815 110.663 94.677 110.58 93.394 110.496 L 94.309 100.468 L 104.112 101.213 C 104.067 101.959 104.017 102.588 103.994 103.218 C 103.97 103.91 104.307 104.319 104.993 104.384 C 105.85 104.465 106.706 104.557 107.565 104.581 C 108.66 104.611 109.057 104.223 109.161 103.109 C 109.204 102.651 109.213 102.189 109.242 101.64 C 110.137 101.64 110.961 101.589 111.778 101.65 C 113.177 101.757 114.573 101.921 115.968 102.084 C 117.008 102.207 117.181 102.375 117.098 103.406 Z M 105.568 100.24 C 105.608 100.091 105.794 99.915 105.945 99.875 C 106.216 99.805 106.511 99.813 106.796 99.813 C 107.978 99.818 108.093 99.964 107.986 101.165 C 107.933 101.764 107.921 102.368 107.893 102.92 C 107.774 102.976 107.75 102.997 107.724 102.999 C 105.387 103.152 104.944 102.593 105.568 100.24 Z M 111.51 87.525 C 111.742 87.838 112.049 88.119 112.191 88.47 C 112.88 90.154 113.528 91.856 114.179 93.556 C 114.336 93.963 114.555 94.43 113.875 94.576 C 113.255 94.71 112.916 94.446 112.794 93.796 C 112.606 92.771 112.381 91.753 112.118 90.744 C 111.918 89.989 111.61 89.266 111.379 88.517 C 111.291 88.235 111.28 87.926 111.234 87.629 Z M 112.149 95.79 C 113.662 95.91 115.174 96.11 116.689 96.146 C 117.525 96.166 117.793 96.564 117.727 97.261 C 117.62 98.408 117.426 99.548 117.255 100.786 C 116.231 100.705 115.291 100.635 114.353 100.556 C 112.982 100.44 111.61 100.324 110.239 100.191 C 109.767 100.143 109.373 100.02 109.275 99.401 C 109.164 98.712 108.579 98.515 107.979 98.47 C 107.235 98.412 106.485 98.406 105.739 98.378 C 104.765 98.341 104.402 98.974 104.267 99.873 L 98.819 99.45 C 97.589 99.351 96.361 99.216 95.129 99.167 C 94.563 99.144 94.387 98.989 94.442 98.392 C 94.559 97.121 94.596 95.841 94.668 94.483 C 95.61 94.525 96.458 94.539 97.304 94.606 C 102.253 94.994 107.2 95.391 112.149 95.79 Z M 115.882 61.85 C 115.989 62.177 116.029 62.53 116.076 62.874 C 116.407 65.361 115.848 67.718 114.745 69.884 C 112.921 73.476 110.954 76.992 108.993 80.508 C 108.681 81.068 108.639 81.472 108.928 82.013 C 110.113 84.24 110.387 86.583 109.662 89.015 C 109.247 90.409 108.361 91.155 107.183 91.239 C 107.515 90.629 107.912 90.023 108.173 89.361 C 108.278 89.091 108.085 88.701 108.028 88.367 C 107.712 88.521 107.301 88.595 107.097 88.844 C 106.499 89.577 106.033 90.424 105.411 91.132 C 105.081 91.512 104.557 91.865 103.944 91.324 C 104.297 90.644 104.647 89.982 104.981 89.313 C 105.11 89.055 105.247 88.788 105.307 88.509 C 105.399 88.091 105.546 87.592 104.962 87.411 C 104.364 87.227 104.133 87.621 104.025 88.136 C 103.713 89.629 102.847 90.648 101.427 91.118 C 101.034 91.248 100.574 91.173 100.096 91.196 C 100.476 89.752 100.785 88.491 101.142 87.244 C 101.301 86.696 101.13 86.306 100.623 86.299 C 100.367 86.298 100.004 86.686 99.873 86.981 C 99.629 87.531 99.536 88.147 99.353 88.725 C 99.018 89.789 98.282 90.402 97.223 90.665 C 95.896 90.997 94.723 90.212 94.509 88.839 C 94.432 88.344 94.653 88.158 95.105 88.098 C 96.449 87.92 97 87.336 97.099 85.976 C 97.128 85.571 97.126 85.156 97.085 84.752 C 97.018 84.125 96.52 84.083 96.06 84.11 C 95.786 84.125 95.518 84.28 95.249 84.378 C 93.934 84.865 93.464 84.482 93.646 83.072 C 93.863 81.372 96.096 79.159 97.786 78.969 C 99.028 78.829 99.287 78.574 99.69 77.331 C 100.973 73.36 102.272 69.395 103.581 65.433 C 103.749 64.927 104.07 64.339 103.448 64.077 C 103.181 63.963 102.675 64.433 102.087 64.737 L 100.453 63.247 C 103.929 59.883 107.356 56.569 110.88 53.162 C 112.84 56.03 114.835 58.654 115.882 61.85 Z M 84.2 37.294 C 84.643 36.853 84.93 36.034 85.852 36.635 C 86.975 37.367 87.273 37.865 86.864 38.951 C 85.733 41.958 84.688 45.009 82.907 47.711 C 82.751 47.948 82.572 48.17 82.394 48.408 C 80.281 46.823 78.244 45.216 75.351 45.634 C 76.263 44.904 77.241 44.241 78.079 43.428 C 80.151 41.418 82.154 39.333 84.2 37.294 Z M 74.61 1.536 C 78.434 1.679 81.865 3.001 84.953 5.314 C 87.36 7.116 88.407 9.655 88.971 12.494 C 89.386 14.578 89.041 16.611 88.553 18.629 C 88.495 18.871 88.344 19.089 88.18 19.441 L 67.011 5.677 C 68.894 2.862 71.381 1.419 74.61 1.537 Z M 60.97 34.693 C 59.516 31.863 59.473 28.855 59.668 25.823 C 59.948 21.479 60.96 17.27 62.208 13.118 C 62.258 12.952 62.309 12.786 62.366 12.623 C 62.791 11.39 62.854 11.339 64.101 11.62 C 69.022 12.728 73.769 14.393 78.453 16.264 C 79.189 16.557 79.188 17.017 79.063 17.644 C 78.743 19.251 78.528 20.877 78.985 22.484 C 79.137 23.021 79.457 23.56 79.835 23.968 C 80.805 25.011 81.739 24.948 82.551 23.782 C 83.28 22.737 84.218 22.212 85.465 22.247 C 87.641 22.307 89.101 24.477 88.559 26.822 C 88.018 29.164 85.679 31.878 82.499 30.95 C 82.25 30.878 81.887 31.207 81.579 31.35 C 81.777 31.655 81.929 32.166 82.185 32.227 C 82.81 32.378 82.922 32.726 82.939 33.277 C 82.953 33.739 83.014 34.215 83.145 34.656 C 83.506 35.878 83.093 36.856 82.231 37.652 C 79.899 39.814 77.545 41.952 75.17 44.067 C 73.575 45.487 71.924 46.84 70.228 48.282 C 68.63 45.974 67.611 43.463 67.22 40.672 C 68.507 40.571 69.74 40.63 70.888 40.341 C 72.256 39.995 73.572 39.398 74.862 38.801 C 75.162 38.663 75.506 37.991 75.408 37.729 C 75.173 37.108 74.662 37.464 74.258 37.679 C 72.43 38.646 70.49 39.338 68.431 39.261 C 65.165 39.136 62.568 37.796 60.971 34.693 Z M 67.183 45.729 C 65.608 45.368 64.214 46.028 62.708 46.695 C 62.894 44.425 63.618 42.455 64.566 40.563 C 64.668 40.359 65.088 40.178 65.318 40.22 C 65.541 40.26 65.814 40.575 65.884 40.82 C 66.34 42.431 66.746 44.054 67.184 45.73 Z M 12.299 42.819 C 13.487 42.583 13.959 42.85 14.162 43.881 C 13.527 43.881 12.903 43.925 12.292 43.857 C 12.103 43.834 11.837 43.516 11.815 43.312 C 11.799 43.159 12.102 42.859 12.299 42.819 Z M 13.687 49.116 C 12.929 49.223 12.159 49.244 11.227 49.304 C 11.882 47.964 12.834 48.182 13.687 48.174 C 13.814 48.171 14.066 48.44 14.045 48.534 C 13.997 48.753 13.838 49.095 13.687 49.116 Z M 14.535 46.05 C 12.946 46.375 12.442 46.245 12.297 45.39 L 14.536 45.39 L 14.536 46.05 Z M 15.368 50.904 C 17.548 48.027 17.576 45.198 16.367 42.128 C 17.234 42.128 17.967 42.102 18.695 42.134 C 21.045 42.237 23.393 42.334 25.739 42.484 C 28.348 42.654 29.847 44.912 29.135 47.483 C 28.722 48.977 27.85 50.083 26.495 50.749 C 25.675 51.153 24.788 51.408 23.951 51.775 C 23.095 52.149 22.264 52.588 21.414 52.98 C 21.194 53.082 20.897 53.224 20.723 53.145 C 20.566 53.076 20.495 52.735 20.448 52.502 C 20.403 52.277 20.438 52.037 20.44 51.803 C 20.443 51.185 20.134 50.9 19.533 50.903 C 18.22 50.907 16.905 50.904 15.368 50.904 Z M 14.57 56.184 C 14.53 55.236 15.012 54.374 15.855 54.278 C 16.878 54.169 17.909 54.175 18.93 54.297 C 19.552 54.369 19.915 54.836 19.675 55.582 C 19.429 56.346 19.239 57.128 18.999 57.995 C 17.932 57.913 16.929 57.883 15.942 57.748 C 14.95 57.612 14.613 57.172 14.57 56.185 Z M 15.004 60.147 C 15.18 59.769 15.74 59.467 16.18 59.36 C 16.626 59.253 17.139 59.469 17.624 59.47 C 18.074 59.474 18.528 59.383 19.018 59.328 C 19.339 60.61 20.2 61.211 21.402 61.439 C 21.622 61.479 21.986 61.843 21.952 61.963 C 21.865 62.277 21.6 62.779 21.397 62.784 C 19.688 62.824 17.963 62.89 16.27 62.704 C 15.095 62.575 14.487 61.242 15.004 60.147 Z M 21.848 65.132 C 21.841 66.182 21.333 66.842 20.331 67.043 C 19.828 67.145 19.314 67.194 18.804 67.266 C 17.372 67.226 16.182 66.518 15.741 65.403 C 15.398 64.528 15.627 64.235 16.524 64.228 C 17.909 64.218 19.294 64.161 20.676 64.073 C 21.524 64.019 21.853 64.272 21.847 65.133 Z M 14.818 70.248 C 15.57 68.826 16.869 68.292 18.583 68.675 C 19.7 68.925 20.653 68.657 21.609 68.109 C 21.965 67.904 22.411 67.765 22.815 67.767 C 23.876 67.768 24.936 67.83 25.99 67.951 C 26.302 67.988 26.705 68.258 26.848 68.538 C 27.168 69.168 27.353 69.872 27.671 70.764 L 14.817 70.248 Z M 54.008 70.592 C 52.441 72.132 50.912 73.715 49.276 75.174 C 47.686 76.594 45.826 76.932 43.74 76.367 C 39.031 75.092 34.454 73.495 30.172 71.093 C 29.614 70.779 29.151 70.506 29.225 69.725 C 29.248 69.477 28.981 69.145 28.767 68.941 C 27.387 67.63 27.077 66.018 27.463 64.219 C 27.579 63.671 27.498 63.355 26.983 63.015 C 25.717 62.177 25.297 60.742 25.699 59.056 C 25.801 58.633 26.035 58.216 26.026 57.8 C 26.019 57.425 25.766 57.05 25.62 56.677 C 25.285 56.87 24.79 56.98 24.642 57.272 C 24.112 58.31 23.666 59.384 22.606 60.012 C 21.59 60.612 20.256 59.899 20.303 58.721 C 20.384 56.624 21.227 54.913 22.944 53.679 C 23.658 53.166 24.427 53.069 25.237 53.271 C 27.607 53.863 29.149 55.384 29.55 57.813 C 29.83 59.52 30.723 60.353 32.265 60.719 C 36.489 61.72 40.709 62.741 44.941 63.713 C 45.183 63.768 45.506 63.459 45.792 63.318 C 45.606 63.043 45.478 62.638 45.221 62.516 C 44.739 62.286 44.182 62.221 43.501 62.046 L 45.171 59.054 C 46.848 60.421 48.47 61.668 50.004 63.016 C 51.37 64.217 52.662 65.512 53.944 66.808 C 54.951 67.825 55.312 69.308 54.008 70.592 Z M 71.097 83.704 C 71.041 83.939 70.611 84.184 70.319 84.238 C 69.848 84.328 69.349 84.262 68.859 84.262 L 68.854 84.317 C 67.486 84.196 66.12 84.066 64.752 83.959 C 64.239 83.919 64.072 83.648 64.09 83.158 C 64.116 82.458 64.061 81.753 64.146 81.063 C 64.173 80.822 64.524 80.42 64.709 80.43 C 66.707 80.548 68.704 80.715 70.696 80.926 C 70.929 80.95 71.302 81.324 71.307 81.542 C 71.328 82.269 71.257 82.995 71.097 83.704 Z M 68.792 79.233 C 67.258 79.043 65.678 78.79 64.172 78.983 C 62.882 79.148 61.731 78.966 60.57 78.597 C 59.843 78.363 59.166 77.952 58.494 77.571 C 58.302 77.464 58.154 77.201 58.076 76.976 C 56.359 71.941 55.481 66.756 55.871 61.437 C 56.081 58.578 56.704 55.751 57.143 52.909 C 57.174 52.709 57.233 52.513 57.29 52.318 C 57.452 51.773 57.487 51.176 56.884 51.006 C 56.699 50.953 56.146 51.58 56.053 51.968 C 55.122 55.82 54.45 59.715 54.479 63.703 C 54.483 64.102 54.479 64.5 54.479 65.063 C 51.527 62.588 48.715 60.233 45.699 57.706 C 47.359 55.142 48.991 52.409 50.831 49.827 C 52.88 46.954 55.26 44.355 58.362 42.613 C 59.765 41.825 61.292 41.261 62.885 40.541 C 62.356 42.425 61.891 44.055 61.447 45.691 C 61.356 46.025 61.283 46.384 61.302 46.724 C 61.327 47.191 61.297 47.839 61.568 48.064 C 61.845 48.293 62.486 48.201 62.916 48.071 C 64.104 47.713 65.13 46.901 66.496 47.019 C 68.15 47.162 69.392 49.06 68.934 50.663 C 68.388 52.579 68.01 54.546 67.645 56.506 C 67.588 56.81 67.999 57.202 68.195 57.551 C 68.428 57.281 68.806 57.041 68.87 56.734 C 69.12 55.514 69.148 54.235 69.49 53.048 C 70.262 50.368 71.675 48.11 74.46 47.246 C 76.81 46.516 78.916 47.29 80.78 48.826 C 81.07 49.066 81.357 49.308 81.647 49.548 C 82.487 50.242 82.768 50.21 83.439 49.29 C 85.252 46.807 86.277 43.925 87.409 41.1 C 87.657 40.481 87.831 39.828 88.119 39.23 C 88.216 39.027 88.583 38.79 88.781 38.825 C 93.146 39.601 97.341 40.875 101.085 43.385 C 104.544 45.702 107.594 48.459 110.044 52.035 C 107.838 54.211 105.675 56.352 103.502 58.48 C 102.364 59.595 101.196 60.679 100.059 61.796 C 99.526 62.321 99.087 62.379 98.425 61.905 C 96.17 60.304 93.884 58.746 91.568 57.233 C 91.283 57.045 90.608 56.983 90.458 57.163 C 90.072 57.625 90.568 57.927 90.918 58.171 C 92.293 59.123 93.64 60.126 95.072 60.983 C 95.855 61.451 96.003 61.885 95.51 62.618 C 95.318 62.902 95.167 63.215 94.962 63.58 C 93.356 62.62 91.662 62.126 89.872 62.092 C 88.732 62.07 87.589 62.187 86.448 62.25 C 85.731 62.29 85.078 62.516 84.534 61.611 C 83.967 60.673 82.874 61.071 81.982 61.172 C 81.226 61.26 80.937 61.82 80.932 62.537 C 80.917 64.233 80.884 65.927 80.937 67.623 C 80.947 67.958 81.234 68.397 81.521 68.59 C 82.287 69.105 83.715 68.798 84.361 68.144 C 84.594 67.909 85.036 67.628 85.265 67.709 C 85.577 67.821 85.961 68.239 85.993 68.56 C 86.166 70.23 86.387 71.92 86.299 73.587 C 86.202 75.437 85.783 77.271 85.52 79.115 C 85.42 79.809 84.993 80.035 84.375 80.025 C 83.725 80.012 83.495 79.61 83.625 79.036 C 83.827 78.144 83.997 77.22 84.368 76.398 C 84.865 75.304 85.385 74.254 85.211 73 C 84.941 71.086 83.751 70.113 81.861 70.241 L 81.269 72.671 L 80.913 72.656 C 80.725 72.011 80.553 71.36 80.343 70.722 C 80.022 69.741 79.312 69.598 78.405 70.102 C 76.692 71.051 76.265 75.267 77.868 76.407 C 78.357 76.753 78.733 77.26 79.168 77.685 C 79.768 78.272 79.713 79.013 79.569 79.728 C 79.535 79.905 79.144 80.126 78.911 80.132 C 76.985 80.181 75.057 80.185 73.13 80.2 C 73.073 80.2 72.993 80.21 72.962 80.18 C 71.77 78.973 70.202 79.407 68.791 79.233 Z M 110.88 147.512 C 110.626 147.874 110.258 148.332 109.881 148.396 C 106.266 149.005 102.621 148.873 98.983 148.701 C 97.641 148.638 96.304 148.461 94.969 148.294 C 93.592 148.122 93.592 148.101 93.608 146.696 C 93.608 146.473 93.649 146.251 93.668 146.067 C 99.507 146.989 105.293 147.525 111.253 146.313 C 111.109 146.808 111.083 147.226 110.88 147.512 Z M 111.619 144.081 C 111.462 144.75 111.127 145.062 110.548 145.105 C 107.777 145.305 105.003 145.624 102.232 145.602 C 99.695 145.581 97.161 145.18 94.627 144.938 C 94.227 144.899 93.855 144.766 93.991 144.235 C 94.463 142.405 95.224 140.732 96.627 139.429 C 97.855 138.289 99.36 138.076 100.899 138.333 C 102.217 138.552 103.492 139.021 104.796 139.33 C 105.102 139.402 105.452 139.276 105.782 139.241 C 105.625 138.916 105.546 138.401 105.298 138.299 C 104.145 137.824 102.937 137.483 101.768 137.039 C 101.493 136.935 101.092 136.612 101.099 136.405 C 101.125 135.764 101.685 135.934 102.022 136.045 C 103.296 136.457 104.542 136.961 105.818 137.369 C 106.133 137.471 106.71 137.465 106.839 137.276 C 107.159 136.812 106.877 136.366 106.375 136.185 C 105.167 135.75 103.96 135.302 102.723 134.965 C 101.445 134.617 101.429 134.671 101.602 133.057 C 102.849 133.368 104.077 133.665 105.3 133.988 C 105.824 134.125 106.323 134.376 106.851 134.462 C 107.109 134.506 107.406 134.29 107.686 134.192 C 107.567 133.934 107.506 133.521 107.316 133.444 C 106.259 133.02 105.174 132.664 104.089 132.316 C 103.391 132.091 102.675 131.923 101.866 131.7 C 102.003 131.482 102.051 131.412 102.096 131.336 C 102.827 130.088 103.633 129.742 105.174 130.279 C 108.382 131.394 110.743 130.017 111.752 126.716 C 112.251 125.086 112.543 123.391 112.968 121.56 C 114.143 122.222 115.378 122.822 116.509 123.581 C 117.958 124.552 117.744 126.07 117.362 127.455 C 116.927 129.041 116.424 130.641 115.696 132.104 C 113.795 135.915 112.588 139.954 111.619 144.081 Z M 120.733 128.036 C 120.667 130.184 119.466 133.579 118.086 135.449 C 117.656 135.26 117.259 135.1 116.877 134.908 C 116.621 134.782 116.388 134.613 116.081 134.424 C 117.4 131.563 118.67 128.692 118.86 125.471 C 120.342 126.012 120.776 126.623 120.733 128.036 Z" fill="rgb(25,36,77)"></path><path d="M 82.751 26.414 C 82.937 25.324 83.545 24.779 84.303 24.391 C 84.703 24.186 85.138 23.987 85.575 23.936 C 86.21 23.862 86.703 24.156 86.761 24.876 C 86.821 25.597 86.376 25.742 85.756 25.868 C 85.224 25.977 84.761 26.405 84.25 26.653 C 83.915 26.815 83.545 27.004 83.196 26.993 C 83.022 26.988 82.858 26.565 82.751 26.414 Z M 24.168 46.83 C 25.021 46.902 25.89 46.908 26.722 47.083 C 27.038 47.15 27.277 47.605 27.552 47.884 C 27.252 48.021 26.952 48.278 26.653 48.276 C 25.164 48.266 23.675 48.181 22.185 48.144 C 21.722 48.134 21.412 47.93 21.523 47.48 C 21.582 47.243 21.938 46.948 22.186 46.918 C 22.837 46.839 23.503 46.892 24.162 46.892 Z M 26.052 45.84 C 24.79 45.779 23.527 45.74 22.27 45.628 C 22.063 45.608 21.703 45.222 21.733 45.071 C 21.781 44.831 22.097 44.461 22.299 44.463 C 23.879 44.472 25.459 44.523 27.032 44.648 C 27.282 44.667 27.499 45.116 27.732 45.368 C 27.459 45.531 27.202 45.751 26.908 45.838 C 26.644 45.919 26.338 45.856 26.051 45.856 L 26.051 45.838 L 26.051 45.84 Z M 66.28 27.858 C 66.751 27.858 67.211 27.707 67.591 27.427 C 67.931 27.171 68.291 27.071 68.576 27.495 C 68.823 27.863 68.846 28.26 68.529 28.607 C 67.571 29.654 65.269 29.715 64.254 28.73 C 63.691 28.185 63.581 27.133 64.009 26.22 C 64.398 25.383 64.902 24.605 65.506 23.908 C 66.056 23.269 66.554 22.584 67.066 21.913 C 67.27 21.643 67.512 21.483 67.834 21.652 C 68.134 21.809 68.222 22.085 68.14 22.42 C 67.887 23.454 67.245 24.266 66.573 25.036 C 66.132 25.552 65.749 26.115 65.433 26.716 C 64.896 27.706 65.079 27.933 66.279 27.862 Z M 72.607 29.548 C 72.497 28.888 72.619 28.398 73.267 28.188 C 73.366 28.156 73.474 28.115 73.573 28.123 C 73.986 28.158 75.09 29.658 75.01 30.063 C 74.947 30.385 74.763 30.731 74.443 30.622 C 73.89 30.432 73.832 30.763 73.596 31.109 C 72.032 33.399 68.335 34.659 66.05 33.196 C 65.891 33.094 65.743 32.974 65.596 32.856 C 65.206 32.544 65.292 32.177 65.537 31.849 C 65.795 31.505 66.107 31.517 66.454 31.789 C 67.743 32.796 69.51 32.492 70.771 31.675 C 71.341 31.305 71.861 30.88 72.321 30.376 C 72.559 30.116 72.89 29.903 72.607 29.548 Z M 72.395 17.11 C 73.299 17.145 74.127 17.337 74.782 17.974 C 75.045 18.228 75.154 18.573 75.136 18.936 C 75.11 19.461 74.89 19.71 74.351 19.42 C 74.231 19.356 74.09 19.315 73.995 19.225 C 73.042 18.318 72.03 18.509 70.984 19.03 C 70.655 19.194 70.303 19.666 69.94 19.118 C 69.59 18.589 69.883 18.241 70.325 17.892 C 70.951 17.399 71.667 17.227 72.397 17.112 Z M 64.216 17.056 C 65.05 16.826 65.709 17.362 66.397 17.692 C 66.823 17.896 67.063 18.373 66.786 18.875 C 66.462 19.464 65.975 19.222 65.599 18.971 C 64.737 18.396 63.864 18.478 62.982 18.843 C 62.598 19.003 62.197 19.136 61.993 18.719 C 61.803 18.329 62.018 17.912 62.373 17.659 C 62.91 17.276 63.503 17.011 64.215 17.056 Z M 71.042 23.796 C 71.008 23.11 70.992 22.599 71.264 22.197 C 71.463 21.907 71.454 21.257 72.033 21.435 C 72.593 21.607 73.033 21.999 73.023 22.67 C 73.021 23.019 72.981 23.367 72.903 23.708 C 72.767 24.263 72.494 24.751 71.823 24.696 C 71.17 24.645 71.018 24.168 71.042 23.794 Z M 63.018 22.952 C 62.964 22.195 63.323 21.664 63.601 21.117 C 63.741 20.841 64.042 20.812 64.321 20.914 C 64.731 21.064 64.897 21.422 64.911 21.811 C 64.925 22.184 64.858 22.565 64.791 22.935 C 64.703 23.429 64.583 23.977 63.943 23.949 C 63.313 23.921 62.961 23.53 63.015 22.953 L 63.018 22.953 Z" fill="rgb(25,36,77)"></path></g></svg>