<svg width="130" height="151" viewBox="0 0 130 151" fill="none" xmlns="http://www.w3.org/2000/svg">
<path d="M24.5607 65.3024L25.7188 70.744L11.5926 62.042L19.3778 63.127L18.2174 57.6752L31.3306 66.4024L24.5607 65.3024Z" fill="#491103"/>
<path d="M23.6214 77.1612L27.116 78.9727L16.0136 82.7849L20.104 79.0169L16.6027 77.2021L27.2639 73.9549L23.6214 77.1612Z" fill="#491103"/>
<path d="M36.5321 59.9008L39.9759 62.9478L39.462 49.2445L37.0755 55.287L33.6252 52.2342L34.5693 65.219L36.5321 59.9008Z" fill="#491103"/>
<path d="M94.7751 96.7964C93.7633 98.5199 92.8111 100.074 91.8159 101.604C90.1156 104.214 88.4186 106.824 86.6487 109.39C84.5819 112.387 82.6295 115.463 80.6356 118.51C79.3401 120.492 78.0263 122.463 76.7822 124.478C75.8085 126.054 74.931 127.688 74.0038 129.294C73.6703 129.871 73.2092 130.347 73.5658 131.167C73.7384 131.563 73.4099 132.16 73.1727 132.63C72.2969 134.37 71.8224 136.312 70.4523 137.807C69.802 138.517 69.0921 138.79 68.1814 138.503C67.4797 138.281 66.7416 138.153 66.0963 137.78C65.748 137.578 65.5871 137.656 65.4444 138.024C65.0214 139.115 64.5984 140.204 64.3347 141.351C63.9349 143.092 63.492 144.82 63.0524 146.55C62.9297 147.031 62.641 147.439 62.379 147.861C62.1102 148.294 62.0107 148.712 62.7638 148.718C62.8152 148.718 62.8666 148.756 62.9197 148.768C63.4555 148.882 64.202 148.967 64.1472 149.601C64.0991 150.16 63.3344 150.274 62.8069 150.354C60.8612 150.649 58.8972 150.765 56.9331 150.856C55.0919 150.943 53.244 151.029 51.4027 150.991C48.4551 150.931 45.4958 151.052 42.5713 150.546C42.3557 150.51 42.1434 150.448 41.9377 150.375C41.3803 150.18 41.445 149.863 41.7983 149.521C42.082 149.247 42.4237 149.106 42.8218 149.037C44.9036 148.672 47.0003 148.473 49.1136 148.493C49.3857 148.494 49.5449 148.395 49.807 148.272C48.6226 147.544 47.4498 146.894 46.3517 146.135C43.8552 144.41 41.4649 142.552 39.345 140.365C38.5488 139.543 37.6829 138.794 37.1819 137.735C36.5018 136.299 36.3509 134.804 36.6561 133.225C36.3426 133.527 36.2829 133.92 36.18 134.313C36.0772 134.703 35.8184 135.055 35.7288 135.446C35.2461 137.54 34.221 139.401 33.2158 141.26C32.2288 143.087 31.0776 144.813 29.7074 146.389C28.5695 147.7 27.1794 148.527 25.441 148.531C22.4087 148.536 19.3748 148.488 16.3459 148.36C14.2939 148.274 12.2271 148.312 10.1951 147.902C9.65431 147.793 9.18321 147.617 9.20146 147.016C9.21971 146.434 9.7754 146.344 10.2233 146.247C12.947 145.651 15.7205 145.507 18.494 145.407C18.9137 145.392 19.0978 145.357 19.1293 144.847C19.2106 143.546 19.8973 142.506 20.8644 141.69C22.6144 140.214 23.7806 138.376 24.4839 136.218C24.9334 134.839 25.3697 133.457 25.859 132.094C26.0249 131.633 25.8507 131.465 25.4908 131.263C23.9232 130.385 23.9332 130.38 22.9213 131.888C21.4384 134.096 19.8177 136.216 17.8305 137.974C15.5347 140.005 12.9669 141.632 9.80692 142.015C8.72041 142.146 7.64386 142.058 6.65522 141.619C4.33623 140.59 4.06253 137.934 5.50568 135.904C6.40308 134.642 7.65215 133.729 8.8498 132.781C11.6797 130.535 14.1015 127.947 15.7404 124.692C16.0357 124.108 16.2928 123.505 16.5831 122.917C16.9928 122.09 17.2201 121.254 16.8153 120.35C16.6926 120.076 16.6461 119.767 16.5267 119.492C16.3094 118.994 16.4885 118.241 16.0141 117.999C15.6177 117.797 15.0039 118.049 14.4864 118.039C14.07 118.031 13.8892 118.218 13.6686 118.555C13.1079 119.412 12.7015 120.386 11.8041 121.003C10.0889 122.183 7.40001 121.682 6.30521 119.92C5.64999 118.867 5.82085 117.724 6.10118 116.601C6.42796 115.29 7.06991 114.122 7.94244 112.918C6.24218 113.248 4.72604 113.057 3.42058 112.18C1.17292 110.67 0.172665 108.446 0.0681614 105.779C0.0250328 104.666 0.149442 103.573 0.600633 102.561C0.854428 101.993 0.574092 101.527 0.477883 101.058C0.000150963 98.7106 1.90278 96.5227 4.11561 96.521C6.86423 96.5177 8.62586 95.048 10.1005 92.9596C10.7176 92.0854 11.4491 91.2892 12.6136 91.1134C12.8359 91.0802 13.025 91.0354 13.2473 91.1482C14.0733 91.5695 14.8397 91.4368 15.679 91.0371C18.2037 89.8344 20.8545 90.0949 23.5201 90.4615C24.6713 90.619 25.7313 91.047 26.8427 91.3124C27.2076 91.4003 27.4133 91.2129 27.6655 91.0669C29.5432 89.9887 31.4956 89.584 33.6072 90.3337C34.1762 90.5361 34.6141 90.8878 35.0355 91.2826C35.3009 91.5297 35.475 91.5828 35.7637 91.256C38.0495 88.6633 40.5742 86.3029 43.0574 83.9026C42.7765 83.7223 42.4812 83.7118 42.1716 83.8711C41.2427 84.3488 39.4959 84.0469 38.6151 83.264C38.4376 83.1064 38.3132 82.9023 38.0064 82.9007C36.2198 82.8874 35.1118 81.9933 34.5892 80.2284C34.0999 78.5729 34.0634 76.9091 34.6191 75.2852C35.2378 73.4721 36.6047 72.2944 38.212 71.3323C39.3749 70.6372 40.5758 70.0716 41.9045 69.8128C42.3026 69.7349 42.578 69.4529 42.7522 69.2024C44.1439 67.2135 46.1626 65.8583 47.7982 64.1182C49.7738 62.0165 51.3397 59.6511 52.6352 57.0766C53.5393 55.2802 54.6059 53.57 55.777 51.9244C56.968 50.2507 58.2419 48.6516 59.7282 47.2367C61.7884 45.2777 64.0975 43.6786 66.7714 42.6601C67.4532 42.3997 68.0238 42.1724 68.1582 41.2966C68.2643 40.6015 68.4103 38.407 68.2113 37.6622C67.5245 35.0778 67.415 32.4635 67.8679 29.8293C68.3125 27.2449 68.752 24.6572 69.2464 22.0811C69.4719 20.9034 69.817 19.7472 70.1239 18.5861C70.1836 18.3605 70.2814 18.2195 69.9596 18.0868C68.6857 17.5576 68.4369 16.5408 68.5729 15.2635C68.7487 13.6313 69.2746 12.1732 70.3428 10.9274C70.7409 10.463 71.1805 10.0765 71.9037 10.244C72.2322 10.3203 72.5805 10.2407 72.8658 9.91557C74.586 7.95322 76.8254 6.7423 79.1808 5.74868C81.5861 4.73516 84.0046 3.73491 86.5608 3.14604C86.8063 3.08964 86.8975 2.97021 86.9888 2.7413C87.8148 0.659516 89.3708 -0.242866 91.6168 0.0557164C92.773 0.209984 93.7732 0.65454 94.6424 1.49057C95.5946 2.40622 95.6029 3.4496 95.291 4.56763C95.1467 5.08185 95.2064 5.36219 95.6394 5.74537C97.4242 7.32454 98.3896 9.39305 98.9304 11.6772C99.2174 12.8898 99.501 14.1073 99.3783 15.3713C99.3318 15.8507 99.0133 16.2704 99.6453 16.7514C100.14 17.128 99.9904 17.9126 99.8925 18.5993C99.6835 20.0607 99.2273 21.3878 98.3548 22.5738C98.0911 22.9304 97.7576 23.2174 97.391 23.4546C96.4638 24.0584 96.2664 24.5196 97.0012 25.3539C98.6368 27.2118 98.9354 29.2255 98.0429 31.5163C100.203 31.5545 102.275 31.8531 104.285 32.5315C107.944 33.764 109.069 37.2425 107.793 40.4622C107.5 41.2053 107.173 41.9302 106.735 42.5838C106.528 42.8923 106.546 42.9719 106.83 43.0947C109.336 44.1746 111.491 45.8052 113.684 47.391C117.126 49.8808 119.907 52.9545 121.794 56.7399C123.164 59.4918 123.721 62.4312 122.744 65.5066C121.979 67.9119 120.853 70.0998 119.12 71.9444C118.634 72.4619 118.413 72.9347 118.65 73.6612C119.836 77.2907 120.926 80.9549 121.664 84.7005C122.2 87.4143 122.527 90.1728 122.63 92.9546C122.671 94.0992 122.475 95.1724 122.23 96.254C122.1 96.8279 121.553 97.1149 121.113 97.4085C118.594 99.1021 115.756 100.077 112.892 100.995C109.13 102.201 105.25 102.665 101.155 102.879C102.547 103.969 103.643 105.183 104.972 106.139C105.327 106.394 105.68 106.656 106.013 106.94C106.544 107.393 107.058 107.728 107.836 107.471C108.322 107.31 108.795 107.65 109.205 107.932C110.665 108.934 112.119 109.944 113.569 110.961C114.224 111.42 114.289 112.137 114.093 112.784C113.967 113.198 114.035 113.245 114.357 113.427C116.454 114.603 118.735 115.35 120.923 116.307C122.348 116.931 123.736 117.646 125.041 118.505C125.771 118.986 126.334 119.668 126.725 120.388C127.073 121.03 126.913 121.876 126.833 122.627C126.531 125.503 126.206 128.388 125.368 131.16C124.487 134.078 123.588 137.007 121.936 139.62C121.435 140.409 120.81 141.101 120.017 141.919C120.619 141.919 121.067 141.925 121.513 141.919C123.676 141.877 125.838 141.929 127.996 142.09C128.498 142.128 129.227 142.075 129.271 142.703C129.313 143.262 128.644 143.329 128.148 143.433C126.576 143.763 124.978 143.734 123.388 143.785C120.206 143.889 117.016 143.873 113.843 144.107C111.116 144.307 108.397 144.361 105.698 144.027C104.026 143.821 102.289 143.398 101.692 141.424C101.402 140.464 101.395 139.469 101.634 138.495C102.112 136.553 103.112 134.955 104.839 133.875C105.182 133.661 105.549 133.391 105.929 133.346C106.969 133.227 107.355 132.522 107.835 131.716C108.969 129.81 109.462 127.942 108.409 125.819C108.108 125.215 108.152 124.417 108.513 123.753C108.626 123.548 108.689 123.448 108.447 123.304C108.14 123.12 108.147 123.417 108.052 123.534C106.518 125.432 105.396 127.617 103.887 129.529C103.562 129.941 103.213 130.345 102.586 130.07C100.458 129.133 98.3697 128.124 96.4837 126.744C96.2067 126.542 95.8849 126.288 96.0358 125.946C96.2879 125.376 95.9197 125.251 95.5564 125.074C92.9637 123.808 90.5518 122.265 88.3158 120.437C86.7947 119.192 85.4693 117.777 84.3115 116.191C83.9333 115.673 84.061 115.164 84.3612 114.736C86.4049 111.823 88.349 108.844 90.2931 105.865C91.776 103.591 93.3817 101.395 94.951 99.1784C95.2943 98.694 94.9941 98.2279 95.0107 97.7552C95.019 97.4997 94.8879 97.2376 94.7718 96.7964H94.7751ZM96.0342 34.3529C97.4557 34.0808 98.6998 34.3545 99.8908 34.955C100.675 35.3498 101.084 36.0813 100.992 36.9621C100.848 38.3572 99.7913 39.0821 98.8093 39.807C97.129 41.0461 95.1168 41.6333 93.2441 42.4975C90.1571 43.9224 87.1364 45.48 84.5338 47.6978C83.7127 48.3962 82.8103 49.0215 82.1849 49.982C81.5712 50.9242 80.9956 50.9524 80.206 50.2275C78.5704 48.7246 77.192 47.021 76.6611 44.8016C76.5185 44.2077 76.263 43.9821 75.6841 43.8677C74.4749 43.6305 73.3253 43.2158 72.2405 42.5904C71.5653 42.2023 70.9881 41.7013 70.3544 41.2717C70.0525 41.0677 69.7904 40.998 69.6992 41.4658C69.4769 42.5987 69.5715 43.6769 70.1603 44.707C70.9134 46.0225 72.1161 46.7938 73.385 47.5004C74.2708 47.9931 75.2296 48.3 76.1884 48.6135C76.7175 48.786 77.1638 49.1576 77.2666 49.7166C77.3296 50.0616 76.9597 50.3983 76.6495 50.3801C75.7737 50.332 75.8019 51.022 75.6692 51.5131C74.863 54.5155 74.2891 57.5693 73.7367 60.6264C73.6936 60.8637 73.6654 61.0395 73.9291 61.2535C74.5943 61.7942 74.2343 62.4428 73.949 63.0267C73.6521 63.6322 73.0765 63.8379 72.4876 63.6454C71.771 63.4116 71.7047 62.7198 71.8672 62.1227C72.1061 61.2485 72.2803 60.3809 72.3848 59.4769C72.7132 56.6039 73.4962 53.8188 74.1929 51.0204C74.5279 49.6768 74.5346 49.6784 73.2457 49.146C73.1959 49.1244 73.1329 49.1294 73.0864 49.1045C70.9682 47.9682 68.966 46.6959 68.266 44.1961C68.1151 43.6603 67.9525 43.7499 67.6008 43.8926C64.0378 45.3357 61.178 47.7161 58.7313 50.6156C56.89 52.797 55.4402 55.2486 53.9905 57.702C52.9006 59.5482 52.1243 61.5902 50.6231 63.1876C49.3011 64.5959 48.0984 66.1121 46.6039 67.3678C45.9022 67.9566 45.1756 68.587 44.6365 69.4313C47.002 69.6702 49.0705 70.4017 50.6297 72.1185C52.184 73.8288 52.972 75.8823 52.7878 78.3224C53.0599 78.1897 53.2125 78.135 53.3452 78.0487C55.4618 76.7001 57.3047 75.0115 58.9237 73.1254C59.8642 72.029 60.8993 70.8794 60.9126 69.2306C60.9358 66.3161 61.2709 63.4381 61.8996 60.5833C62.4038 58.2925 62.9529 56.0266 63.8437 53.8503C64.0295 53.3974 64.2219 53.1685 64.751 53.3526C65.2553 53.5301 65.3747 53.8221 65.1939 54.2948C64.6067 55.8276 64.2169 57.415 63.8188 59.0058C63.079 61.9601 62.505 64.9393 62.4055 67.9832C62.2628 72.3723 62.5647 76.7399 63.4273 81.0495C63.6214 82.0199 63.7889 83.0666 65.0446 83.5559C66.6736 84.1879 68.3307 84.7121 70.0293 84.9974C72.2604 85.3739 74.5047 85.7239 76.7706 85.8766C81.7569 86.2116 86.7416 86.2863 91.7213 85.7455C93.3204 85.5713 93.322 85.5929 93.2988 83.9855C93.2972 83.8246 93.337 83.6621 93.322 83.5028C93.2159 82.4147 93.5907 81.295 93.0533 80.2284C92.8742 79.8734 92.8493 79.4952 92.3632 79.3343C91.7362 79.1269 91.4045 78.4949 91.2817 77.9509C90.5983 74.9335 91.2817 72.2131 93.5078 70.0417C94.1431 69.4214 94.3936 68.9984 94.1995 68.1225C93.7152 65.9412 93.896 63.6969 93.7467 61.4824C93.6554 60.1272 93.8114 58.7653 93.9308 57.4084C94.1033 55.4543 94.3853 53.5169 94.6657 51.5777C94.9178 49.831 95.3474 48.1275 96.0557 46.3625C95.8301 46.4869 95.7356 46.535 95.646 46.5914C93.4862 47.9516 91.358 49.3948 88.9014 50.1595C87.6307 50.5543 87.2409 51.392 87.0949 52.5448C86.8345 54.5967 86.2556 56.6072 86.2307 58.6873C86.2174 59.7008 85.7662 60.7027 86.3667 61.7511C86.7217 62.3698 86.3203 63.0632 85.7231 63.463C85.4063 63.6736 84.9999 63.8097 84.6034 63.4762C84.0162 62.9836 83.7475 62.4163 84.0958 61.6814C84.4425 60.9499 84.5504 60.1753 84.6084 59.3807C84.7278 57.77 84.897 56.1709 85.2454 54.5851C85.4876 53.4787 85.7978 52.364 85.7828 51.1581C85.5722 51.2012 85.4196 51.2476 85.262 51.2626C84.693 51.319 84.0643 51.3505 83.9383 50.6339C83.8072 49.8941 84.4326 49.7199 84.9833 49.6585C87.4582 49.3832 89.6312 48.2867 91.7727 47.1455C94.7154 45.5762 97.4391 43.5907 100.574 42.3864C101.666 41.9667 102.782 41.3994 103.993 42.2437C104.519 42.6103 105.005 42.2056 105.307 41.7378C105.826 40.9316 106.247 40.0774 106.521 39.1468C107.145 37.0302 106.397 35.4344 104.489 34.3562C102.615 33.2962 100.551 33.2083 98.5256 32.9412C97.5154 32.8085 96.5252 33.0789 96.0358 34.3562L96.0342 34.3529ZM37.026 131.784C37.5386 131.558 37.58 131.56 37.726 131.329C38.635 129.884 40.0815 129.232 41.6225 128.834C44.6349 128.058 47.4764 128.536 50.1155 130.219C50.5352 130.488 50.9366 131.176 51.4276 130.891C51.9037 130.614 52.0729 129.911 52.2902 129.35C52.3101 129.299 52.3051 129.237 52.3317 129.191C52.5407 128.836 52.4528 128.712 52.0397 128.585C51.2053 128.33 50.3461 128.166 49.525 127.847C48.2262 127.343 47.9972 126.976 48.5712 125.711C49.2712 124.168 50.0077 122.639 50.794 121.137C51.2037 120.356 51.8291 119.779 52.831 119.882C53.1312 119.912 53.317 119.815 53.4547 119.492C53.8909 118.477 54.4251 117.501 54.8431 116.48C55.5199 114.829 56.4106 113.288 57.2201 111.706C57.4324 111.291 57.459 110.989 57.0708 110.629C56.4836 110.085 55.8417 109.639 55.1632 109.221C52.4909 107.572 49.5814 107.116 46.5043 107.424C46.2074 107.454 46.0648 107.62 45.9204 107.819C45.2138 108.789 44.3512 109.475 43.1751 109.899C40.1163 111.002 37.1886 110.904 34.3321 109.319C33.9506 109.106 33.7018 109.043 33.4613 109.582C32.2338 112.353 30.2946 114.511 27.8264 116.279C25.3448 118.057 22.6592 118.696 19.6751 118.289C19.0165 118.2 18.3547 118.135 17.6547 118.054C18.1822 120.059 18.7826 121.914 19.7962 123.626C21.299 126.164 23.1817 128.298 25.8093 129.717C26.2306 129.944 26.4993 130.082 26.632 129.402C26.7465 128.814 26.846 128.224 26.9754 127.642C27.0617 127.25 27.2591 126.741 27.7683 126.875C28.1996 126.988 28.3704 127.378 28.2842 127.919C27.8114 130.909 26.8062 133.743 25.8275 136.589C25.0645 138.81 23.9116 140.759 22.135 142.32C21.5064 142.873 21.0104 143.521 20.7301 144.321C20.4116 145.228 20.818 146.222 21.6341 146.593C22.0455 146.781 22.2694 146.829 22.2794 146.232C22.2976 145.054 22.991 144.13 23.5666 143.174C23.8005 142.786 24.1604 142.82 24.4905 143.052C24.8123 143.277 24.9931 143.551 24.6531 143.929C24.2284 144.404 23.9929 144.996 23.7242 145.558C23.1834 146.693 23.4272 147.212 24.5303 147.141C25.0379 147.107 25.5671 147.106 26.083 146.98C27.5145 146.628 28.4683 145.731 29.3226 144.561C31.63 141.401 33.3933 137.992 34.5594 134.254C35.3855 131.604 36.331 128.993 37.2118 126.363C37.4059 125.785 37.804 125.928 38.1838 126.064C38.5604 126.197 38.7064 126.384 38.5421 126.867C37.9947 128.474 37.5353 130.11 37.0277 131.785L37.026 131.784ZM60.8396 73.2532C60.7616 73.3212 60.7003 73.361 60.6571 73.4157C58.6666 75.9354 56.3476 78.062 53.4663 79.5483C53.1776 79.6976 52.6584 79.812 52.6336 80.2615C52.5622 81.5372 51.7212 82.4196 51.0345 83.3436C49.5001 85.4121 47.2359 85.7754 45.1823 84.3637C44.8621 84.1431 44.6681 84.2443 44.4889 84.4832C44.0593 85.0538 43.5036 85.4917 42.9943 85.9827C40.9573 87.9534 38.9585 89.9638 36.9281 91.9428C36.6229 92.2397 36.5118 92.4188 36.8568 92.7771C38.0976 94.0677 38.6865 95.7497 39.5391 97.2774C40.3005 98.641 41.1249 99.8685 42.9529 100.258C45.5854 100.821 47.2724 102.363 46.9821 105.309C46.9439 105.689 46.9854 105.862 47.5145 105.824C49.7539 105.661 51.9601 105.933 54.012 106.875C54.6191 107.154 54.6855 106.968 54.8398 106.517C55.2661 105.274 55.412 103.986 55.2395 102.707C55.0189 101.058 54.6308 99.4604 53.5094 98.1052C52.8791 97.3438 52.0845 96.7383 51.5636 95.8741C50.8023 94.6101 51.5504 92.8667 52.9919 92.724C53.9241 92.6328 54.8597 92.7655 55.7421 93.0774C58.514 94.0577 60.2872 95.9919 61.2294 98.7687C61.7652 100.35 61.9112 101.983 62.1069 103.816C63.5351 101.152 65.3499 98.9777 66.9655 96.6653C68.8681 93.9449 70.8902 91.3074 72.6452 88.4858C72.9023 88.0728 73.2623 87.5337 72.6966 87.2086C72.3582 87.0145 72.0315 87.5453 71.8158 87.8522C70.522 89.6851 69.2497 91.533 67.979 93.3809C67.843 93.58 67.7037 93.7226 67.4482 93.6845C67.1994 93.648 67.0733 93.4937 67.0086 93.2565C66.2804 90.6224 65.0927 88.1358 64.4956 85.4569C64.4276 85.1533 64.2799 84.6938 64.0676 84.6258C62.4237 84.1016 62.1982 82.6469 61.9145 81.3149C61.3522 78.6757 61.1647 75.9785 60.8363 73.2515L60.8396 73.2532ZM117.182 74.124C115.08 75.9819 112.667 77.2376 110.32 78.5928C109.596 79.0108 108.852 79.3011 108.352 80.094C107.574 81.3281 106.259 81.8158 104.854 81.8988C104.212 81.9369 103.786 82.1775 103.402 82.617C102.588 83.5526 101.561 84.1531 100.4 84.5595C99.1378 85.0024 97.4756 84.3107 96.8984 83.0284C96.7939 82.7945 96.696 82.7282 96.4936 82.7547C95.8931 82.8343 95.3325 82.622 94.7536 82.4744C94.5844 85.0637 94.7453 87.5851 95.0588 90.0932C95.364 92.525 95.7721 94.9418 96.2664 97.3438C96.3941 97.9658 96.6031 98.568 96.6363 99.2315C96.6645 99.822 96.9697 100.456 97.3164 100.957C97.5503 101.295 98.1309 101.093 98.5472 101.204C98.7877 101.268 99.0797 101.118 99.3368 101.152C101.367 101.428 103.371 101.247 105.4 101.01C108.293 100.67 111.099 99.968 113.843 99.0805C115.673 98.4883 117.499 97.8182 119.231 96.9042C120.427 96.2739 121.085 95.549 121.069 94.1689C121.049 92.5349 120.924 90.9143 120.768 89.2887C120.515 86.6363 119.959 84.0486 119.363 81.4592C118.799 79.0075 117.993 76.6321 117.185 74.119L117.182 74.124ZM74.9244 18.0635C74.2177 18.0635 73.5128 18.0602 72.8061 18.0635C71.8324 18.0702 71.5537 18.3008 71.3729 19.2562C70.7824 22.3598 70.1222 25.4485 69.6312 28.5703C69.2281 31.1265 68.9196 33.6694 69.4139 36.2406C69.7042 37.7501 70.3544 39.1235 71.4608 40.1669C73.1959 41.8042 75.3822 42.5622 77.7261 42.612C81.261 42.6883 84.338 41.5404 86.6106 38.6889C86.8909 38.3373 87.1264 38.2295 87.498 38.4882C87.9061 38.7719 87.8862 39.1617 87.6539 39.5001C86.6819 40.92 85.4677 42.0646 83.8802 42.8011C82.1484 43.6056 80.337 44.0236 78.4377 44.1066C78.1607 44.1182 77.892 44.0949 78.0827 44.5727C78.6467 45.986 79.4446 47.2267 80.5245 48.3C80.8761 48.6483 81.11 48.6351 81.4733 48.295C83.2515 46.6279 85.2321 45.2246 87.2807 43.9092C88.981 42.816 90.8803 42.1226 92.6602 41.1871C93.0467 40.9847 93.0218 40.9084 92.8078 40.5551C91.8756 39.019 91.1789 37.3868 91.2286 35.5389C91.2419 35.0462 91.0561 34.7045 90.7094 34.3877C90.4656 34.1654 90.1139 33.9713 90.4971 33.5235C90.8637 33.0938 91.2303 33.1171 91.5521 33.4488C91.8772 33.7839 92.214 33.7673 92.6071 33.7159C94.9858 33.4057 96.6761 31.873 96.9813 29.5208C97.1306 28.3779 96.8752 27.2184 95.923 26.3923C94.946 25.548 93.8163 25.5546 92.6685 25.9544C91.8971 26.2231 91.2751 26.7141 90.8736 27.444C90.6763 27.8023 90.3943 27.9698 89.9895 27.8836C89.5997 27.8006 89.5466 27.4971 89.5947 27.1786C89.6462 26.8435 89.4322 26.7042 89.2281 26.5084C87.6639 25.0106 87.2343 23.0349 87.1513 21.0096C87.0949 19.6112 87.1596 19.5332 85.8741 19.2811C82.2596 18.5695 78.6235 18.0718 74.9277 18.0619L74.9244 18.0635ZM105.667 63.7516C105.435 63.5559 105.23 63.3751 105.018 63.2059C103.754 62.2006 102.346 61.3762 101.248 60.167C100.946 59.8335 100.738 59.4487 101.12 59.0854C101.467 58.7537 101.837 58.8632 102.223 59.1667C103.547 60.2118 104.944 61.1689 106.222 62.2653C106.737 62.7066 106.936 62.5423 107.307 62.1857C108.274 61.2551 109.27 60.3511 110.27 59.4537C110.577 59.18 110.957 59.0539 111.298 59.4089C111.599 59.7207 111.557 60.0724 111.257 60.361C109.829 61.7345 108.43 63.1395 106.914 64.4201C105.532 65.5879 104.212 66.8303 102.8 67.8538C107.337 69.3732 109.568 72.5249 109.79 77.2326C111.302 76.4845 112.735 75.4826 114.193 74.5271C115.684 73.5484 116.767 72.1368 117.985 70.8662C119.654 69.1244 120.803 67.0692 121.367 64.7618C121.981 62.2438 121.575 59.7788 120.369 57.4598C119.259 55.3283 117.962 53.3029 116.202 51.6773C114.659 50.2524 113.116 48.8159 111.336 47.6414C109.319 46.3094 107.394 44.8596 105.055 44.1032C104.532 43.934 104.021 43.8926 103.519 44.0087C103.099 44.1066 103.378 44.5694 103.252 44.8613C102.814 45.8815 102.424 46.9331 102.142 48.0064C101.497 50.4713 101.193 52.9977 101.007 55.534C100.81 58.2229 100.647 60.9151 100.526 63.6073C100.471 64.8414 100.498 66.0839 100.689 67.3562C102.44 66.3426 104.048 65.0886 105.667 63.7516ZM15.1764 116.309C15.3191 116.387 15.4037 116.334 15.5098 116.3C17.2267 115.753 18.9734 115.318 20.7168 114.867C22.1649 114.492 23.6927 114.252 24.9865 113.474C27.5162 111.953 29.1152 109.602 30.4622 107.043C30.6994 106.592 30.7309 106.202 30.4788 105.842C29.6792 104.696 29.3707 103.357 28.8963 102.08C28.3937 100.726 27.6538 99.5201 26.5889 98.5182C24.7161 96.7582 24.5038 95.6866 25.5555 93.3594C25.7943 92.8302 25.7413 92.5532 25.1242 92.3674C23.5118 91.8797 21.868 91.6956 20.1909 91.6525C18.134 91.601 16.2148 92.0307 14.5676 93.2847C13.501 94.0959 12.8093 95.1392 12.6235 96.5724C12.4743 97.7203 12.2304 98.9279 11.2103 99.7722C10.5882 100.286 9.91806 100.482 9.14009 100.512C8.76852 100.527 8.3787 100.562 8.76686 101.174C9.20644 101.867 9.38559 102.664 9.15999 103.528C8.66899 105.394 6.81778 105.852 5.27179 105.872C3.9912 105.888 2.73715 105.702 1.55941 104.888C1.56273 107 1.93596 108.831 3.39901 110.259C4.44073 111.274 5.67321 111.848 7.17939 111.507C7.53272 111.427 7.82135 111.324 7.3967 110.893C6.88579 110.374 6.59218 109.72 6.63365 108.974C6.65688 108.547 6.79787 108.119 7.32703 108.108C7.77324 108.098 7.95571 108.371 8.05192 108.829C8.28249 109.936 8.90454 110.7 10.0325 111.12C11.6648 111.725 13.2025 111.402 14.7402 110.873C15.8997 110.473 16.8452 109.712 17.7326 108.892C17.9151 108.725 18.3829 108.38 17.9002 108.159C17.434 107.945 17.3909 107.665 17.5103 107.323C17.6646 106.888 17.9798 106.58 18.5073 106.608C19.2819 106.648 19.9421 106.983 20.5111 107.466C21.0004 107.88 20.8047 108.444 20.1478 108.6C19.554 108.741 19.204 109.103 19.1376 109.7C19.0762 110.257 18.8241 110.732 18.5852 111.221C17.6795 113.069 16.4719 114.715 15.1764 116.309ZM111.872 139.062C112.677 139.237 113.427 138.966 114.19 138.89C115.268 138.78 116.185 138.258 116.741 137.286C117.23 136.433 117.663 135.547 118.094 134.663C119.202 132.387 119.82 129.957 120.47 127.519C121.231 124.656 121.631 121.761 121.881 118.828C121.906 118.54 121.843 118.329 121.594 118.213C120.561 117.729 119.556 117.181 118.459 116.841C118.053 116.715 117.874 116.76 117.895 117.261C117.95 118.508 117.673 119.714 117.268 120.88C116.865 122.043 116.27 123.106 115.313 123.931C114.027 125.037 112.576 124.963 111.063 124.584C110.041 124.329 109.684 124.659 109.819 125.688C110.021 127.234 110.383 127.565 111.925 127.661C112.801 127.716 113.674 127.806 114.45 128.272C114.707 128.426 114.89 128.67 114.752 128.96C114.616 129.246 114.326 129.426 114.005 129.256C113.307 128.882 112.521 128.982 111.794 128.793C110.958 128.574 110.522 128.771 110.29 129.67C110.154 130.198 110.242 130.332 110.703 130.44C111.574 130.646 112.461 130.783 113.299 131.12C113.709 131.284 114.118 131.447 113.941 131.979C113.768 132.497 113.349 132.331 112.967 132.226C112.018 131.968 111.068 131.714 110.112 131.477C109.912 131.427 109.61 131.145 109.502 131.551C109.361 132.085 108.804 132.422 108.845 133.021C108.848 133.077 109.008 133.142 109.104 133.172C109.776 133.384 110.446 133.608 111.129 133.786C111.358 133.845 111.509 134.04 111.708 134.076C112.317 134.186 112.262 134.542 112.131 134.983C111.968 135.532 111.539 135.332 111.25 135.25C110.179 134.95 109.134 134.476 108.011 134.472C105.504 134.466 103.913 136.254 103.208 138.337C103.082 138.709 103.346 138.712 103.593 138.795C104.481 139.092 105.408 139.17 106.324 139.248C108.183 139.407 110.041 139.268 111.872 139.064V139.062ZM100.87 69.3169C99.8378 69.3135 98.8392 69.4811 97.8373 69.6552C95.8019 70.0086 94.1033 70.8147 93.1727 72.8119C92.4694 74.3214 92.1277 75.8409 92.7182 77.4715C92.8095 77.7236 92.9704 77.9741 93.1661 78.0089C93.3851 78.0471 93.463 77.7203 93.5393 77.5262C94.1099 76.0797 95.092 74.9567 96.273 73.9814C96.5865 73.7226 96.8569 73.5783 97.1737 73.9615C97.4839 74.338 97.3064 74.5221 96.9946 74.8273C95.7671 76.03 94.795 77.3985 94.5495 79.1684C94.3853 80.3495 94.7453 80.9599 95.8069 81.2336C96.6595 81.4526 96.8884 81.2751 97.3695 79.963C97.8804 78.5729 98.9918 77.717 100.111 76.8743C100.387 76.667 100.704 76.7831 100.921 77.0418C101.122 77.2807 101.153 77.5179 100.866 77.7518C99.5923 78.7885 98.743 80.0592 98.4261 81.7213C98.2669 82.5573 98.2437 82.8692 99.0648 83.0765C100.437 83.4232 101.483 82.6602 102.309 81.776C103.009 81.0263 103.716 80.5634 104.728 80.4224C106.735 80.1421 107.831 79.0855 108.201 77.07C108.424 75.8591 108.057 74.7494 107.515 73.6397C106.148 70.8363 103.99 69.3533 100.865 69.3218L100.87 69.3169ZM39.9057 133.462C39.6303 133.462 39.35 133.489 39.0779 133.457C38.3929 133.378 38.1391 133.66 38.0412 134.351C37.7824 136.159 38.6284 137.511 39.7464 138.742C41.4301 140.592 43.3709 142.166 45.4294 143.568C48.7802 145.848 52.0613 148.305 56.2862 148.803C57.5005 148.945 58.6882 148.904 59.8709 148.61C60.1545 148.541 60.4398 148.4 60.5045 148.143C60.5825 147.834 60.2059 147.827 60.0202 147.698C58.4941 146.631 57.0277 145.492 55.6891 144.191C54.3172 142.858 53.0964 141.396 51.8606 139.942C50.7376 138.619 49.3359 137.579 47.9707 136.514C45.6003 134.662 42.9462 133.549 39.904 133.466L39.9057 133.462ZM50.0044 126.404C51.7411 126.771 53.4049 127.356 55.0521 127.997C56.2713 128.471 57.4109 129.125 58.6168 129.609C59.7564 130.067 60.8462 130.574 61.9095 131.196C63.4057 132.069 64.688 133.233 66.161 134.126C67.143 134.72 67.9658 135.514 68.8516 136.226C69.3359 136.616 69.5134 136.586 69.8319 136.093C70.6547 134.819 70.9649 133.31 71.7279 132.027C72.1177 131.374 71.9303 130.997 71.4874 130.631C70.3063 129.652 69.1501 128.632 67.8878 127.768C63.7806 124.949 59.3052 122.921 54.4549 121.741C52.7945 121.338 52.3632 121.39 51.907 122.342C51.2634 123.684 50.4108 124.929 50.0044 126.404ZM41.3073 82.5241C41.2509 82.3417 41.2028 82.1625 41.1381 81.9883C40.4083 80.0343 40.7052 78.1764 41.7187 76.4148C41.8614 76.1677 41.9792 75.5489 42.5448 75.9437C42.9545 76.229 43.0872 76.6056 42.7837 77.0568C41.9858 78.2428 42.0853 79.5864 42.1931 80.8952C42.3043 82.2571 43.6678 83.1462 44.8472 82.1476C45.7114 81.4161 46.3235 80.4656 46.3733 79.2961C46.3949 78.8084 46.1776 78.3108 46.0797 77.8148C45.9702 77.2641 46.146 76.7914 46.6918 76.647C47.274 76.4928 47.4847 76.944 47.6389 77.43C47.7435 77.7601 47.7219 78.1201 48.1913 78.3257C49.5996 78.9428 49.5598 79.1236 48.5778 80.3743C47.8679 81.2784 46.866 81.9203 46.3268 82.967C46.2456 83.123 45.9918 83.259 46.2671 83.4315C46.7316 83.7234 47.2392 84.0353 47.7965 83.8545C49.4586 83.3137 51.3513 80.9698 51.4774 79.0987C51.5935 77.3636 51.2302 75.7845 50.376 74.3148C49.1966 72.2877 47.3122 71.241 45.0562 71.0403C43.0093 70.8595 41.0983 71.4301 39.2504 72.4453C37.2367 73.5517 35.9295 75.0165 35.5596 77.3106C35.3291 78.7371 36.0888 80.6829 37.235 81.3381C37.2168 81.1639 37.2135 80.9964 37.1803 80.8371C36.7888 78.9909 37.2085 77.279 38.0014 75.6153C38.1822 75.2354 38.4725 75.1276 38.7959 75.2537C39.0862 75.3665 39.2836 75.6833 39.1177 75.9968C38.645 76.8925 38.5936 77.8895 38.4128 78.8466C38.0926 80.5452 38.8374 82.7248 41.3024 82.5258L41.3073 82.5241ZM74.576 10.312C77.9069 10.3269 81.0188 10.7765 84.1456 11.1232C86.7881 11.4168 89.3675 11.9094 91.8407 12.8367C93.7218 13.5417 95.6161 14.2516 97.3944 15.2104C97.887 15.4758 97.9119 15.1374 97.8621 14.8107C97.6 13.0855 97.4707 11.3255 96.6379 9.73808C95.8085 8.15891 95.0754 6.4968 93.2374 5.79181C92.5557 5.53138 91.8689 5.27261 91.1673 5.0719C89.2514 4.5245 87.3338 4.27568 85.3864 4.99062C81.6591 6.3558 77.8787 7.60321 74.5744 10.3104L74.576 10.312ZM17.9101 123.274C17.2449 125.198 16.3011 126.756 15.2809 128.267C13.6951 130.614 11.6731 132.542 9.41379 134.229C8.46496 134.937 7.55096 135.692 6.77133 136.581C5.97843 137.488 5.82748 138.631 6.28862 139.482C6.41469 139.716 6.55735 139.915 6.83768 139.912C7.16778 139.907 7.0384 139.603 7.12466 139.432C7.60405 138.487 8.05689 137.538 8.95098 136.855C9.4171 136.498 9.72066 136.617 10.0093 136.924C10.3659 137.304 10.1503 137.564 9.75715 137.832C8.99909 138.344 8.67728 139.182 8.37207 140C8.23273 140.373 8.34884 140.615 8.83984 140.597C9.5017 140.572 10.1519 140.547 10.7989 140.358C13.1112 139.681 15.0437 138.372 16.8136 136.795C18.8556 134.975 20.4945 132.81 22.1251 130.629C22.7024 129.858 22.7687 129.533 21.9675 128.819C20.2971 127.331 18.995 125.498 17.9085 123.274H17.9101ZM112.67 112.469C112.708 112.323 112.599 112.275 112.521 112.2C111.323 111.077 109.958 110.196 108.53 109.403C108.288 109.269 108.137 109.295 107.997 109.524C106.984 111.196 106.022 112.902 105.07 114.603C104.187 116.178 103.358 117.787 102.354 119.285C101.006 121.297 99.584 123.259 98.1574 125.218C97.8124 125.693 97.9335 125.867 98.3664 126.167C99.6088 127.028 100.997 127.587 102.349 128.225C102.804 128.439 103.127 128.232 103.315 127.87C104.268 126.029 105.541 124.39 106.664 122.66C108.757 119.437 110.731 116.153 112.524 112.756C112.574 112.661 112.62 112.565 112.67 112.469ZM39.1161 131.915C40.8877 132.066 42.5365 132.008 44.0941 132.623C48.1117 134.212 51.3082 136.874 54.0386 140.159C56.049 142.577 58.2353 144.795 60.969 146.421C61.3903 146.671 61.4716 146.676 61.5827 146.19C61.8697 144.949 62.2098 143.72 62.5432 142.489C62.8816 141.235 62.8882 141.237 61.6955 140.739C60.4996 140.24 59.5325 139.392 58.4725 138.687C57.5602 138.08 57.3097 137.377 57.2699 136.455C57.245 135.866 56.968 135.403 56.6578 134.954C55.9279 133.899 54.7303 133.456 53.7085 132.789C53.3369 132.545 52.9952 132.147 52.4013 132.207C53.458 133.794 54.2708 135.415 54.7717 137.188C54.9244 137.729 54.7037 138.074 54.2459 138.225C53.7947 138.374 53.5442 138.094 53.4397 137.646C53.0864 136.108 52.3831 134.701 51.4459 133.472C49.2828 130.637 46.2605 129.694 42.8285 130.052C41.4666 130.193 40.123 130.641 39.1111 131.918L39.1161 131.915ZM95.2894 68.8358C96.4704 68.5007 97.4756 68.1292 98.5306 68.0213C99.0747 67.9649 99.0896 67.7642 99.078 67.2881C99.0266 65.1964 98.9105 63.0914 99.0731 61.0113C99.2705 58.4833 99.3219 55.9437 99.6652 53.4223C99.8792 51.8481 100.029 50.2723 100.471 48.7396C100.982 46.9713 101.455 45.1914 102.346 43.458C100.72 43.73 99.4712 44.6241 98.0927 45.1997C97.9268 45.2677 97.8041 45.5331 97.7394 45.7305C97.396 46.7789 97.0261 47.8222 96.7607 48.8888C96.0408 51.7735 95.7074 54.7377 95.4851 57.6788C95.2396 60.925 95.1716 64.2161 95.7107 67.469C95.787 67.9251 95.8019 68.3863 95.291 68.8358H95.2894ZM102.877 139.756C102.953 141.318 103.29 141.833 104.572 142.244C106.12 142.74 107.745 142.783 109.346 142.866C111.088 142.956 112.829 142.74 114.561 142.551C117.252 142.257 119.362 141.053 120.768 138.659C122.042 136.49 122.878 134.159 123.61 131.77C124.429 129.098 124.949 126.354 125.191 123.591C125.438 120.756 125.443 120.25 123.265 119.137C123.499 121.428 122.844 123.609 122.482 125.819C122.228 127.37 121.677 128.857 121.259 130.375C120.515 133.076 119.365 135.597 118.011 138.032C117.469 139.008 116.699 139.771 115.57 140.068C113.65 140.572 111.675 140.625 109.713 140.746C107.402 140.887 105.104 140.829 102.877 139.757V139.756ZM58.3464 109.528C58.6815 109.31 58.8192 108.919 58.9735 108.59C59.4247 107.633 60.3138 106.857 60.3901 105.76C60.5045 104.11 60.5974 102.45 60.2408 100.801C59.7066 98.3324 58.7164 96.1677 56.3211 94.9933C55.2561 94.4708 54.1414 93.935 52.8741 94.3314C52.5855 94.421 52.2852 94.5106 52.5722 94.8772C52.8393 95.2189 53.1196 95.5705 53.458 95.8359C55.1981 97.2011 56.0938 99.1004 56.5483 101.154C57.0045 103.209 57.0078 105.319 56.0689 107.306C55.9694 107.517 55.8384 107.741 56.0921 107.882C56.9132 108.34 57.4855 109.133 58.3464 109.524V109.528ZM116.563 116.986C116.751 116.485 116.533 116.101 115.87 115.844C115.21 115.589 114.584 115.226 113.974 114.857C113.407 114.516 113.082 114.703 112.851 115.244C112.552 115.944 112.139 116.587 111.803 117.264C111.048 118.784 109.913 120.069 109.21 121.612C109.144 121.756 108.875 122.01 109.137 122.091C109.912 122.33 110.27 123.392 111.28 123.146C111.456 123.103 111.667 123.163 111.852 123.211C113.254 123.574 114.173 123.246 115.002 122.075C116.049 120.597 116.507 118.935 116.563 116.984V116.986ZM16.3757 111.704C15.3075 112.052 14.4416 112.384 13.5492 112.611C12.7811 112.807 12.2487 113.258 11.7875 113.86C11.5437 114.179 11.5055 114.569 11.338 114.91C11.1787 115.232 10.9432 115.337 10.5948 115.226C10.1934 115.098 10.1884 114.808 10.3195 114.509C10.4721 114.159 10.696 113.84 10.8553 113.494C10.9382 113.315 11.3513 113.109 10.9896 112.931C10.6529 112.767 10.2498 112.381 9.83346 112.769C8.31898 114.179 7.44812 115.931 7.24575 117.981C7.18603 118.581 7.29219 119.195 7.92917 119.598C9.41047 120.534 11.1157 120.228 12.0247 118.724C13.4214 116.413 14.6058 113.973 16.3757 111.706V111.704ZM59.8758 131.782C59.6088 131.76 59.5839 131.981 59.5109 132.145C59.2588 132.721 59.0962 133.358 58.7445 133.864C57.9467 135.015 58.4045 136.264 58.9784 137.04C59.836 138.203 61.1083 139.122 62.6643 139.441C63.1088 139.532 63.2913 139.431 63.4373 139.037C63.8221 138.004 64.2683 136.991 64.6167 135.945C64.761 135.511 64.6615 135.075 64.197 134.753C63.1851 134.053 62.2214 133.283 61.2178 132.572C60.7965 132.273 60.327 132.044 59.8742 131.78L59.8758 131.782ZM86.5425 12.9777C86.161 12.9429 85.8061 12.8583 85.6269 13.3725C85.2039 14.5834 84.7511 15.786 84.2733 16.977C84.1406 17.3088 84.1871 17.4199 84.5271 17.4548C85.5672 17.5642 86.5426 17.9259 87.5395 18.2128C88.0603 18.3638 88.6874 18.5778 89.0241 17.7865C89.5018 16.6635 90.1255 15.6036 90.444 14.4109C90.4872 14.25 90.6199 14.0659 90.3827 14.0194C89.0772 13.759 87.8812 13.0955 86.5442 12.9777H86.5425ZM77.2085 16.5905C77.9484 16.8161 78.3299 16.5341 78.5124 15.7728C78.7861 14.6398 78.9785 13.467 79.6304 12.4535C79.9273 11.9924 79.5093 12.0206 79.2688 12.0056C78.2901 11.9393 77.3081 11.8945 76.3277 11.8514C75.8434 11.8298 75.5216 12.0023 75.3159 12.5016C74.8282 13.6926 74.3156 14.8704 73.9689 16.1161C73.8528 16.5292 73.964 16.5972 74.3189 16.5955C75.281 16.5905 76.2448 16.5939 77.2069 16.5939L77.2085 16.5905ZM83.0657 17.1346C83.2548 17.0998 83.5335 17.3337 83.58 16.9389C83.7392 15.6152 84.489 14.4872 84.829 13.2215C84.9286 12.8533 85.0032 12.6824 84.5221 12.6443C83.4605 12.5613 82.4039 12.4137 81.3406 12.3341C81.0188 12.3092 80.6489 12.208 80.4548 12.699C80.0019 13.8452 79.6652 15.0246 79.3368 16.2074C79.229 16.5939 79.3351 16.7863 79.8128 16.8145C80.9027 16.8775 81.9875 17.0235 83.0657 17.1363V17.1346ZM94.7055 16.1825C94.7204 15.8275 94.6574 15.723 94.4765 15.6301C93.6472 15.2088 92.8028 14.8289 91.9286 14.5121C91.6002 14.3926 91.4244 14.5237 91.3166 14.8389C90.8886 16.078 90.3909 17.2856 89.6578 18.3854C89.5549 18.538 89.4305 18.8813 89.7556 18.9195C90.9682 19.0655 92.0149 19.6958 93.1611 20.0309C93.332 20.0806 93.4779 20.1437 93.5493 19.9148C93.9524 18.6176 94.3538 17.3187 94.7055 16.1825ZM74.5263 11.8912C73.7201 11.7137 72.9786 11.8597 72.2504 11.79C71.7661 11.7436 71.4343 11.9343 71.1092 12.286C70.6231 12.8118 70.4788 13.4886 70.2068 14.104C69.88 14.8438 69.7689 15.6998 70.2416 16.3766C70.6149 16.9123 71.285 16.5856 71.8374 16.4877C72.0779 16.4446 72.3317 16.4744 72.5789 16.4728C72.8111 16.4711 72.9637 16.4412 73.0234 16.1344C73.3054 14.663 73.881 13.2846 74.5263 11.8895V11.8912ZM98.4941 18.2128C98.5621 17.9823 98.3797 17.8778 98.2536 17.7351C97.6979 17.1048 96.9 16.8676 96.1967 16.4811C95.8417 16.2853 95.5415 16.3732 95.4171 16.8261C95.1052 17.9524 94.7751 19.0754 94.455 20.1984C94.3986 20.3958 94.3953 20.5484 94.6341 20.6645C95.2694 20.9747 95.855 21.3745 96.5218 21.6366C96.9448 21.8025 97.1538 21.7162 97.3944 21.3529C98.0313 20.3941 98.1773 19.2745 98.4958 18.2095L98.4941 18.2128ZM57.5137 133.612C57.7725 132.867 58.008 132.173 58.2585 131.485C58.3299 131.289 58.3829 131.147 58.1325 131.037C56.8867 130.49 55.6625 129.889 54.3952 129.395C53.6952 129.121 53.5675 129.833 53.3303 130.251C53.098 130.661 53.254 130.838 53.7085 131.06C55.0471 131.716 56.2381 132.621 57.5137 133.612Z" fill="#491103"/>
<path d="M68.7068 78.1136C68.5758 78.8468 68.8379 79.5933 68.9424 80.348C69.017 80.8905 68.949 81.2504 68.4033 81.3234C67.9007 81.3914 67.6518 81.0596 67.5208 80.5769C67.2471 79.5618 67.3184 78.525 67.3134 77.5032C67.3035 75.2074 67.7862 72.9913 68.6239 70.8564C69.1779 69.4431 69.8448 68.8592 71.6562 69.1064C73.6782 69.3834 75.7484 69.3652 77.797 69.3635C81.1594 69.3635 84.5101 69.7268 87.8742 69.6621C88.7782 69.6439 89.1282 69.9789 89.1763 70.8631C89.2825 72.7956 89.4782 74.7181 90.087 76.5627C90.5 77.8134 90.6477 79.1703 91.4671 80.2717C91.6645 80.5371 91.5135 80.7528 91.351 80.9352C91.1735 81.136 90.9761 81.3582 90.646 81.2006C90.2661 81.0182 89.9626 80.7909 89.7818 80.3696C89.3156 79.2864 88.891 78.2016 88.6886 77.0255C88.3751 75.2025 87.7282 73.4358 87.8012 71.5481C87.8178 71.1036 87.4727 71.1334 87.1642 71.1268C84.2663 71.077 81.3684 71.0688 78.4738 70.956C76.1084 70.8647 73.7247 70.9659 71.3858 70.5131C70.5365 70.3488 70.1715 70.7304 69.931 71.4254C69.1879 73.5768 68.7417 75.7814 68.7068 78.1103V78.1136Z" fill="#491103"/>
<path d="M100.361 87.0316C100.326 86.5838 100.566 86.1807 100.94 86.1624C101.3 86.1442 101.658 86.393 101.706 86.9354C101.935 89.4833 102.452 91.9798 103.161 94.4381C103.322 94.9972 103.579 95.5014 103.844 96.0107C104.055 96.4138 104.232 96.8533 103.655 97.1055C103.106 97.3443 102.811 96.933 102.656 96.5332C102.068 95.0104 101.389 93.5125 101.072 91.8969C100.756 90.2878 100.525 88.6639 100.361 87.0316Z" fill="#491103"/>
<path d="M75.0337 31.1182C75.4749 31.1364 75.9494 31.0419 76.379 30.7549C76.7356 30.5161 77.1039 30.4348 77.3676 30.8777C77.5965 31.2625 77.5982 31.6639 77.2598 31.9957C76.2363 32.9993 73.9124 32.9346 72.9436 31.8862C72.4062 31.3056 72.3531 30.239 72.8341 29.3416C73.2754 28.5189 73.8178 27.7708 74.4697 27.094C75.0602 26.4802 75.5994 25.8167 76.1517 25.1681C76.3724 24.9077 76.6245 24.7601 76.9397 24.9475C77.2333 25.1217 77.3079 25.4053 77.2067 25.7387C76.8949 26.7672 76.2032 27.5501 75.4832 28.29C74.9972 28.7893 74.5974 29.3433 74.2425 29.9206C73.647 30.8893 73.8195 31.1282 75.032 31.1215L75.0337 31.1182Z" fill="#491103"/>
<path d="M81.3165 33.1698C81.2419 32.498 81.3912 32.012 82.0563 31.8345C82.1575 31.8079 82.2687 31.7731 82.3682 31.7864C82.7829 31.8444 83.813 33.417 83.7102 33.82C83.6289 34.1418 83.4249 34.4802 83.108 34.3525C82.5606 34.1319 82.4843 34.462 82.2272 34.7971C80.5253 37.0198 76.73 38.0881 74.5072 36.4874C74.3529 36.3762 74.2103 36.2468 74.0676 36.1208C73.6927 35.784 73.7989 35.4191 74.0643 35.1023C74.343 34.7689 74.6565 34.7987 74.9916 35.0907C76.2357 36.1772 78.0338 35.9682 79.3492 35.2134C79.9447 34.8717 80.4921 34.4719 80.9831 33.9892C81.2369 33.7404 81.5819 33.543 81.3165 33.1698Z" fill="#491103"/>
<path d="M81.7911 20.6178C82.7001 20.7024 83.5246 20.9413 84.1499 21.6197C84.4004 21.8901 84.4916 22.2434 84.4535 22.6083C84.3987 23.1358 84.1632 23.3747 83.6357 23.0529C83.5179 22.9816 83.3786 22.9335 83.2874 22.8373C82.3767 21.8702 81.3466 22.0079 80.2634 22.4756C79.9233 22.6233 79.5418 23.0794 79.2067 22.5072C78.8833 21.9548 79.1968 21.6197 79.6612 21.2929C80.3198 20.8301 81.0513 20.6958 81.7928 20.6195L81.7911 20.6178Z" fill="#491103"/>
<path d="M73.5485 20.1187C74.4012 19.9312 75.0365 20.5085 75.7116 20.8784C76.1296 21.1073 76.3453 21.6016 76.0384 22.0926C75.6801 22.6682 75.2024 22.3978 74.8374 22.1241C73.9997 21.4971 73.1156 21.5319 72.2066 21.8521C71.8101 21.9914 71.3987 22.1042 71.2163 21.6729C71.0454 21.2682 71.286 20.8601 71.6575 20.6246C72.2199 20.2679 72.8319 20.0341 73.5469 20.1187H73.5485Z" fill="#491103"/>
<path d="M80.0616 27.2855C80.065 26.5921 80.0766 26.0762 80.3735 25.6864C80.5891 25.4044 80.6157 24.7492 81.1896 24.9598C81.7453 25.1639 82.1666 25.5836 82.1202 26.2587C82.0953 26.6087 82.0439 26.9653 81.9427 27.2987C81.7752 27.8511 81.4733 28.3272 80.7998 28.236C80.1446 28.148 80.0168 27.6587 80.0616 27.2838V27.2855Z" fill="#491103"/>
<path d="M72.0144 25.9957C72.0011 25.2293 72.3926 24.7134 72.7028 24.1776C72.8587 23.9072 73.1639 23.894 73.4393 24.0117C73.844 24.1859 73.9917 24.5558 73.985 24.949C73.9784 25.3255 73.8905 25.7054 73.8026 26.0753C73.6865 26.5679 73.5355 27.1137 72.8919 27.0506C72.2582 26.9876 71.9248 26.5746 72.0111 25.9957H72.0144Z" fill="#491103"/>
<path d="M91.3862 29.4225C91.2783 28.6728 92.048 28.7142 92.4528 28.4439C92.889 28.1536 93.3966 27.9081 93.954 27.918C94.299 27.9247 94.6374 28.0524 94.6954 28.4306C94.7535 28.8005 94.4168 28.9896 94.1364 29.0277C93.3999 29.1306 92.8874 29.6415 92.2703 29.9583C92.0862 30.0529 91.9684 30.2669 91.703 30.0943C91.4674 29.9401 91.3662 29.7493 91.3862 29.4225Z" fill="#491103"/>
<path d="M13.3293 99.8093C13.4106 99.2519 13.5864 98.5702 14.0658 98.0211C14.303 97.7491 14.6182 97.5069 14.9947 97.7706C15.3414 98.0128 15.5952 98.3097 15.3248 98.7958C15.0295 99.3282 15.1141 100.012 14.6115 100.483C14.3246 100.753 14.0625 100.939 13.676 100.793C13.2779 100.644 13.316 100.29 13.3293 99.8093Z" fill="#491103"/>
<path d="M18.2749 100.677C18.2168 100.14 18.741 99.6552 19.0197 99.0879C19.1573 98.8059 19.5571 98.7412 19.8922 98.9784C20.1675 99.1741 20.4014 99.34 20.2405 99.7613C20.0763 100.191 20.0464 100.67 19.8839 101.1C19.7014 101.578 19.4891 102.125 18.804 101.986C18.1521 101.853 18.313 101.301 18.2765 100.675L18.2749 100.677Z" fill="#491103"/>
</svg>
