<svg width="162" height="151" viewBox="0 0 162 151" fill="none" xmlns="http://www.w3.org/2000/svg">
<path d="M17.2313 145.611C19.8247 147.549 24.0756 146.778 26.0103 143.957C26.8423 142.744 27.4366 141.366 28.1448 140.066C28.3809 139.634 28.5262 138.898 29.1964 139.208C29.8188 139.495 29.3747 140.104 29.2129 140.52C28.4766 142.425 27.5935 144.246 26.1539 145.748C25.525 146.404 25.7148 147.047 26.5997 147.247C27.8609 147.533 28.9257 147.039 29.8435 146.224C31.9219 144.378 33.6107 142.232 34.7976 139.702C34.999 139.272 35.1261 138.498 35.8261 138.827C36.465 139.127 36.0671 139.761 35.8822 140.215C34.9363 142.543 33.5017 144.538 31.6743 146.258C31.4745 146.447 31.2616 146.628 31.0981 146.846C30.6442 147.453 30.8604 148.115 31.6099 148.168C32.4716 148.229 33.3829 148.247 34.2099 148.041C37.604 147.193 39.552 144.868 40.5062 141.6C40.5838 141.337 40.6102 141.032 40.7653 140.826C40.9535 140.577 41.2523 140.411 41.5049 140.21C41.6122 140.537 41.8714 140.9 41.8004 141.182C41.6073 141.948 41.3332 142.709 40.9899 143.421C40.039 145.39 38.9445 147.255 37.0494 148.508C36.848 148.642 36.7324 148.985 36.6977 149.248C36.6862 149.327 37.0642 149.519 37.2838 149.561C38.6572 149.834 39.8359 149.375 40.8528 148.484C43.0088 146.59 44.1991 144.093 45.1417 141.458C45.4273 140.659 45.5841 139.812 45.8895 139.022C46.1652 138.308 45.8548 138.097 45.2407 137.96C42.3204 137.305 39.3968 136.661 36.4864 135.961C27.7618 133.863 19.0422 131.743 10.3242 129.616C9.83889 129.497 9.54834 129.566 9.33043 130.023C8.56775 131.633 7.70107 133.199 7.03744 134.847C6.01063 137.397 4.48363 139.579 2.51585 141.463C2.08994 141.869 1.55012 142.196 1.007 142.424C0.737917 142.536 0.340069 142.339 0 142.283C0.145272 141.928 0.2014 141.476 0.457277 141.242C0.936015 140.801 1.56333 140.53 2.06848 140.113C3.67638 138.784 4.68668 137.034 5.52695 135.157C6.31108 133.409 7.19427 131.704 7.97511 129.954C8.15835 129.545 8.2508 128.995 8.14019 128.574C7.68952 126.859 8.08572 125.329 9.167 124.026C10.1674 122.821 11.6053 122.696 13.0365 123.034C18.2168 124.257 23.3872 125.513 28.5542 126.791C29.1716 126.943 29.5414 126.821 29.9987 126.378C31.2814 125.135 32.6384 123.97 33.9722 122.78C34.1125 122.654 34.3007 122.479 34.4559 122.489C35.4183 122.552 35.9268 121.846 36.526 121.309C45.2572 113.496 53.9785 105.67 62.7246 97.8735C63.3981 97.2726 63.5004 96.8203 63.0745 95.9933C61.98 93.8622 61.9866 91.5412 62.2277 89.2203C62.3036 88.4857 62.4654 87.7561 62.6387 87.0364C62.9359 85.8033 62.855 84.6048 62.5562 83.375C61.9289 80.79 61.3923 78.1834 60.7947 75.5918C60.524 74.4165 60.9285 73.5019 61.8892 72.8879C62.7031 72.3679 62.855 71.6993 62.85 70.803C62.7939 60.5238 65.6184 51.0816 71.223 42.4746C72.6427 40.294 74.4388 38.4303 76.4346 36.7664C76.9365 36.3487 77.0537 35.9443 76.5073 35.5795C72.4892 32.9036 71.6027 28.7669 71.2692 24.3825C71.0975 22.1342 71.0034 19.8809 70.8747 17.6293C70.8747 17.6013 70.8681 17.5748 70.8697 17.5468C70.9572 15.6798 70.8912 13.8244 70.594 11.9689C70.5098 11.4374 70.6633 10.8019 70.8895 10.2951C73.4995 4.50593 77.9633 1.04597 84.2413 0.164479C91.6717 -0.88044 99.1813 3.10115 101.956 10.7457C102.803 13.0782 103.322 15.4272 102.985 18.0453C103.376 17.9496 103.634 17.9033 103.878 17.8241C106.448 16.9921 108.83 17.3966 110.78 19.2421C112.804 21.1586 113.23 23.5819 112.366 26.2214C112.221 26.6638 112.049 27.1013 111.841 27.5173C111.559 28.0802 111.673 28.3855 112.315 28.4994C117.834 29.4899 122.945 31.588 127.836 34.2589C129.063 34.9291 130.241 35.6967 131.379 36.5072C131.965 36.9248 132.308 36.9166 132.851 36.4296C137.64 32.1311 142.458 27.8623 147.276 23.5967C147.664 23.2534 148.11 22.9662 148.561 22.7087C149.837 21.9807 150.916 22.1705 151.877 23.2583C152.64 24.12 152.689 25.302 151.8 26.3403C150.946 27.3373 149.954 28.2238 148.972 29.102C144.645 32.968 140.308 36.8225 135.953 40.6572C135.45 41.0996 135.745 41.4363 135.935 41.8028C137.101 44.0544 137.436 46.372 136.556 48.8036C135.895 50.6293 135.03 52.3593 133.72 53.7904C132.462 55.1655 131.088 56.4415 129.703 57.6911C128.792 58.5132 128.759 58.4918 129.697 59.2197C131.351 60.5057 132.675 62.0722 133.52 64.0019C134.132 65.3985 133.888 66.1628 132.629 67.0277C132.244 67.2919 131.833 67.5147 131.433 67.759C130.983 68.0347 130.867 68.3648 131.156 68.8601C133.556 72.9803 134.605 77.4819 134.992 82.1964C135.362 86.6749 134.865 91.0856 134.19 95.4931C134.111 96.0081 134.058 96.5281 133.967 97.0415C133.754 98.235 134.085 99.2205 134.895 100.143C138.524 104.275 142.109 108.446 145.72 112.596C146.832 113.874 146.845 113.963 145.729 115.168C144.036 116.996 144.052 116.982 145.677 118.881C147.152 120.607 148.889 122.007 150.717 123.351C151.93 124.242 152.929 125.471 153.881 126.661C154.733 127.727 155.357 128.973 156.143 130.098C157.353 131.831 157.397 133.591 156.265 135.33C155.595 136.362 154.783 137.305 154.013 138.27C152.714 139.903 151.387 141.512 150.094 143.15C149.048 144.476 148.036 145.831 146.987 147.199C148.79 147.199 150.646 147.178 152.503 147.204C154.868 147.239 157.232 147.297 159.596 147.386C160.166 147.407 161.014 147.336 161.041 148.124C161.067 148.916 160.197 148.799 159.685 148.834C154.858 149.167 150.031 149.528 145.198 149.735C140.831 149.921 136.457 149.961 132.084 149.979C130.974 149.984 129.844 149.741 128.757 149.472C127.49 149.157 126.605 147.98 126.54 146.689C126.387 143.63 127.631 139.778 131.458 138.206C132.896 137.617 133.807 136.625 134.43 135.294C135.336 133.358 136.221 131.41 137.053 129.441C137.163 129.178 137.003 128.683 136.802 128.432C136.287 127.792 135.658 127.243 135.113 126.626C134.699 126.156 134.332 126.162 133.834 126.509C133 127.088 132.151 127.655 131.262 128.141C129.606 129.048 129.284 128.987 127.958 127.666C125.164 124.878 122.76 121.771 120.516 118.533C117.279 113.861 114.616 108.879 112.517 103.598C112.31 103.082 112.064 102.961 111.505 102.923C108.906 102.748 106.313 102.481 103.719 102.24C103.396 102.21 103.074 102.149 102.643 102.086C101.986 104.235 101.288 106.335 100.707 108.466C98.9336 114.974 97.7583 121.59 97.1425 128.307C97.1144 128.607 97.0401 128.904 97.017 129.205C96.956 130.022 96.4904 130.372 95.7096 130.367C94.7472 130.362 93.7831 130.36 92.8223 130.332C92.3287 130.319 92.0761 130.462 92.0233 131.014C91.9044 132.272 91.5776 133.526 91.5957 134.777C91.6205 136.327 91.987 137.869 92.0629 139.421C92.1306 140.781 91.9969 142.151 91.9606 143.516C91.9408 144.271 91.8203 145.047 91.9556 145.775C92.3584 147.945 91.6733 149.099 89.4761 149.344C87.8187 149.528 86.1315 149.451 84.4576 149.504C81.851 149.585 79.2394 149.593 76.641 149.783C71.8734 150.131 67.1372 150.114 62.4522 149.028C59.7547 148.403 58.8484 147.122 59.5385 144.434C60.2879 141.509 61.706 138.987 64.8871 138.072C65.8826 137.787 66.9424 137.731 67.9692 137.554C70.7987 137.067 73.237 135.722 75.5613 134.116C76.1903 133.681 76.9134 133.384 77.5423 132.952C77.856 132.735 78.1911 132.392 78.2852 132.045C78.5906 130.91 78.787 129.744 79.033 128.59C79.1568 128.014 78.9092 127.719 78.3644 127.574C76.9051 127.184 75.4524 126.776 73.9964 126.375C73.2981 126.184 73.0042 125.802 73.2106 125.035C75.3814 116.953 77.5753 108.879 80.3322 100.972C80.4857 100.531 80.6459 100.094 80.8175 99.6596C81.0123 99.166 80.943 98.7748 80.6624 98.2812C80.4544 97.9148 80.5369 97.2924 80.6706 96.8352C81.6463 93.4974 82.6665 90.1728 83.6735 86.8432C83.5926 86.7838 83.5133 86.7227 83.4324 86.6633C82.2158 87.8469 80.9777 89.009 79.8039 90.2355C79.619 90.4286 79.662 90.9156 79.7131 91.2491C80.1126 93.8473 77.9946 96.2112 75.4045 95.9883C74.7277 95.9306 74.315 96.0379 73.965 96.7147C73.3558 97.8916 72.334 98.4678 70.9572 98.2267C70.5115 98.1492 70.0823 98.0815 69.9122 98.6774C69.871 98.8194 69.7174 98.9399 69.5936 99.0472C65.5953 102.527 61.564 105.97 57.6004 109.488C50.8552 115.479 44.1512 121.515 37.429 127.534C37.3267 127.626 37.2045 127.701 37.1236 127.81C36.9701 128.013 36.8413 128.232 36.7027 128.445C36.9387 128.599 37.155 128.827 37.4125 128.894C38.5532 129.193 39.7039 129.454 40.8545 129.711C43.5602 130.316 46.2692 130.902 48.9716 131.517C49.4767 131.633 49.9769 131.809 50.4458 132.031C51.7433 132.641 52.4003 133.723 52.2617 135.134C52.1824 135.946 51.9563 136.745 51.7763 137.547C51.735 137.729 51.6608 137.98 51.5254 138.051C50.3929 138.635 50.7049 139.695 50.591 140.644C50.3104 142.998 49.2522 145.034 47.8787 146.925C47.7236 147.14 47.5684 147.354 47.3769 147.619C48.648 147.704 49.8399 147.78 51.0318 147.866C51.2497 147.881 51.494 147.879 51.674 147.978C51.8919 148.099 52.2154 148.328 52.2055 148.495C52.1923 148.738 51.9711 149.104 51.7565 149.179C51.0879 149.408 50.388 149.624 49.6897 149.667C47.1392 149.822 44.5837 149.88 42.0332 150.034C41.3712 150.073 40.6746 150.232 40.077 150.514C38.2957 151.354 36.6482 151.11 35.2665 149.743C35.0931 149.571 34.7399 149.52 34.4691 149.515C33.4588 149.495 32.4403 149.59 31.4399 149.494C30.9628 149.449 30.3932 149.183 30.0845 148.829C29.6124 148.285 29.132 148.304 28.5443 148.421C27.5753 148.614 26.4808 148.994 25.7016 148.226C24.7573 147.297 23.818 147.485 22.7252 147.696C20.3893 148.145 18.1326 147.988 16.0905 146.554C15.8627 146.394 15.4253 146.485 15.0951 146.529C13.9065 146.692 12.7262 146.94 11.5326 147.052C10.7155 147.13 10.0139 146.721 9.56155 146.045C9.18681 145.486 8.71963 145.347 8.09562 145.367C7.50793 145.387 6.72379 145.496 6.60493 144.713C6.49267 143.977 7.29662 143.932 7.78362 143.667C8.59417 143.224 9.38161 142.741 10.1922 142.298C10.3853 142.193 10.7733 142.079 10.8211 142.146C10.978 142.366 11.1315 142.694 11.0787 142.934C10.9978 143.295 10.7452 143.619 10.557 143.954C10.1113 144.748 10.2615 145.375 11.143 145.512C12.0609 145.656 13.0894 145.684 13.961 145.412C17.4706 144.319 20.2308 142.178 22.2068 139.059C22.5452 138.526 22.8094 137.94 23.1891 137.44C23.3789 137.191 23.752 137.082 24.0409 136.909C24.0888 137.242 24.2819 137.645 24.1631 137.901C22.7037 141.006 20.6171 143.574 17.6225 145.336C17.4888 145.415 17.3683 145.514 17.2296 145.615L17.2313 145.611ZM81.8724 97.5764C84.1687 97.8108 86.3395 97.9263 88.474 98.2746C93.509 99.095 98.5325 99.993 103.549 100.922C108.682 101.872 113.804 102.012 118.942 100.99C119.604 100.858 119.998 100.563 120.191 99.8857C121.058 96.855 122.009 93.8457 122.844 90.8067C125.188 82.2756 126.494 73.6241 125.72 64.7464C125.685 64.3502 125.586 63.9607 125.51 63.5249C125.14 63.5843 124.87 63.6124 124.607 63.6751C123.329 63.9805 122.065 64.3684 120.771 64.583C119.843 64.7382 119.31 65.2086 118.914 66.0043C118.314 67.206 117.733 68.4276 117.018 69.56C115.706 71.6399 113.798 72.6287 111.302 72.4191C110.915 72.3877 110.473 72.462 110.128 72.632C109.182 73.0992 108.236 73.0992 107.239 72.8714C106.77 72.7641 106.272 72.7245 105.789 72.7377C104.53 72.7723 103.277 72.7492 102.331 71.7736C101.753 71.1794 101.327 71.2355 100.731 71.7522C95.8928 75.9483 91.0246 80.1115 86.191 84.316C85.7634 84.6874 85.387 85.2354 85.2219 85.7736C84.1357 89.3094 83.1089 92.8651 82.0755 96.4175C81.9715 96.7757 81.9418 97.1571 81.8691 97.578L81.8724 97.5764ZM88.3965 74.9117C88.4625 74.9447 88.5302 74.9794 88.5962 75.0124C88.8125 74.8572 89.0386 74.7169 89.2433 74.5469C93.0452 71.3791 96.8222 68.1816 100.664 65.0617C101.502 64.3816 101.928 63.7114 101.77 62.6335C101.489 60.7335 102.357 59.2891 103.691 58.0477C104.779 57.0358 106.082 56.4399 107.455 55.9084C108.64 55.4494 109.76 54.8057 110.872 54.1784C111.508 53.8202 111.467 53.3827 110.988 52.7835C109.996 51.5438 109.002 50.2777 108.216 48.9043C105.08 43.4089 103.959 37.3623 103.605 31.1357C103.472 28.7735 103.523 28.7702 101.194 28.7982C99.8168 28.8147 99.7657 28.8692 99.8185 30.2426C100.005 35.1519 100.872 39.9506 102.196 44.6718C102.513 45.8025 102.328 46.0996 101.223 46.5074C95.9044 48.4652 90.389 49.4936 84.7713 50.068C83.4572 50.2017 83.127 50.0136 82.9719 48.6897C82.5575 45.1472 82.1762 41.5997 81.8196 38.0523C81.7552 37.4168 81.5373 37.1114 80.8819 37.0717C80.3091 37.0371 79.7412 36.9116 79.1733 36.8142C78.3232 36.669 78.1218 36.7994 78.1762 37.6908C78.3116 39.9094 78.4569 42.1296 78.6731 44.3433C79.0115 47.7933 79.7098 51.174 80.7367 54.4904C82.3165 59.5895 85.3342 63.7642 89.0931 67.4404C90.0555 68.3813 90.2999 69.2216 89.7699 70.4926C89.1773 71.9106 88.8422 73.4359 88.3965 74.915V74.9117ZM125.345 59.299C125.588 59.2197 125.758 59.2016 125.885 59.1174C129.18 56.9516 132.142 54.4392 134.169 50.9891C135.569 48.6071 136.308 46.1046 135.258 43.3644C134.291 40.842 132.562 38.914 130.42 37.3408C127.085 34.8911 123.293 33.3394 119.462 31.8917C115.049 30.2261 110.527 29.0029 105.776 28.8362C104.626 28.7949 104.541 28.8725 104.612 30.0445C104.832 33.6976 105.349 37.3062 106.346 40.8354C107.5 44.921 109.126 48.759 112.006 51.9746C112.492 52.5177 112.824 52.5342 113.238 51.9746C113.5 51.6214 113.753 51.2582 114.044 50.9297C114.874 49.9888 115.722 49.1255 117.169 49.2377C117.502 49.2641 117.873 48.8069 118.389 48.4668C117.847 48.1647 117.55 47.9798 117.238 47.828C115.609 47.0356 113.973 46.2565 112.345 45.4592C111.931 45.2561 111.633 44.8748 111.947 44.4786C112.101 44.2838 112.675 44.2195 112.938 44.3466C114.763 45.238 116.583 46.1459 118.346 47.1545C119.055 47.5606 119.516 47.5094 120.086 46.9811C120.911 46.2152 121.778 45.4889 122.672 44.8055C122.859 44.6635 123.244 44.7807 123.536 44.7791C123.503 45.0531 123.495 45.3354 123.425 45.5995C123.395 45.7117 123.242 45.7959 123.14 45.8867C121.814 47.0439 120.493 48.206 119.159 49.3533C118.522 49.9013 118.519 50.0532 119.184 50.6062C119.65 50.9924 120.119 51.3771 120.551 51.798C122.71 53.9011 124.31 56.3706 125.35 59.3006L125.345 59.299ZM77.1956 8.79951C76.1771 10.6219 74.5989 11.8732 72.8903 13.0072C72.5717 13.2185 72.362 13.7072 72.2597 14.1099C72.1177 14.6613 72.05 15.2556 72.0814 15.8251C72.2795 19.498 72.2878 23.2006 72.783 26.8355C73.6117 32.9251 77.2699 36.0763 83.5282 36.0532C87.1831 36.04 89.8591 34.003 92.0068 31.1803C92.3221 30.7659 92.5499 29.8019 93.301 30.3862C93.9828 30.9178 93.2235 31.4691 92.9065 31.9148C91.3646 34.0773 89.4447 35.7974 86.8975 36.7449C89.0568 39.3002 92.3716 39.6403 95.046 37.6181C97.2927 35.9195 98.3443 33.5623 98.6497 30.8369C98.7108 30.2922 98.6893 29.612 98.4136 29.1829C97.7484 28.1495 96.918 27.2218 96.1289 26.2709C96.0067 26.124 95.7591 26.063 95.5577 26.0035C95.1087 25.8698 94.6399 25.6882 94.8198 25.127C95.0328 24.4634 95.5346 24.8084 95.9093 24.9751C97.0633 25.4901 98.0455 25.231 98.9221 24.3808C100.941 22.4264 100.708 19.5046 98.4021 17.8324C97.0517 16.8535 95.3761 16.9921 94.5012 18.4035C93.6329 19.805 92.4855 19.7769 91.297 19.2916C90.5161 18.973 89.7188 18.4332 89.2054 17.7746C88.1967 16.4804 86.9635 15.6253 85.4365 15.1103C84.7102 14.8643 83.9954 14.5738 83.2954 14.2602C80.7499 13.1178 78.3496 11.8088 77.4334 8.88699C77.4284 8.87214 77.3871 8.86884 77.1973 8.79785L77.1956 8.79951ZM75.2956 71.4303C75.3814 71.2173 75.4507 71.0704 75.5003 70.9152C76.8803 66.6398 78.2142 62.3479 79.6653 58.0956C80.0218 57.049 80.0301 56.1675 79.7082 55.1209C78.13 49.9772 77.3195 44.6998 77.1659 39.3217C77.1544 38.9338 77.0471 38.5475 76.9794 38.1266C70.698 40.8585 62.5331 61.9633 64.0634 71.1001C65.9321 70.7601 67.7876 70.2797 69.6696 70.1196C71.6093 69.9529 73.4499 70.6264 75.2956 71.4303ZM63.2115 91.2127C63.2561 92.9658 63.5368 94.6232 64.5487 96.089C65.3048 97.1835 66.287 97.9808 67.573 98.3902C68.2086 98.5932 68.6411 98.3473 68.9729 97.8372C69.3014 97.3304 68.8953 97.0432 68.6295 96.6982C68.0451 95.9388 67.431 95.1927 66.9374 94.3772C66.6651 93.9282 66.5611 93.3538 66.4851 92.8206C66.4587 92.6439 66.7162 92.3435 66.916 92.2494C67.0233 92.1982 67.3254 92.4277 67.4591 92.5944C67.6077 92.781 67.6622 93.0418 67.7645 93.2663C68.3753 94.6149 69.1859 95.8183 70.4289 96.6602C71.2197 97.195 71.8734 97.0844 72.509 96.4572C73.1528 95.82 72.925 95.2125 72.4693 94.6248C71.6192 93.5287 71.19 92.2626 70.982 90.9189C70.9044 90.4138 70.6138 89.6462 71.3649 89.5323C72.1194 89.4184 71.9378 90.2504 72.0401 90.706C72.3422 92.0431 72.7797 93.3042 73.8313 94.2468C74.5741 94.9137 75.6158 94.7123 75.9361 93.7582C76.1441 93.1408 76.2118 92.3914 76.0698 91.7608C75.8073 90.5904 75.3203 89.4729 74.9753 88.319C74.7293 87.4969 75.0182 86.8185 75.6769 86.2704C76.1919 85.8429 77.0454 85.4087 77.0784 84.93C77.1164 84.4018 76.4082 83.8059 75.9905 83.2661C75.1453 82.1683 74.7194 80.9848 75.005 79.575C75.3484 77.8814 75.6125 76.1712 75.9608 74.4775C76.0978 73.809 75.9163 73.3666 75.3451 73.0232C71.9675 70.9961 66.4703 70.6561 62.9804 73.4887C62.1154 74.1903 61.8067 74.9298 62.0758 75.988C62.5826 77.9804 63.0333 79.9877 63.5483 81.9785C64.07 83.9957 64.3737 85.9815 63.6969 88.0532C63.37 89.0536 63.3634 90.1579 63.2132 91.2144L63.2115 91.2127ZM111.935 71.1843C112.203 71.2322 112.284 71.2652 112.361 71.2586C112.497 71.247 112.632 71.2223 112.763 71.1843C114.316 70.7238 115.477 69.7548 116.266 68.3632C116.779 67.4569 117.259 66.5243 117.667 65.5668C118.23 64.2479 119.194 63.5579 120.594 63.3416C121.593 63.1865 122.575 62.919 123.566 62.7061C124.416 62.5245 124.777 62.0243 124.602 61.1594C124.548 60.8919 124.525 60.6146 124.449 60.3538C123.27 56.3326 120.701 53.3266 117.457 50.8191C116.862 50.3586 116.262 50.4279 115.744 50.9264C115.09 51.5537 114.425 52.181 113.857 52.8825C112.097 55.0549 109.974 56.6594 107.255 57.4501C106.527 57.6614 105.826 58.0263 105.175 58.4241C104.017 59.1322 103.105 60.0946 102.848 61.4779C102.772 61.8807 103.01 62.3429 103.104 62.7771C103.44 62.6566 103.807 62.5872 104.109 62.4057C104.896 61.9352 105.327 62.0722 105.537 62.9653C105.624 63.335 105.626 63.7279 105.644 64.1125C105.743 66.2321 105.043 68.038 103.569 69.5715C102.767 70.4052 102.94 71.0374 104.066 71.3461C104.546 71.4781 105.106 71.4534 105.605 71.3609C106.712 71.1562 107.539 70.496 108.177 69.5748C108.399 69.2529 108.634 68.7577 109.136 69.1176C109.684 69.5088 109.238 69.9017 109 70.2384C108.659 70.7221 108.272 71.1728 107.769 71.8083C108.312 71.7439 108.69 71.7588 109.028 71.6498C110.342 71.2289 111.27 70.3276 112.044 69.2117C112.251 68.9162 112.842 68.525 112.992 68.6158C113.591 68.9789 113.205 69.4659 112.928 69.8703C112.639 70.2913 112.314 70.6891 111.935 71.1876V71.1843ZM148.678 123.618C148.587 123.939 148.561 124.099 148.5 124.242C147.828 125.824 147.243 127.453 146.446 128.968C145.764 130.264 144.536 130.576 143.108 130.256C142.017 130.012 140.906 129.771 139.795 129.723C138.215 129.655 137.962 129.982 137.406 131.433C136.789 133.041 136.064 134.609 135.352 136.181C134.677 137.671 133.573 138.701 132.026 139.315C130.44 139.946 129.261 141.07 128.498 142.622C127.527 144.596 127.767 145.005 129.976 145.23C133.472 145.585 136.95 145.322 140.432 145.027C142.72 144.832 144.45 143.784 145.736 141.856C147.461 139.274 149.323 136.786 151.06 134.211C151.932 132.917 152.689 131.54 153.419 130.159C153.614 129.791 153.67 129.208 153.525 128.823C152.64 126.484 150.961 124.853 148.679 123.62L148.678 123.618ZM90.7918 137.793C90.0885 138.092 89.5405 138.313 89.0023 138.558C86.947 139.494 83.7246 139.507 82.0837 136.628C81.9484 136.39 81.7734 136.172 81.5967 135.963C79.9013 133.96 78.2868 133.719 76.1606 135.184C73.1082 137.283 69.8792 138.871 66.0889 139.127C63.8108 139.281 62.3795 140.745 61.3511 142.66C61.0473 143.226 61.1827 143.617 61.8562 143.726C63.9131 144.058 65.9602 144.528 68.0319 144.687C75.3203 145.248 82.5955 144.712 89.8673 144.23C90.3923 144.195 90.701 143.952 90.734 143.431C90.8166 142.115 90.8974 140.799 90.9371 139.482C90.9519 138.977 90.8545 138.469 90.7918 137.793ZM80.9661 58.5594C80.7977 58.7608 80.6822 58.85 80.6326 58.9672C78.9307 63.1072 77.4961 67.3331 76.6707 71.7439C76.6228 71.9998 76.712 72.3695 76.8803 72.561C77.4003 73.147 77.4185 73.771 77.2485 74.4825C76.9431 75.7618 76.6476 77.0461 76.4115 78.3403C76.1177 79.9514 75.9295 81.5361 77.1428 82.9524C78.0805 84.0469 78.2885 84.1426 79.3731 83.21C81.7486 81.1696 84.1159 79.1194 86.4683 77.051C86.739 76.8117 86.9784 76.4535 87.0708 76.1085C87.5595 74.2844 87.8996 72.4141 88.4856 70.6231C88.8669 69.4543 88.5434 68.7313 87.7279 67.9456C85.1592 65.4661 83.0528 62.6335 81.4944 59.4079C81.3607 59.1306 81.1692 58.8813 80.9661 58.5594ZM51.1011 135.226C51.1226 134.063 50.8618 133.577 49.7689 133.249C48.3013 132.808 46.804 132.46 45.3134 132.103C34.479 129.515 23.6463 126.92 12.8005 124.384C12.084 124.218 11.214 124.388 10.4959 124.635C9.6639 124.923 9.04814 126.416 9.22478 127.389C9.38491 128.264 10.1971 128.27 10.8327 128.425C16.1054 129.721 21.3814 131.009 26.664 132.267C32.881 133.749 39.1063 135.19 45.3216 136.681C45.8829 136.816 46.0612 136.628 46.2164 136.176C46.464 135.449 46.7 134.713 47.0319 134.025C47.1359 133.808 47.5354 133.733 47.7978 133.592C47.8754 133.876 48.0702 134.19 48.0058 134.437C47.8243 135.152 47.5106 135.832 47.3125 136.544C47.2564 136.747 47.3422 137.131 47.4924 137.225C49.0525 138.201 51.0648 137.072 51.0995 135.225L51.1011 135.226ZM101.481 18.2236C103.257 13.0832 98.4466 4.94172 92.2891 2.41279C85.8542 -0.231699 76.6261 2.45736 74.0921 7.72983C74.1779 7.73478 74.2605 7.75789 74.3315 7.73973C74.7293 7.63738 75.1272 7.53504 75.5184 7.41288C77.8444 6.68986 80.2034 6.51983 82.6004 6.98534C87.1881 7.87674 90.9123 10.3512 94.2519 13.4628C94.8528 14.0224 95.1252 14.9337 95.5594 15.6748C95.6469 15.8234 95.7707 16.0479 95.8945 16.0611C96.7414 16.142 97.5932 16.1734 98.6563 16.2344C97.9464 15.0641 97.329 14.0076 96.6671 12.9792C96.4607 12.6589 96.0315 12.3536 96.4937 12.0416C96.7001 11.9012 97.3026 12.0036 97.4644 12.205C97.9745 12.8389 98.3757 13.5635 98.7917 14.2684C99.4735 15.4223 100.121 16.5976 100.816 17.7432C100.939 17.9463 101.228 18.0486 101.481 18.2252V18.2236ZM98.9452 34.6584C98.4879 35.3748 98.1231 35.979 97.7269 36.5617C96.6935 38.0837 95.3315 39.2507 93.5916 39.8219C91.1616 40.6192 88.8735 40.2263 86.8562 38.5871C85.8889 37.7997 84.9594 37.009 83.5381 37.3788C83.0627 37.5026 82.8563 37.6446 82.9124 38.1101C83.3119 41.4297 83.718 44.7493 84.1175 48.0706C84.1885 48.6616 84.5451 48.858 85.0849 48.7953C85.9021 48.7012 86.7192 48.6055 87.5331 48.4833C91.7113 47.8544 95.8615 47.095 99.8614 45.6754C100.898 45.3073 100.963 45.1703 100.717 44.0412C100.337 42.2996 99.9572 40.5598 99.622 38.81C99.3678 37.4778 99.1829 36.1308 98.9468 34.6584H98.9452ZM38.1092 125.31C38.3551 125.129 38.5384 125.018 38.6952 124.876C40.5722 123.181 42.4393 121.474 44.3212 119.785C51.2778 113.542 58.2294 107.293 65.2057 101.071C66.8813 99.5771 66.8202 99.9221 65.0885 98.5008C64.5702 98.0749 64.1509 98.0996 63.6474 98.5536C58.6239 103.082 53.5856 107.593 48.5523 112.113C44.7884 115.493 41.0212 118.871 37.2821 122.276C37.013 122.521 36.7307 123.094 36.8413 123.344C37.1418 124.029 37.6486 124.625 38.1092 125.307V125.31ZM104.419 63.4886C102.95 64.6721 101.601 65.6989 100.317 66.8016C92.6374 73.3897 84.9743 79.996 77.3046 86.5956C76.1441 87.5943 76.0318 88.1671 76.7252 89.5306C77.2155 90.493 77.3409 90.5211 78.1416 89.8261C86.1183 82.9095 94.0703 75.9615 102.092 69.0961C103.809 67.627 104.376 65.8392 104.418 63.4886H104.419ZM127.838 145.93C127.579 146.856 127.924 147.683 128.777 148.033C129.33 148.259 129.921 148.426 130.511 148.522C133.569 149.017 136.647 148.997 139.712 148.649C143.56 148.213 146.59 146.478 148.595 143.018C149.426 141.585 150.596 140.344 151.641 139.04C152.892 137.48 154.256 136.004 155.415 134.381C156.184 133.305 155.903 132.064 155.256 130.956C154.926 130.39 154.598 130.393 154.3 130.956C151.986 135.352 148.815 139.168 145.997 143.221C145.015 144.634 143.679 145.585 141.971 145.857C137.289 146.605 132.596 146.935 127.836 145.93H127.838ZM135.565 125.329C136.498 126.288 137.34 127.191 138.231 128.041C138.444 128.244 138.816 128.325 139.128 128.371C140.452 128.567 141.787 128.686 143.105 128.914C144.377 129.135 144.982 129.018 145.604 127.907C146.309 126.646 146.897 125.312 147.425 123.967C147.565 123.612 147.436 122.993 147.195 122.673C146.177 121.312 145.076 120.015 143.991 118.704C143.549 118.169 143.143 118.191 142.631 118.712C141.269 120.106 139.869 121.463 138.451 122.798C137.555 123.643 136.599 124.426 135.564 125.329H135.565ZM86.815 137.798C87.4109 137.602 88.3486 137.371 89.207 136.971C89.5817 136.796 89.9631 136.309 90.0489 135.903C90.3675 134.373 90.5607 132.818 90.81 131.275C90.98 130.215 90.8199 130.013 89.7765 129.886C88.6887 129.754 87.5942 129.635 86.5211 129.419C84.8026 129.076 83.1006 128.647 81.3854 128.277C80.9975 128.193 80.5006 127.914 80.3405 128.623C80.0945 129.72 79.8072 130.807 79.5827 131.908C79.4391 132.617 79.7346 133.208 80.4114 133.429C81.6496 133.835 82.4337 134.649 83.0016 135.791C83.7015 137.194 84.9859 137.686 86.815 137.798ZM86.4733 148.137C86.4799 148.236 86.4865 148.333 86.4931 148.432C87.6354 148.292 88.7877 148.203 89.9169 147.992C90.7043 147.843 90.9684 147.153 90.8232 146.232C90.6911 145.385 90.1909 145.402 89.5058 145.458C87.6982 145.61 85.8856 145.714 84.073 145.776C76.4973 146.044 68.9069 146.633 61.4072 144.896C60.7551 144.745 60.3952 145.063 60.5389 145.684C60.6544 146.181 60.8954 146.73 61.257 147.066C61.6136 147.396 62.1781 147.592 62.6767 147.661C65.3626 148.038 68.0567 148.627 70.7508 148.634C75.9905 148.647 81.2319 148.322 86.4733 148.135V148.137ZM149.515 23.7602C149.107 24.0226 148.409 24.3577 147.847 24.8497C143.116 28.9963 138.408 33.171 133.7 37.3458C133.53 37.4976 133.282 37.8492 133.332 37.9169C133.744 38.4848 134.177 39.0559 134.709 39.5033C134.826 39.6007 135.413 39.2689 135.691 39.0262C140.209 35.0545 144.719 31.073 149.211 27.0716C149.799 26.5483 150.38 25.9689 150.789 25.3069C151.293 24.4931 150.789 23.7651 149.513 23.7585L149.515 23.7602ZM132.599 65.0799C132.409 64.6589 132.33 64.2793 132.109 64.025C130.996 62.749 129.906 61.44 128.688 60.268C127.678 59.2957 127.45 59.37 126.275 60.197C125.652 60.6344 125.49 61.2188 125.943 61.823C127.143 63.4291 128.394 64.999 129.614 66.5919C129.905 66.97 130.208 67.031 130.6 66.762C131.098 66.4203 131.622 66.1132 132.099 65.7451C132.312 65.5817 132.435 65.3044 132.599 65.0799ZM42.5218 148.574C42.5532 148.635 42.5862 148.696 42.6176 148.758C43.0055 148.63 43.4182 148.551 43.7781 148.366C47.2118 146.603 48.927 143.662 49.523 139.953C49.6203 139.343 49.7161 138.789 48.8874 138.632C47.5321 138.376 47.2366 138.493 46.9691 139.414C46.2708 141.815 45.4735 144.178 44.1347 146.311C43.6427 147.094 43.0633 147.82 42.5235 148.573L42.5218 148.574ZM77.1527 94.2584C78.272 93.3967 78.6186 92.3617 78.0986 91.4059C77.0586 92.1619 77.7932 93.4396 77.1527 94.2584Z" fill="#00331D"/>
<path d="M11.6824 133.26C11.656 133.473 11.6577 133.529 11.6412 133.58C10.4394 137.37 8.84964 140.922 5.47371 143.327C4.99662 143.667 4.40068 143.867 3.8328 144.044C3.62974 144.108 3.21539 143.986 3.13285 143.826C3.03875 143.646 3.13615 143.275 3.27977 143.083C3.44815 142.857 3.7321 142.67 4.00283 142.576C5.61898 142.023 6.82243 140.927 7.63298 139.501C8.63008 137.748 9.43073 135.883 10.3106 134.062C10.4526 133.766 10.5137 133.423 10.6969 133.161C10.829 132.971 11.1261 132.746 11.3044 132.779C11.481 132.812 11.6032 133.147 11.6808 133.256L11.6824 133.26Z" fill="#00331D"/>
<path d="M17.5881 133.807C18.2847 134.062 18.3392 134.435 18.0751 134.9C17.3174 136.237 16.5662 137.578 15.7871 138.903C15.3975 139.565 14.9996 140.235 14.5044 140.815C14.3013 141.052 13.8292 141.061 13.4792 141.175C13.499 140.833 13.4033 140.424 13.5568 140.159C14.6645 138.269 15.8168 136.406 16.9707 134.544C17.144 134.263 17.3983 134.032 17.5881 133.809V133.807Z" fill="#00331D"/>
<path d="M96.9261 19.8235C97.0301 19.8449 97.281 19.8367 97.4461 19.9506C97.6211 20.0727 97.8176 20.3171 97.8076 20.4986C97.7994 20.6423 97.4808 20.9047 97.3289 20.8866C96.3979 20.771 95.9736 21.2118 95.7623 22.0619C95.7144 22.2567 95.3413 22.3689 95.1168 22.5191C94.9765 22.2831 94.7173 22.0454 94.7173 21.8093C94.7173 20.7132 95.6863 19.8251 96.9261 19.8235Z" fill="#00331D"/>
<path d="M132.679 142.607C132.111 142.614 131.558 142.48 131.535 141.822C131.51 141.115 132.078 140.952 132.676 140.935C133.432 140.914 133.968 141.288 133.939 141.807C133.911 142.295 133.425 142.602 132.679 142.607Z" fill="#00331D"/>
<path d="M142.225 140.778C141.631 140.813 141.114 140.639 141.126 139.977C141.136 139.411 141.535 138.977 142.138 138.998C142.726 139.02 143.178 139.329 143.216 140.01C143.257 140.753 142.716 140.733 142.225 140.78V140.778Z" fill="#00331D"/>
<path d="M136.667 140.099C136.395 139.827 135.979 139.597 135.885 139.274C135.736 138.759 136.37 138.234 136.999 138.23C137.592 138.227 138.008 138.572 138.009 139.1C138.011 139.799 137.412 139.927 136.667 140.099Z" fill="#00331D"/>
<path d="M137.988 143.148C137.551 142.702 137.041 142.423 137.022 142.113C136.983 141.451 137.546 141.23 138.153 141.236C138.715 141.241 139.332 141.416 139.2 142.052C139.121 142.431 138.51 142.7 137.988 143.146V143.148Z" fill="#00331D"/>
<path d="M139.22 136.147C139.433 135.437 139.332 134.786 140.161 134.788C140.882 134.788 141.072 135.293 141.078 135.897C141.085 136.503 140.6 137.008 140.032 136.87C139.722 136.794 139.487 136.399 139.22 136.148V136.147Z" fill="#00331D"/>
<path d="M68.6247 141.595C67.9892 141.595 67.446 141.517 67.4543 140.809C67.4609 140.198 67.933 139.967 68.4679 139.992C69.0275 140.018 69.6482 140.19 69.668 140.853C69.6878 141.53 69.1018 141.614 68.6264 141.593L68.6247 141.595Z" fill="#00331D"/>
<path d="M73.3994 141.403C72.9537 140.985 72.465 140.744 72.4304 140.45C72.3594 139.844 72.9009 139.635 73.4308 139.633C73.9277 139.633 74.4576 139.829 74.3569 140.407C74.3007 140.729 73.8286 140.978 73.3994 141.401V141.403Z" fill="#00331D"/>
<path d="M77.4699 139.434C77.0093 138.979 76.5306 138.726 76.4678 138.394C76.3688 137.876 76.8112 137.577 77.3494 137.575C77.8941 137.575 78.3976 137.782 78.325 138.391C78.287 138.704 77.8677 138.972 77.4699 139.434Z" fill="#00331D"/>
<path d="M76.7478 26.5552C77.1868 26.5991 77.6656 26.5323 78.1109 26.2711C78.4806 26.0535 78.8526 25.9939 79.09 26.4511C79.2959 26.8483 79.2742 27.2488 78.9173 27.5601C77.838 28.5016 75.5234 28.3018 74.6181 27.1997C74.1157 26.5892 74.1249 25.5222 74.657 24.6549C75.145 23.8599 75.7296 23.1451 76.4193 22.508C77.0441 21.9301 77.6206 21.2995 78.2093 20.6847C78.4446 20.4377 78.7047 20.3051 79.0082 20.5105C79.2909 20.7013 79.3489 20.9886 79.2285 21.3153C78.8576 22.3231 78.122 23.0639 77.3608 23.76C76.8469 24.2298 76.4159 24.7592 76.0281 25.3144C75.3777 26.2461 75.5359 26.4944 76.7459 26.5584L76.7478 26.5552Z" fill="#00331D"/>
<path d="M82.8959 28.9655C82.8605 28.291 83.0378 27.8148 83.7116 27.6765C83.8141 27.6559 83.927 27.6276 84.0255 27.6466C84.4358 27.7287 85.3719 29.3573 85.2459 29.7534C85.146 30.0697 84.9228 30.3954 84.6142 30.2496C84.081 29.9976 83.9856 30.3225 83.7097 30.6418C81.8825 32.7601 78.0343 33.6048 75.9101 31.8787C75.7627 31.7588 75.6279 31.6214 75.493 31.4874C75.1386 31.1297 75.2657 30.7718 75.5489 30.4712C75.8463 30.1548 76.1573 30.2028 76.4746 30.5136C77.6524 31.6698 79.4583 31.566 80.8145 30.8896C81.4284 30.5834 81.9977 30.2165 82.5156 29.7635C82.7833 29.5301 83.139 29.3532 82.8959 28.9655Z" fill="#00331D"/>
<path d="M84.0939 16.4742C84.9957 16.6115 85.8042 16.8977 86.3886 17.6109C86.6227 17.8952 86.6932 18.253 86.6339 18.6148C86.5486 19.1378 86.2997 19.3624 85.7922 19.0107C85.6789 18.9327 85.5427 18.8766 85.4573 18.7753C84.6051 17.7576 83.5695 17.835 82.4617 18.2386C82.1139 18.366 81.7068 18.7989 81.4058 18.2085C81.1153 17.6387 81.4475 17.3226 81.9299 17.0237C82.6138 16.6003 83.3513 16.5089 84.0954 16.4759L84.0939 16.4742Z" fill="#00331D"/>
<path d="M75.9041 15.4949C76.7656 15.3575 77.3658 15.9703 78.0177 16.3786C78.4214 16.6313 78.6077 17.137 78.273 17.6089C77.8821 18.1622 77.4213 17.8647 77.0732 17.5705C76.274 16.8962 75.39 16.8795 74.4646 17.146C74.061 17.2619 73.6441 17.3505 73.4871 16.9096C73.3402 16.4959 73.6039 16.1029 73.9883 15.8895C74.57 15.5665 75.1942 15.3688 75.9025 15.4948L75.9041 15.4949Z" fill="#00331D"/>
<path d="M81.9849 23.0242C82.0286 22.3327 82.0702 21.8187 82.3891 21.4472C82.6206 21.1784 82.6852 20.5263 83.2455 20.7699C83.788 21.0058 84.1839 21.4489 84.0982 22.1197C84.053 22.4674 83.981 22.8202 83.8606 23.1469C83.6614 23.6882 83.3325 24.1455 82.666 24.0153C82.0175 23.8895 81.9185 23.3939 81.985 23.0225L81.9849 23.0242Z" fill="#00331D"/>
<path d="M74.0333 21.2677C74.0647 20.5025 74.4852 20.0106 74.8258 19.4942C74.9971 19.2336 75.3024 19.2381 75.5702 19.3716C75.9638 19.5689 76.0896 19.9465 76.0601 20.3383C76.0315 20.7135 75.9217 21.0873 75.8125 21.4512C75.668 21.9359 75.4856 22.4716 74.8473 22.3712C74.2188 22.2715 73.9103 21.84 74.03 21.2675L74.0333 21.2677Z" fill="#00331D"/>
</svg>
