<svg width="123" height="151" viewBox="0 0 123 151" fill="none" xmlns="http://www.w3.org/2000/svg">
<path d="M120.44 124.307C119.763 123.933 119.129 123.478 118.478 123.057C117.202 122.233 115.965 121.338 114.642 120.6C113.372 119.891 112.014 119.346 110.672 118.718C110.797 118.386 110.905 118.12 111 117.848C111.422 116.629 111.33 116.343 110.247 115.597C109.251 114.912 108.242 114.243 107.247 113.554C106.986 113.373 106.758 113.142 106.321 112.766C106.872 112.731 107.148 112.685 107.421 112.701C110.577 112.871 113.731 113.043 116.886 113.233C117.509 113.272 117.976 113.1 118.119 112.448C118.224 111.967 118.248 111.466 118.3 110.973C118.628 107.842 118.955 104.71 119.278 101.577C119.458 99.8387 119.63 98.1001 119.796 96.3615C119.869 95.6011 119.649 95.0602 118.796 94.925C118.235 94.8354 117.697 94.5843 117.136 94.5105C116.493 94.4262 116.257 94.0592 116.05 93.4832C115.327 91.4689 114.878 89.228 113.681 87.5491C112.533 85.9369 111.824 84.2879 111.234 82.4685C110.985 81.6975 111.035 81.1514 111.396 80.4559C113.291 76.8084 115.21 73.1679 116.962 69.4483C118.739 65.6761 118.518 61.9021 116.492 58.2405C114.384 54.4349 111.826 50.9717 108.936 47.7474C104.239 42.5035 98.4303 39.3002 91.6141 37.9076C90.7245 37.7249 89.6294 37.667 89.0334 37.1085C87.9297 36.0724 86.7464 35.3313 85.3956 34.7114C85.019 34.5375 84.9517 33.5716 84.8601 32.9517C84.8428 32.8411 85.3835 32.5618 85.6962 32.4933C89.2286 31.7189 92.1444 26.7735 90.0215 23.0978C89.5292 22.2444 89.5758 21.6525 89.9144 20.8043C91.951 15.6956 91.7385 10.7608 88.6413 6.09642C88.4496 5.80665 88.2181 5.51689 88.13 5.19024C87.807 4.00132 87.0418 3.16011 86.1297 2.42428C85.406 1.84123 84.62 1.53215 83.6492 1.73938C83.2623 1.82191 82.7907 1.70601 82.4055 1.55498C80.1738 0.680408 77.8971 0.0639942 75.4891 0.00428464C72.5042 -0.0677181 69.8855 0.759435 67.8697 3.11796C67.3653 3.70804 66.8765 4.31216 66.3807 4.9075C65.9869 4.76876 65.6155 4.61246 65.232 4.50885C63.2214 3.96092 61.2349 3.23563 59.0912 3.71155C56.8353 4.21206 55.215 6.1772 55.4845 8.24245C55.7228 10.0689 56.7264 11.4141 58.326 12.2676C59.2311 12.7523 60.1691 13.1685 61.114 13.6269C61.0501 13.9289 61.0017 14.1818 60.9412 14.4329C59.7217 19.5082 58.7095 24.6134 58.9288 29.8784C59.0359 32.4916 59.7493 34.9274 61.3212 37.0365C61.9068 37.8215 62.6012 38.524 63.2766 39.2985C63.3371 39.2475 63.3008 39.2967 63.2542 39.3143C62.8517 39.4688 62.4509 39.6251 62.0433 39.7621C58.2431 41.0546 55.1183 43.3289 52.5117 46.4074C50.1434 49.2032 48.1604 52.266 46.3277 55.4341C45.2843 57.2394 44.3136 59.0904 43.3117 60.9221C43.0785 61.3489 42.8125 61.7335 42.2459 61.5912C39.0865 60.7992 35.9289 59.9966 32.7695 59.2099C32.063 59.0342 31.7262 58.6145 31.6364 57.8787C31.4049 55.9996 30.5723 54.4507 29.0522 53.3179C28.6204 52.9983 28.1678 52.7068 27.6963 52.3836C28.1264 52.0728 28.5271 51.7918 28.9192 51.4985C31.056 49.8987 31.8437 47.7825 31.3065 45.1342C30.8591 42.939 29.1956 41.1951 27.242 41.0933C23.0531 40.872 18.8608 40.7139 14.6684 40.5313C13.6665 40.4874 12.6526 40.3469 11.6611 40.4382C9.91988 40.5963 8.58117 41.592 7.3841 42.8336C7.12327 43.1041 6.68452 43.2428 6.30277 43.3341C5.77765 43.4571 5.23007 43.4711 4.69286 43.5414C4.53222 43.5607 4.34393 43.6854 4.22302 43.6327C3.01558 43.1076 2.13981 43.8891 1.19839 44.4001C0.54199 44.7566 0.536808 45.3572 0.998015 45.7699C1.81852 46.5093 2.67529 47.3206 3.96391 46.9079C4.16601 46.843 4.42339 46.8816 4.63586 46.9431C5.20071 47.1081 5.7431 47.3593 6.31486 47.4804C6.78125 47.5805 7.02481 47.7368 7.19409 48.2461C7.8004 50.0708 9.03029 51.344 10.8803 51.8234C11.8096 52.0623 12.8046 52.0342 13.7685 52.136C14.8809 52.2537 15.995 52.3819 17.1075 52.5066C17.1127 52.5944 17.1178 52.684 17.1247 52.7735C15.8309 53.1283 14.5492 53.483 14.0569 54.9635C13.5854 56.3807 13.955 57.5819 14.9275 58.6093C13.9067 60.2109 13.7132 62.0882 15.4077 63.4949C14.4404 65.0772 15.3404 66.2907 16.23 67.4498C15.7532 67.8361 15.2644 68.1259 14.9206 68.5404C14.6045 68.9232 14.3143 69.4202 14.24 69.9014C14.0898 70.8778 14.1295 71.8823 14.031 72.8693C13.8514 74.6694 14.589 74.9872 16.0538 75.0856C19.835 75.335 23.6231 75.4842 27.4112 75.6318C28.9123 75.6915 29.1904 75.3841 29.4133 73.8826C29.5014 73.2943 29.6603 72.7183 29.8002 72.0808C30.0196 72.1879 30.1474 72.2441 30.27 72.3091C34.4123 74.5166 38.7134 76.3061 43.2547 77.4775C45.5659 78.0728 47.8961 78.3995 49.9223 76.7926C51.7032 75.3806 53.3287 73.7632 55.0198 72.2353C55.2789 72.0018 55.5311 71.7612 55.8679 71.4468C56.2911 73.0309 56.6608 74.4288 57.0391 75.8249C57.1825 76.3535 57.4848 76.8734 57.4865 77.3985C57.4986 82.1471 58.2811 86.7887 59.3313 91.3916C59.4332 91.8324 59.3935 92.0273 59.0411 92.3188C53.0299 97.2835 48.2675 103.283 44.7644 110.304C42.6829 114.478 40.902 118.807 38.4163 122.774C37.5423 124.17 37.2659 124.235 35.8546 123.363C34.395 122.46 32.925 121.49 31.3306 120.92C27.4734 119.539 23.8252 119.789 20.8092 123.039C20.5415 123.327 20.1563 123.507 19.8212 123.73C18.3512 124.706 17.8641 125.884 18.2614 127.632C18.3961 128.222 18.574 128.812 18.8193 129.363C20.6849 133.547 23.7544 136.643 27.5287 139.026C29.6378 140.357 31.8782 141.477 34.0702 142.668C34.8251 143.079 35.3761 143.571 35.3882 144.526C35.4055 145.741 36.0377 146.591 37.031 147.217C37.3505 147.419 37.6286 147.692 38.1347 148.102C37.4628 148.102 37.0655 148.074 36.6751 148.105C33.9338 148.333 31.1907 148.555 28.4528 148.825C28.0175 148.867 27.6064 149.141 27.1832 149.308C27.1867 149.401 27.1884 149.496 27.1919 149.591C27.5097 149.749 27.8137 149.986 28.1488 150.049C29.4703 150.299 30.7952 150.597 32.1304 150.692C38.1589 151.117 44.1892 151.136 50.2091 150.534C51.1298 150.443 52.1506 150.42 53.0022 149.429C52.1057 149.076 51.3319 148.771 50.5045 148.446C50.6271 148.079 50.7376 147.728 50.8586 147.382C51.9382 144.298 53.7208 141.486 54.2943 138.199C54.3271 138.007 54.8436 137.782 55.1355 137.782C55.8178 137.784 56.5002 137.919 57.1825 137.986C58.5505 138.121 59.0791 137.789 59.6336 136.485C61.7134 131.602 63.6618 126.65 66.4274 122.107C67.7678 119.908 69.2412 117.787 70.7337 115.688C71.3434 114.833 71.4955 114.896 72.1709 115.676C76.9868 121.239 82.5178 125.949 88.6327 129.966C89.4031 130.472 90.4084 130.719 90.557 131.883C90.5743 132.017 90.7746 132.145 90.9128 132.245C92.3655 133.285 93.8148 134.333 95.2831 135.354C96.6235 136.283 96.9552 136.216 98.2023 135.125C99.0695 134.367 100.002 133.682 100.906 132.964C100.983 133.016 101.063 133.071 101.142 133.123C100.989 134.005 100.866 134.892 100.672 135.765C100.508 136.516 100.014 136.908 99.2439 137.061C97.6893 137.368 96.4352 138.209 95.5387 139.542C94.0774 141.72 93.0289 144.057 93.1083 146.767C93.1325 147.566 92.8354 147.768 92.0633 147.801C90.1165 147.884 88.1732 148.086 86.2316 148.27C85.9397 148.298 85.6616 148.495 85.3766 148.614C85.3852 148.695 85.3921 148.778 85.3991 148.859C85.6495 148.966 85.8931 149.127 86.1539 149.171C87.9556 149.471 89.7555 149.905 91.5692 149.997C95.1276 150.179 98.6981 150.256 102.26 150.204C105.069 150.162 107.874 149.898 110.674 149.656C111.709 149.568 112.501 148.999 112.768 147.877C113.348 145.423 113.885 142.956 114.536 140.522C114.98 138.859 115.585 137.24 116.138 135.547C116.851 135.877 117.342 136.111 117.837 136.332C119.219 136.952 119.604 136.815 120.32 135.491C121.473 133.353 122.192 131.065 122.588 128.67C122.907 126.745 122.126 125.235 120.44 124.307ZM9.8387 47.6367C9.59168 48.1478 9.05274 48.2654 8.57599 47.9897C7.97832 47.6438 8.41016 47.2434 8.64336 46.9044C9.2773 45.9807 9.25139 45.0323 8.87828 44.012C8.77464 43.7293 8.92319 43.3517 8.95601 43.018C9.35676 43.1515 9.96134 43.1655 10.1168 43.4413C10.4277 43.9945 10.4916 44.6899 10.6851 45.4292C10.4191 46.1405 10.1876 46.9167 9.8387 47.6367ZM35.5489 142.157C32.1252 140.274 28.5979 138.548 25.651 135.896C23.6905 134.131 21.8249 132.266 20.5536 129.897C20.1874 129.214 19.8868 128.487 19.6208 127.755C19.3151 126.912 19.3531 126.023 19.9974 125.386C20.6728 124.72 21.6176 124.685 22.4191 125.078C23.9323 125.825 25.4213 126.64 26.8498 127.542C31.4878 130.473 35.4141 134.291 39.3733 138.062C40.3164 138.961 41.2423 139.881 42.163 140.803C42.4204 141.059 42.6363 141.36 42.9317 141.714C42.6432 141.82 42.4687 141.93 42.2873 141.945C40.3441 142.08 38.399 142.21 36.454 142.315C36.1535 142.333 35.8045 142.299 35.5489 142.157ZM36.4644 143.585C38.6512 143.434 40.7759 143.286 42.9489 143.137V145.048C42.2891 145.048 41.643 145.063 40.9987 145.044C39.9088 145.011 38.8171 144.907 37.7271 144.925C36.8565 144.941 36.6026 144.458 36.4644 143.585ZM37.9223 145.989C39.2938 146.073 40.5842 146.324 41.8331 146.191C44.0786 145.95 45.8354 146.909 47.5437 148.14C47.6837 148.24 47.8218 148.348 47.9497 148.463C48.0084 148.516 48.0412 148.599 48.0896 148.672C44.6089 149.809 40.2076 148.581 37.9223 145.989ZM49.4438 147.7C47.8201 146.911 46.3018 146.186 44.7938 145.439C44.3066 145.197 43.975 143.52 44.3619 143.135C44.4949 143.004 44.906 142.984 45.0788 143.095C46.5591 144.033 48.0205 145.004 49.4732 145.985C50.3714 146.593 49.4818 147.129 49.4438 147.7ZM52.5203 139.287C52.3441 140.668 51.2023 143.562 50.2073 145.004C48.6786 143.982 47.1862 142.982 45.692 141.983C47.0307 139.971 49.3454 138.552 51.5823 138.339C52.4391 138.257 52.6274 138.446 52.5203 139.287ZM53.7934 134.497C53.5809 135.34 53.4842 136.211 53.3114 137.226C49.7392 136.867 47.0065 138.581 44.6003 141.198C44.3291 140.961 44.0925 140.768 43.8696 140.561C40.2041 137.148 36.6147 133.645 32.8507 130.349C29.6845 127.576 26.2954 125.07 22.312 123.428C23.4521 122.305 24.8029 121.722 26.3195 121.624C31.7176 121.276 35.6301 123.672 38.2418 128.408C38.2833 128.484 38.3075 128.592 38.3714 128.629C38.6599 128.796 38.9587 128.944 39.2524 129.098C39.318 128.768 39.5339 128.368 39.4199 128.122C39.0123 127.231 38.4923 126.394 38.0156 125.537C39.0382 125.579 39.7585 126.215 40.2974 127.084C40.7396 127.797 41.0713 128.582 41.529 129.281C41.6983 129.539 42.0904 129.644 42.3806 129.82C42.4514 129.495 42.6346 129.144 42.5706 128.847C42.4307 128.208 42.1664 127.598 41.9522 126.977C42.0265 126.919 42.1008 126.863 42.1751 126.806C42.5465 127.231 42.9679 127.621 43.2789 128.088C43.6122 128.592 43.7936 129.204 44.1425 129.694C44.3326 129.959 44.7333 130.069 45.0391 130.248C45.1012 129.892 45.1945 129.537 45.2101 129.177C45.217 129 45.0805 128.817 44.9112 128.394C45.8319 128.851 46.5902 129.151 47.2725 129.578C49.3229 130.86 51.3388 132.194 53.3753 133.499C53.7588 133.743 53.9195 133.993 53.7934 134.497ZM111.969 120.918C112.147 121.039 112.282 121.426 112.239 121.65C111.912 123.38 111.586 125.113 111.158 126.82C110.838 128.09 109.916 128.826 108.658 129.044C107.478 129.247 106.278 129.406 105.212 128.596C106.903 125.691 108.542 122.878 110.244 119.957C110.795 120.256 111.412 120.542 111.969 120.918ZM83.3038 79.8062H81.357C81.357 79.3443 81.3311 78.9632 81.3622 78.5874C81.4572 77.4511 81.0098 76.6784 80.0425 76.069C78.303 74.9714 78.2495 72.5848 79.9613 71.1096C80.0304 71.6734 80.115 72.1686 80.1479 72.6674C80.2049 73.5472 80.6022 73.9862 81.5332 74.1373C82.4297 74.283 82.9894 73.9652 83.2537 73.1046C83.3867 72.6726 83.4489 72.216 83.5421 71.7664C84.4179 72.1247 84.9672 73.0502 84.7634 73.9792C84.6287 74.5921 84.449 75.2524 84.0949 75.7459C83.2157 76.977 82.7907 78.2572 83.3038 79.8062ZM87.7034 81.0776C89.1613 80.9828 90.6157 80.8405 92.0684 80.6755C92.6955 80.6052 92.9511 80.7615 92.9442 81.4534C92.9373 82.4053 93.0461 83.3554 93.1066 84.3441C92.3189 84.3037 91.6867 84.3107 91.0631 84.2299C89.968 84.0877 89.2062 84.5654 88.7674 85.526C87.8899 87.4455 87.0228 89.3702 86.2541 91.3336C85.9674 92.0712 85.6599 92.44 84.8498 92.3241C84.3436 92.2504 83.8133 92.3522 83.302 92.3013C82.5057 92.2205 82.2086 92.6385 82.1568 93.355C82.0618 94.6335 81.9495 95.9102 81.889 97.1904C81.8597 97.7998 81.7457 97.9631 81.0616 97.8191C79.8197 97.5557 79.3032 96.6548 79.1563 95.6187C78.861 93.5253 78.6554 91.4056 78.6019 89.2912C78.5449 87.0802 78.7107 84.8639 78.778 82.6494C78.8005 81.9223 79.0354 81.5219 79.8836 81.4938C82.4919 81.4095 85.0985 81.2462 87.7034 81.0776ZM97.0156 65.5444C96.551 64.4415 97.1918 63.7952 97.577 63.0172C97.6357 62.896 98.211 62.8644 98.3854 63.0032C99.6464 64.006 100.894 65.0316 102.073 66.1292C102.284 66.3258 102.284 66.93 102.174 67.2794C101.303 70.0384 100.315 72.7604 99.5082 75.5352C99.1593 76.7329 98.8415 77.5302 97.4181 77.8463C96.3091 78.0939 95.3608 79.0861 94.1223 79.8905C94.6215 77.1579 95.1017 74.5271 95.5975 71.8261C95.7322 71.9368 95.8376 72.0738 95.9758 72.1282C96.4024 72.3003 96.9742 72.6849 97.2454 72.5339C97.5977 72.3372 97.8551 71.7208 97.9052 71.2572C98.1229 69.2815 97.7705 67.3409 97.0156 65.5444ZM92.8889 98.9712C91.7195 98.857 90.5501 98.7517 89.3824 98.6182C87.3683 98.3881 85.3559 98.1405 83.2001 97.8841C83.2899 96.4634 83.3746 95.1375 83.4679 93.6605C84.8774 93.7536 86.2386 93.8291 87.598 93.9415C89.3392 94.0838 91.0752 94.2805 92.8164 94.4052C93.9841 94.4877 94.2397 94.7617 94.0739 95.9137C93.9651 96.6618 93.8304 97.4117 93.8131 98.1651C93.7958 98.8553 93.4659 99.0274 92.8889 98.9712ZM93.611 101.149C93.3277 104.189 93.0479 107.229 92.7507 110.458C90.8817 110.291 89.1716 110.149 87.4667 109.982C85.9864 109.838 84.5129 109.629 83.0308 109.522C82.4936 109.484 82.3174 109.299 82.352 108.79C82.5126 106.553 82.656 104.312 82.8236 102.074C82.8909 101.179 83.0067 100.287 83.1138 99.2627C84.145 99.354 85.1348 99.4173 86.1176 99.5349C88.3909 99.8036 90.6589 100.109 92.9304 100.373C93.4331 100.431 93.6594 100.629 93.611 101.149ZM93.9012 92.995C93.5194 91.2195 93.1567 89.5283 92.7888 87.8231C93.3622 87.5965 93.6507 87.8863 93.8148 88.3938C93.9841 88.9154 94.1344 89.444 94.3106 89.9638C94.9791 91.9413 96.6252 92.728 98.515 91.8851C99.0418 91.6497 99.4218 91.6901 99.8451 91.9781C100.666 92.5384 101.529 92.5945 102.471 92.3259C102.811 92.2293 103.243 92.2767 103.578 92.4049C104.423 92.728 105.248 93.0178 106.16 92.7193C106.266 92.6859 106.399 92.6665 106.499 92.6999C107.625 93.0617 108.644 92.8773 109.549 92.0361C109.733 93.146 109.114 93.9907 108.162 93.931C104.927 93.7238 101.695 93.4726 98.4614 93.2531C96.9448 93.1495 95.4265 93.081 93.9012 92.995ZM92.1617 86.5042C91.1927 86.4972 91.0907 86.7588 91.2652 87.744C91.5312 89.2491 91.6953 90.7734 91.894 92.2907C91.913 92.4295 91.8802 92.5752 91.8594 92.9124C90.3203 92.7632 88.8072 92.6156 87.0003 92.44C88.0627 90.2097 89.0075 88.176 90.0111 86.174C90.1338 85.9299 90.5656 85.7157 90.8576 85.7104C92.6592 85.6823 94.4626 85.7174 96.2659 85.7385C96.3402 85.7385 96.4128 85.8087 96.5371 85.8702C96.3264 86.4655 96.0138 86.7325 95.3366 86.657C94.2864 86.5393 93.2206 86.5112 92.1617 86.5042ZM93.7129 75.774C93.5954 76.6872 93.3605 77.5934 93.091 78.475C92.9857 78.8245 92.6437 79.1019 92.4105 79.411C92.2636 79.3636 92.1168 79.3162 91.97 79.267C91.7938 77.4266 91.5399 75.5896 91.469 73.7456C91.4207 72.4794 91.6262 71.2045 91.7195 69.933C91.723 69.8768 91.7281 69.8153 91.7471 69.7627C92.0011 69.0742 92.2394 68.3454 93.1204 68.2927C93.6783 68.2611 94.3434 69.0409 94.2967 69.998C94.2017 71.928 93.9616 73.8545 93.7129 75.774ZM96.4991 70.3123C96.0327 69.6309 95.5491 68.9601 95.1051 68.2629C93.8666 66.3241 92.0218 66.3364 90.9577 68.3858C90.6002 69.0742 90.1942 69.2253 89.5447 69.1498C88.8072 69.0637 88.1404 68.8934 87.8191 68.0873C87.2646 66.7034 86.1798 66.0677 84.7893 66.3803C84.5337 66.4365 84.3816 66.8861 84.1312 67.088C83.8824 67.29 83.5801 67.4586 83.2761 67.5306C83.2018 67.5481 82.922 67.1284 82.9168 66.9071C82.8823 65.4811 82.8996 64.0551 82.8996 62.6098C83.6371 62.3815 84.1692 62.3938 84.5734 63.1121C84.8999 63.6881 85.4509 63.8778 86.1246 63.7355C87.9625 63.3491 89.8039 63.2087 91.6781 63.5195C94.8322 64.0446 95.9688 65.1299 96.532 68.3191C96.6408 68.9425 96.6892 69.5765 96.7669 70.2052C96.6771 70.2421 96.589 70.2772 96.4991 70.3123ZM90.3342 70.1771C90.2651 71.7296 90.1994 73.203 90.1321 74.7186H88.3926V70.1771H90.3342ZM117.775 103.407C117.611 105.409 117.39 107.406 117.188 109.406C117.171 109.58 117.122 109.751 117.108 109.924C116.951 111.809 116.949 111.867 115.075 111.772C111.638 111.598 108.204 111.342 104.768 111.133C102.389 110.987 100.009 110.867 97.6306 110.73C96.4922 110.664 95.3539 110.581 94.0705 110.497C94.3745 107.174 94.6733 103.89 94.986 100.469C98.3232 100.722 101.543 100.968 104.789 101.214C104.744 101.96 104.694 102.589 104.671 103.219C104.647 103.911 104.984 104.32 105.67 104.385C106.527 104.466 107.383 104.558 108.242 104.582C109.337 104.612 109.734 104.224 109.838 103.11C109.881 102.652 109.89 102.19 109.919 101.641C110.814 101.641 111.638 101.59 112.455 101.651C113.854 101.758 115.25 101.922 116.645 102.085C117.685 102.208 117.858 102.376 117.775 103.407ZM106.245 100.241C106.285 100.092 106.471 99.916 106.622 99.8756C106.893 99.8054 107.188 99.8141 107.473 99.8141C108.655 99.8194 108.77 99.9652 108.663 101.166C108.61 101.765 108.598 102.369 108.57 102.921C108.451 102.977 108.427 102.998 108.401 103C106.064 103.153 105.621 102.594 106.245 100.241ZM112.187 87.5263C112.419 87.8389 112.726 88.1198 112.868 88.4711C113.557 90.1552 114.205 91.857 114.856 93.5569C115.013 93.9644 115.232 94.4315 114.552 94.5773C113.932 94.7107 113.593 94.4473 113.471 93.7975C113.279 92.7737 113.061 91.7516 112.795 90.7453C112.595 89.9902 112.287 89.2666 112.056 88.5185C111.968 88.2358 111.957 87.9267 111.911 87.6299C112.004 87.5948 112.096 87.5614 112.187 87.5263ZM112.826 95.7908C114.339 95.9119 115.851 96.1104 117.366 96.1473C118.202 96.1666 118.47 96.5652 118.404 97.2624C118.297 98.4092 118.103 99.549 117.932 100.787C116.908 100.706 115.968 100.636 115.03 100.557C113.659 100.441 112.287 100.325 110.916 100.192C110.444 100.144 110.05 100.021 109.952 99.4015C109.841 98.713 109.256 98.5163 108.656 98.4707C107.912 98.4127 107.162 98.4075 106.416 98.3794C105.442 98.3425 105.079 98.9747 104.944 99.8739C103.096 99.7299 101.296 99.5911 99.4961 99.4506C98.2662 99.3523 97.0381 99.217 95.8065 99.1679C95.2399 99.145 95.0637 98.9905 95.119 98.3934C95.2364 97.122 95.2727 95.8417 95.3453 94.4842C96.2867 94.5263 97.1348 94.5404 97.9812 94.6071C102.93 94.9952 107.877 95.3921 112.826 95.7908ZM116.559 61.8511C116.666 62.1778 116.706 62.5308 116.753 62.875C117.084 65.3617 116.525 67.7185 115.422 69.8856C113.598 73.4769 111.631 76.9928 109.67 80.5086C109.358 81.0688 109.316 81.4728 109.605 82.0137C110.79 84.2405 111.064 86.5832 110.339 89.0155C109.924 90.4099 109.038 91.1562 107.86 91.2405C108.192 90.6294 108.589 90.0235 108.85 89.3615C108.955 89.0928 108.762 88.7029 108.705 88.3675C108.389 88.522 107.978 88.5958 107.774 88.8451C107.176 89.5775 106.71 90.4257 106.088 91.1334C105.758 91.5128 105.234 91.8658 104.621 91.3249C104.974 90.6452 105.324 89.9831 105.658 89.314C105.787 89.0559 105.924 88.7889 105.984 88.5097C106.076 88.0917 106.223 87.593 105.639 87.4121C105.041 87.2277 104.81 87.6229 104.702 88.1374C104.39 89.6301 103.524 90.6487 102.104 91.1194C101.711 91.2493 101.251 91.1738 100.773 91.1966C101.153 89.7531 101.462 88.4922 101.819 87.2453C101.978 86.6974 101.807 86.3075 101.3 86.3005C101.044 86.2987 100.681 86.6868 100.55 86.9819C100.306 87.5315 100.213 88.1479 100.03 88.7257C99.6948 89.79 98.9589 90.4029 97.9 90.6663C96.5734 90.9982 95.4005 90.2132 95.1863 88.8399C95.1086 88.3446 95.3297 88.1585 95.7823 88.0988C97.1262 87.9214 97.6772 87.3366 97.7757 85.9773C97.805 85.5717 97.8033 85.1572 97.7618 84.7533C97.6945 84.1263 97.197 84.0842 96.7375 84.1105C96.4629 84.1263 96.1951 84.2809 95.9257 84.3792C94.6111 84.8657 94.1413 84.4828 94.3227 83.0726C94.5403 81.3727 96.7738 79.1599 98.4632 78.9702C99.7051 78.8297 99.9642 78.5751 100.367 77.3317C101.65 73.361 102.949 69.3956 104.258 65.4337C104.426 64.9279 104.747 64.3396 104.125 64.078C103.858 63.9638 103.352 64.4345 102.764 64.7383C102.396 64.4028 101.811 63.8672 101.13 63.2473C104.606 59.8842 108.033 56.5703 111.557 53.1634C113.517 56.0312 115.512 58.6549 116.559 61.8511ZM84.8774 37.2947C85.3196 36.8539 85.6063 36.0355 86.5288 36.6361C87.6515 37.3684 87.9504 37.8654 87.541 38.9525C86.4096 41.9591 85.3645 45.0095 83.5836 47.7123C83.4281 47.9493 83.2485 48.1706 83.0706 48.4094C80.958 46.8236 78.9214 45.2167 76.0281 45.6347C76.9401 44.9041 77.9178 44.2421 78.7556 43.429C80.8284 41.4199 82.8305 39.3336 84.8774 37.2947ZM75.287 1.53742C79.1114 1.67967 82.542 3.00206 85.6305 5.31493C88.0368 7.11675 89.0835 9.65617 89.6484 12.4959C90.063 14.5787 89.7175 16.6123 89.2304 18.6302C89.1716 18.8725 89.0214 19.0903 88.8573 19.4415C81.7681 14.8333 74.7516 10.2708 67.6883 5.67845C69.5712 2.86332 72.0586 1.41975 75.287 1.53742ZM61.6477 34.6938C60.1933 31.8646 60.1501 28.8563 60.3453 25.8234C60.6251 21.4804 61.6374 17.2709 62.8845 13.1193C62.9346 12.9525 62.9864 12.7874 63.0434 12.6241C63.4684 11.3913 63.5306 11.3403 64.7777 11.6213C69.699 12.7295 74.4458 14.3943 79.1304 16.2646C79.8663 16.5579 79.8646 17.018 79.7402 17.645C79.4206 19.2518 79.2047 20.8781 79.6625 22.4849C79.8145 23.0223 80.134 23.5615 80.5123 23.9689C81.4814 25.0121 82.4159 24.9488 83.2278 23.7828C83.9567 22.7378 84.8947 22.2127 86.1418 22.2479C88.3183 22.3076 89.7779 24.4782 89.2356 26.8227C88.6949 29.1654 86.356 31.8787 83.1759 30.9514C82.9272 30.8794 82.5644 31.2078 82.2552 31.3501C82.4539 31.6556 82.6059 32.1667 82.8616 32.2282C83.4869 32.3792 83.5991 32.7269 83.6164 33.2783C83.6302 33.7402 83.6907 34.2161 83.822 34.6569C84.183 35.8792 83.7702 36.8574 82.9082 37.6529C80.5711 39.8113 78.2236 41.9573 75.8467 44.0682C74.2523 45.4872 72.601 46.8412 70.9047 48.283C69.3069 45.9754 68.2877 43.4641 67.8973 40.6735C69.1842 40.5717 70.4176 40.6314 71.5646 40.3416C72.9326 39.9957 74.2489 39.3986 75.5392 38.8015C75.8381 38.6645 76.1835 37.9919 76.0851 37.7302C75.8502 37.1085 75.3389 37.465 74.9346 37.6793C73.1071 38.6469 71.1673 39.3389 69.1082 39.2616C65.8418 39.1369 63.2455 37.7969 61.6477 34.6938ZM67.8593 45.7313C66.284 45.3695 64.89 46.0298 63.3837 46.6972C63.5703 44.4265 64.294 42.4561 65.2424 40.5647C65.3443 40.3609 65.764 40.1801 65.9938 40.2222C66.2166 40.2626 66.4895 40.577 66.5604 40.8228C67.0164 42.4332 67.4223 44.0559 67.8593 45.7313ZM12.9756 42.8196C14.164 42.5843 14.6356 42.8512 14.8394 43.8821C14.2038 43.8821 13.5802 43.926 12.9687 43.8575C12.7804 43.8346 12.5144 43.5168 12.4919 43.3131C12.4764 43.1603 12.7787 42.86 12.9756 42.8196ZM14.3644 49.1172C13.6061 49.2243 12.8357 49.2454 11.9046 49.3051C12.5593 47.9651 13.5111 48.1829 14.3644 48.1741C14.4905 48.1724 14.7427 48.4411 14.722 48.5359C14.6736 48.7537 14.5147 49.0961 14.3644 49.1172ZM15.2125 46.0509C13.6234 46.3758 13.119 46.2459 12.9739 45.3906H15.2125V46.0509ZM16.0451 50.905C18.2251 48.0284 18.2527 45.1992 17.0436 42.1294C17.9107 42.1294 18.6431 42.1031 19.3721 42.1347C21.7213 42.2383 24.0705 42.3349 26.4163 42.4859C29.0246 42.6545 30.524 44.9129 29.8123 47.484C29.3994 48.9784 28.5271 50.0831 27.1711 50.7504C26.3524 51.1543 25.4645 51.409 24.6284 51.776C23.7717 52.1501 22.9408 52.5891 22.0909 52.9807C21.8716 53.0826 21.5745 53.2249 21.4 53.1458C21.2428 53.0773 21.172 52.7366 21.1253 52.5031C21.0804 52.2783 21.115 52.0377 21.1167 51.8041C21.1202 51.186 20.811 50.9015 20.2098 50.9032C18.897 50.9085 17.5825 50.905 16.0451 50.905ZM15.2471 56.1857C15.2074 55.2374 15.6893 54.3751 16.5323 54.2786C17.5462 54.1609 18.593 54.1837 19.607 54.2979C20.2288 54.3699 20.5916 54.837 20.3515 55.5834C20.1062 56.3473 19.9162 57.1288 19.6761 57.9964C18.6086 57.9138 17.6067 57.884 16.6186 57.7487C15.6271 57.6135 15.2903 57.1727 15.2471 56.1857ZM15.6807 60.1477C15.8569 59.7701 16.4165 59.468 16.857 59.3609C17.3027 59.2538 17.8157 59.4698 18.3011 59.4715C18.7519 59.475 19.2045 59.3837 19.6951 59.3293C20.0164 60.6113 20.8766 61.2119 22.0788 61.4402C22.2999 61.4806 22.6627 61.8441 22.6299 61.9635C22.5418 62.2779 22.2775 62.7802 22.0737 62.7854C20.3653 62.8258 18.6396 62.8908 16.9468 62.7046C15.7722 62.5764 15.1642 61.2435 15.6807 60.1477ZM22.5245 65.1334C22.5176 66.1836 22.0097 66.8422 21.0079 67.0441C20.5052 67.146 19.9905 67.1951 19.4809 67.2671C18.0489 67.2268 16.8587 66.519 16.4182 65.4039C16.0745 64.5293 16.3042 64.236 17.2007 64.229C18.5861 64.2184 19.9715 64.1622 21.3533 64.0744C22.2015 64.02 22.5297 64.2729 22.5245 65.1334ZM15.4941 70.2491C16.2472 68.8266 17.5462 68.2927 19.2598 68.6756C20.3774 68.9267 21.3309 68.658 22.2861 68.1101C22.642 67.9046 23.0876 67.7659 23.4918 67.7677C24.5507 67.7712 25.6148 67.8274 26.6667 67.952C26.9794 67.9889 27.3819 68.2594 27.5252 68.5386C27.8448 69.1691 28.0296 69.8733 28.3475 70.7654C23.9703 70.5898 19.7918 70.4212 15.4941 70.2491ZM54.6847 70.5933C53.118 72.1335 51.5892 73.7158 49.9534 75.1752C48.3625 76.5941 46.5039 76.9331 44.4172 76.3676C39.7084 75.0926 35.1309 73.4963 30.8487 71.0938C30.2908 70.7795 29.8278 70.5073 29.9021 69.7258C29.9246 69.4782 29.6585 69.1462 29.4444 68.9425C28.0642 67.6307 27.7533 66.0185 28.1402 64.2202C28.2559 63.6723 28.1747 63.3562 27.66 63.0155C26.3938 62.1778 25.9741 60.743 26.3765 59.0571C26.4785 58.6338 26.7116 58.2176 26.703 57.8014C26.6961 57.4256 26.4422 57.0515 26.2971 56.6775C25.962 56.8707 25.4679 56.9813 25.3194 57.2728C24.7891 58.3107 24.3434 59.3855 23.2828 60.0124C22.2671 60.613 20.9336 59.9 20.9802 58.7216C21.0614 56.6248 21.9044 54.9143 23.6214 53.6797C24.3348 53.1669 25.1035 53.0703 25.9136 53.2723C28.2836 53.8641 29.8261 55.3849 30.2268 57.8137C30.5067 59.5207 31.3997 60.3549 32.9423 60.7202C37.1657 61.7212 41.3857 62.7415 45.6177 63.7144C45.8596 63.7689 46.1826 63.4598 46.4693 63.3193C46.2828 63.0436 46.1549 62.6397 45.8976 62.5167C45.4156 62.2867 44.8594 62.2217 44.1788 62.0478C44.7419 61.0363 45.2584 60.1125 45.8475 59.0553C47.5247 60.4216 49.1467 61.6685 50.6806 63.0172C52.047 64.2184 53.3391 65.5127 54.6208 66.8088C55.6278 67.8256 55.9889 69.3096 54.6847 70.5933ZM71.7736 83.7049C71.7183 83.9402 71.2882 84.1843 70.9962 84.2387C70.5247 84.3283 70.0255 84.2633 69.5366 84.2633C69.5349 84.2809 69.5332 84.3002 69.5314 84.3178C68.1634 84.1966 66.797 84.0666 65.4289 83.9595C64.9159 83.9191 64.7483 83.6486 64.7673 83.1587C64.7933 82.4597 64.738 81.7537 64.8226 81.0636C64.8503 80.823 65.2009 80.4208 65.3857 80.4314C67.3843 80.549 69.3812 80.7159 71.3728 80.9266C71.606 80.9512 71.9791 81.3252 71.9843 81.543C71.9998 82.2648 71.9377 83.0041 71.7736 83.7049ZM69.4693 79.2337C67.9353 79.044 66.3548 78.7911 64.8485 78.9843C63.5599 79.1494 62.4078 78.9667 61.247 78.5979C60.5197 78.3643 59.8426 77.9534 59.1707 77.5723C58.9789 77.4652 58.8304 77.2018 58.7526 76.977C57.0356 71.9421 56.1581 66.7579 56.5485 61.4384C56.7575 58.5794 57.3811 55.752 57.8199 52.9105C57.851 52.7103 57.9097 52.5136 57.9667 52.3187C58.1291 51.7743 58.1636 51.1772 57.5608 51.0068C57.3759 50.9541 56.8232 51.5811 56.7299 51.9692C55.7988 55.8205 55.1269 59.7156 55.1563 63.7039C55.1597 64.1025 55.1563 64.5012 55.1563 65.0632C52.2042 62.5887 49.392 60.2337 46.376 57.7066C48.036 55.1426 49.6684 52.41 51.5081 49.8284C53.5567 46.9554 55.937 44.3562 59.0394 42.6141C60.442 41.8256 61.969 41.2619 63.5616 40.5418C63.0331 42.4262 62.5684 44.0559 62.1245 45.6927C62.0329 46.0263 61.9604 46.3846 61.9794 46.7253C62.0036 47.1924 61.9742 47.8405 62.2454 48.0652C62.5218 48.2935 63.1626 48.2022 63.5927 48.0723C64.7812 47.714 65.8072 46.9027 67.1736 47.0203C68.8267 47.1626 70.0686 49.061 69.6109 50.6644C69.065 52.5803 68.6868 54.5473 68.3223 56.5071C68.2653 56.8109 68.6764 57.2026 68.8716 57.552C69.1048 57.2816 69.4831 57.0428 69.547 56.7354C69.7974 55.5149 69.8251 54.2364 70.1671 53.0492C70.9392 50.3693 72.3522 48.1109 75.1368 47.2469C77.4877 46.5163 79.5934 47.2908 81.4572 48.8274C81.7474 49.0663 82.0341 49.3086 82.3243 49.5492C83.1638 50.2429 83.4454 50.2113 84.1156 49.291C85.9294 46.8078 86.9537 43.926 88.0851 41.1003C88.3339 40.4821 88.5083 39.8288 88.7951 39.2317C88.8935 39.028 89.2597 38.7909 89.4584 38.8261C93.8234 39.6023 98.0175 40.8755 101.762 43.3851C105.221 45.7032 108.271 48.4604 110.721 52.0359C108.515 54.2118 106.352 56.3526 104.179 58.4811C103.041 59.5962 101.873 60.6798 100.736 61.7967C100.203 62.3218 99.7639 62.3797 99.1023 61.9056C96.8515 60.2969 94.5558 58.7533 92.2446 57.2342C91.9596 57.0463 91.2842 56.9848 91.1357 57.1639C90.7487 57.6258 91.2445 57.9279 91.5951 58.172C92.9701 59.1238 94.3175 60.1266 95.7495 60.9836C96.532 61.4525 96.6805 61.8863 96.1865 62.6186C95.9947 62.9031 95.8445 63.2157 95.6389 63.581C94.0325 62.6203 92.3396 62.1269 90.5483 62.0935C89.4083 62.0707 88.2665 62.1883 87.1247 62.2515C86.4078 62.2902 85.7549 62.5167 85.2108 61.6123C84.6442 60.6745 83.5508 61.0714 82.6595 61.1733C81.9029 61.2611 81.6144 61.8213 81.6092 62.5378C81.5937 64.2343 81.5608 65.9289 81.6144 67.6236C81.6248 67.9591 81.9115 68.3981 82.1982 68.5913C82.9635 69.1059 84.392 68.7985 85.038 68.1452C85.2712 67.9099 85.7134 67.6289 85.9415 67.7097C86.2541 67.8221 86.6376 68.2401 86.6704 68.5614C86.8431 70.2316 87.0642 71.921 86.9761 73.5876C86.8794 75.4386 86.4597 77.272 86.1971 79.116C86.0969 79.8097 85.6703 80.0362 85.0519 80.0257C84.4024 80.0134 84.1726 79.6112 84.3022 79.037C84.5043 78.1448 84.6736 77.2211 85.0449 76.3992C85.5424 75.3051 86.0624 74.2549 85.8879 73.001C85.6184 71.0868 84.4283 70.1139 82.5385 70.2421C82.3399 71.057 82.143 71.8648 81.946 72.6726C81.8269 72.6674 81.7094 72.6621 81.5902 72.6568C81.4019 72.0123 81.2292 71.3608 81.0202 70.7233C80.6989 69.7416 79.9889 69.5993 79.0821 70.1034C77.3685 71.0517 76.9419 75.2682 78.5449 76.408C79.0337 76.7539 79.4103 77.2615 79.8456 77.6865C80.445 78.273 80.3897 79.0141 80.2463 79.7289C80.2118 79.9063 79.8214 80.1275 79.5882 80.1328C77.6622 80.182 75.7344 80.1855 73.8067 80.2013C73.7497 80.2013 73.6702 80.2118 73.6391 80.1802C72.4472 78.9737 70.8788 79.4075 69.4675 79.2337H69.4693ZM111.557 147.513C111.303 147.875 110.935 148.333 110.558 148.397C106.943 149.006 103.298 148.874 99.6602 148.702C98.3181 148.639 96.9811 148.462 95.6458 148.295C94.2691 148.123 94.2691 148.102 94.2846 146.697C94.2846 146.474 94.3261 146.252 94.3451 146.068C100.184 146.99 105.97 147.526 111.93 146.314C111.786 146.809 111.76 147.227 111.557 147.513ZM112.296 144.082C112.139 144.751 111.804 145.063 111.225 145.106C108.454 145.306 105.68 145.625 102.909 145.603C100.372 145.582 97.8379 145.181 95.3038 144.939C94.9031 144.9 94.5317 144.767 94.6681 144.236C95.1397 142.406 95.9015 140.733 97.3041 139.43C98.5323 138.29 100.037 138.077 101.576 138.334C102.894 138.553 104.169 139.022 105.473 139.331C105.779 139.403 106.129 139.277 106.459 139.242C106.302 138.917 106.223 138.402 105.975 138.3C104.822 137.825 103.614 137.484 102.445 137.04C102.17 136.936 101.769 136.613 101.776 136.406C101.802 135.765 102.362 135.935 102.699 136.046C103.973 136.458 105.219 136.962 106.495 137.37C106.81 137.472 107.387 137.466 107.516 137.277C107.836 136.813 107.554 136.367 107.052 136.186C105.844 135.751 104.637 135.303 103.4 134.966C102.122 134.618 102.106 134.672 102.279 133.058C103.526 133.369 104.754 133.666 105.977 133.989C106.501 134.126 107 134.377 107.528 134.463C107.786 134.507 108.083 134.291 108.363 134.193C108.244 133.935 108.183 133.522 107.993 133.445C106.936 133.021 105.851 132.665 104.766 132.317C104.068 132.092 103.352 131.924 102.543 131.701C102.68 131.483 102.728 131.413 102.773 131.337C103.504 130.089 104.31 129.743 105.851 130.28C109.059 131.395 111.42 130.018 112.429 126.717C112.928 125.087 113.22 123.392 113.645 121.561C114.82 122.223 116.055 122.823 117.186 123.582C118.635 124.553 118.421 126.071 118.039 127.456C117.604 129.042 117.101 130.642 116.373 132.105C114.472 135.916 113.265 139.955 112.296 144.082ZM121.41 128.037C121.344 130.185 120.143 133.58 118.763 135.45C118.333 135.261 117.936 135.101 117.554 134.909C117.298 134.783 117.065 134.614 116.758 134.425C118.077 131.564 119.347 128.693 119.537 125.472C121.019 126.013 121.453 126.624 121.41 128.037Z" fill="black"/>
<path d="M83.4685 26.4421C83.6551 25.3516 84.2631 24.8071 85.0214 24.419C85.4204 24.2136 85.8557 24.0151 86.2928 23.9642C86.9284 23.8904 87.4207 24.1837 87.4795 24.9037C87.5399 25.6255 87.0943 25.7695 86.4741 25.896C85.9421 26.0048 85.4792 26.4333 84.9679 26.681C84.6328 26.8425 84.2631 27.0322 83.9142 27.0217C83.7397 27.0164 83.5756 26.5932 83.4685 26.4421Z" fill="black"/>
<path d="M24.8856 46.8584C25.7389 46.9304 26.6078 46.9357 27.4404 47.1113C27.7565 47.178 27.9949 47.6329 28.2695 47.9121C27.9707 48.0491 27.6701 48.3055 27.3713 48.3037C25.8823 48.2949 24.3933 48.2089 22.9026 48.172C22.4396 48.1615 22.1304 47.9578 22.241 47.5082C22.2997 47.2711 22.6556 46.9761 22.9043 46.9462C23.5555 46.8672 24.2206 46.9199 24.8804 46.9199L24.8856 46.8584Z" fill="black"/>
<path d="M26.7691 45.8681C25.5081 45.8066 24.2454 45.7679 22.9879 45.6556C22.7806 45.6362 22.4213 45.2499 22.4507 45.0989C22.499 44.8583 22.8151 44.4895 23.0172 44.4912C24.5961 44.5 26.1766 44.5509 27.7502 44.6756C28.0007 44.6949 28.2166 45.1445 28.4498 45.3956C28.1769 45.559 27.9195 45.7785 27.6259 45.8663C27.3616 45.9471 27.0558 45.8839 26.7691 45.8839C26.7691 45.8786 26.7691 45.8716 26.7691 45.8663V45.8681Z" fill="black"/>
<path d="M66.998 27.8863C67.4354 27.8806 67.8996 27.7616 68.3092 27.4546C68.6491 27.1992 69.009 27.099 69.2937 27.5229C69.5409 27.8913 69.5641 28.2883 69.2472 28.6346C68.2887 29.6824 65.9865 29.7433 64.9718 28.7584C64.409 28.213 64.2991 27.1608 64.7267 26.2472C65.119 25.4097 65.6153 24.6405 66.2238 23.936C66.7749 23.2971 67.2725 22.6118 67.784 21.9405C67.9883 21.6711 68.2297 21.5115 68.5516 21.6799C68.8514 21.8365 68.9404 22.113 68.8583 22.4483C68.6051 23.4823 67.963 24.294 67.2906 25.0645C66.8367 25.5845 66.471 26.1541 66.1509 26.7442C65.614 27.7344 65.7974 27.9614 66.9965 27.8897L66.998 27.8863Z" fill="black"/>
<path d="M73.3252 29.576C73.2153 28.9154 73.3368 28.4266 73.9853 28.2153C74.0839 28.1836 74.192 28.1432 74.2911 28.151C74.7045 28.1861 75.808 29.6862 75.7279 30.0905C75.6648 30.4132 75.4812 30.7589 75.1609 30.6496C74.6076 30.4608 74.5499 30.7914 74.3135 31.1367C72.7495 33.4269 69.0528 34.6876 66.768 33.2237C66.6094 33.1221 66.4613 33.0018 66.3135 32.8847C65.9245 32.5718 66.0099 32.2051 66.2554 31.8774C66.5131 31.5326 66.8249 31.5453 67.172 31.8161C68.461 32.8239 70.2285 32.5205 71.4891 31.7032C72.0598 31.3332 72.5797 30.9083 73.0395 30.4045C73.2772 30.1447 73.6078 29.9309 73.3252 29.576Z" fill="black"/>
<path d="M73.1131 17.1381C74.0168 17.1729 74.8452 17.3649 75.5002 18.0024C75.7625 18.2563 75.8718 18.6009 75.8537 18.964C75.8279 19.4887 75.6077 19.7376 75.0686 19.4477C74.9483 19.3835 74.8079 19.3434 74.7125 19.2531C73.7597 18.3455 72.7481 18.537 71.7018 19.058C71.3734 19.2223 71.0205 19.694 70.6583 19.146C70.3086 18.617 70.6007 18.2687 71.0426 17.9204C71.6691 17.4272 72.3855 17.255 73.1148 17.1397L73.1131 17.1381Z" fill="black"/>
<path d="M64.9345 17.0845C65.7678 16.8532 66.4273 17.3901 67.115 17.7197C67.5408 17.9236 67.7806 18.401 67.5035 18.9032C67.18 19.4918 66.6929 19.2501 66.3172 18.9989C65.4549 18.4237 64.5822 18.5057 63.7002 18.8713C63.3156 19.0304 62.9147 19.1641 62.711 18.7473C62.5203 18.3561 62.7362 17.9396 63.0911 17.6866C63.6282 17.3036 64.2211 17.0393 64.9328 17.0845L64.9345 17.0845Z" fill="black"/>
<path d="M71.76 23.824C71.726 23.1379 71.7097 22.627 71.9825 22.2255C72.1806 21.9349 72.1717 21.2854 72.7507 21.4629C73.3114 21.6349 73.7507 22.0273 73.741 22.6976C73.7352 23.0452 73.7036 23.4007 73.6214 23.736C73.4854 24.2914 73.2123 24.7785 72.5412 24.7245C71.8884 24.6728 71.7357 24.1956 71.7599 23.8224L71.76 23.824Z" fill="black"/>
<path d="M63.7361 22.9806C63.6818 22.2232 64.0413 21.6919 64.3194 21.1452C64.4591 20.8694 64.7603 20.8398 65.039 20.9415C65.4487 21.0921 65.6146 21.45 65.6292 21.8393C65.6429 22.2121 65.5763 22.5926 65.5092 22.9632C65.4209 23.4568 65.3009 24.0047 64.6609 23.977C64.0307 23.9487 63.6787 23.558 63.7329 22.9807L63.7361 22.9806Z" fill="black"/>
</svg>
