<svg xmlns="http://www.w3.org/2000/svg" width="130" height="151" fill="none"><path d="M 94.775 96.797 C 93.763 98.52 92.811 100.074 91.816 101.604 C 90.116 104.215 88.419 106.824 86.649 109.39 C 84.582 112.388 82.629 115.463 80.636 118.51 C 79.34 120.492 78.026 122.463 76.782 124.479 C 75.808 126.054 74.931 127.688 74.004 129.294 C 73.67 129.871 73.209 130.347 73.566 131.167 C 73.738 131.563 73.41 132.16 73.173 132.63 C 72.297 134.37 71.822 136.312 70.452 137.807 C 69.802 138.517 69.092 138.791 68.181 138.504 C 67.48 138.281 66.742 138.154 66.096 137.78 C 65.748 137.578 65.587 137.656 65.444 138.024 C 65.021 139.116 64.598 140.204 64.335 141.352 C 63.935 143.092 63.492 144.82 63.052 146.55 C 62.93 147.031 62.641 147.439 62.379 147.861 C 62.11 148.294 62.011 148.712 62.764 148.718 C 62.815 148.718 62.867 148.757 62.92 148.768 C 63.456 148.883 64.202 148.967 64.147 149.601 C 64.099 150.16 63.334 150.274 62.807 150.354 C 60.861 150.649 58.897 150.765 56.933 150.857 C 55.092 150.943 53.244 151.029 51.403 150.991 C 48.455 150.931 45.496 151.052 42.571 150.546 C 42.356 150.51 42.143 150.449 41.938 150.376 C 41.38 150.18 41.445 149.863 41.798 149.521 C 42.082 149.248 42.424 149.107 42.822 149.037 C 44.904 148.672 47 148.473 49.114 148.493 C 49.386 148.494 49.545 148.395 49.807 148.272 C 48.623 147.544 47.45 146.894 46.352 146.136 C 43.855 144.411 41.465 142.553 39.345 140.365 C 38.549 139.544 37.683 138.794 37.182 137.736 C 36.502 136.299 36.351 134.804 36.656 133.225 C 36.343 133.527 36.283 133.92 36.18 134.313 C 36.077 134.703 35.818 135.055 35.729 135.446 C 35.246 137.54 34.221 139.401 33.216 141.26 C 32.229 143.087 31.078 144.814 29.707 146.389 C 28.57 147.7 27.179 148.528 25.441 148.531 C 22.409 148.536 19.375 148.488 16.346 148.36 C 14.294 148.274 12.227 148.312 10.195 147.902 C 9.654 147.793 9.183 147.617 9.201 147.016 C 9.22 146.434 9.775 146.345 10.223 146.247 C 12.947 145.651 15.72 145.507 18.494 145.407 C 18.914 145.393 19.098 145.358 19.129 144.847 C 19.211 143.546 19.897 142.506 20.864 141.69 C 22.614 140.214 23.781 138.376 24.484 136.218 C 24.933 134.839 25.37 133.458 25.859 132.094 C 26.025 131.633 25.851 131.465 25.491 131.263 C 23.923 130.385 23.933 130.38 22.921 131.888 C 21.438 134.096 19.818 136.216 17.831 137.974 C 15.535 140.005 12.967 141.632 9.807 142.015 C 8.72 142.146 7.644 142.058 6.655 141.619 C 4.336 140.59 4.063 137.935 5.506 135.904 C 6.403 134.642 7.652 133.73 8.85 132.781 C 11.68 130.535 14.101 127.947 15.74 124.692 C 16.036 124.109 16.293 123.505 16.583 122.918 C 16.993 122.09 17.22 121.254 16.815 120.35 C 16.693 120.076 16.646 119.768 16.527 119.492 C 16.309 118.995 16.488 118.241 16.014 117.999 C 15.618 117.797 15.004 118.049 14.486 118.039 C 14.07 118.031 13.889 118.218 13.669 118.555 C 13.108 119.413 12.701 120.386 11.804 121.003 C 10.089 122.183 7.4 121.682 6.305 119.92 C 5.65 118.867 5.821 117.724 6.101 116.601 C 6.428 115.29 7.07 114.123 7.942 112.918 C 6.242 113.249 4.726 113.058 3.421 112.18 C 1.173 110.671 0.173 108.446 0.068 105.779 C 0.025 104.666 0.149 103.573 0.601 102.561 C 0.854 101.994 0.574 101.527 0.478 101.058 C 0 98.711 1.903 96.523 4.116 96.521 C 6.864 96.518 8.626 95.048 10.101 92.96 C 10.718 92.086 11.449 91.289 12.614 91.114 C 12.836 91.08 13.025 91.036 13.247 91.148 C 14.073 91.57 14.84 91.437 15.679 91.037 C 18.204 89.835 20.855 90.095 23.52 90.462 C 24.671 90.619 25.731 91.047 26.843 91.313 C 27.208 91.401 27.413 91.213 27.666 91.067 C 29.543 89.989 31.496 89.584 33.607 90.334 C 34.176 90.536 34.614 90.888 35.035 91.283 C 35.301 91.53 35.475 91.583 35.764 91.256 C 38.05 88.664 40.574 86.303 43.057 83.903 C 42.776 83.723 42.481 83.712 42.172 83.871 C 41.243 84.349 39.496 84.047 38.615 83.264 C 38.438 83.107 38.313 82.903 38.006 82.901 C 36.22 82.888 35.112 81.994 34.589 80.229 C 34.1 78.573 34.063 76.909 34.619 75.285 C 35.238 73.472 36.605 72.295 38.212 71.332 C 39.375 70.638 40.576 70.072 41.904 69.813 C 42.303 69.735 42.578 69.453 42.752 69.203 C 44.144 67.214 46.163 65.859 47.798 64.118 C 49.774 62.017 51.34 59.651 52.635 57.077 C 53.539 55.28 54.606 53.57 55.777 51.925 C 56.968 50.251 58.242 48.652 59.728 47.237 C 61.788 45.278 64.097 43.679 66.771 42.66 C 67.453 42.4 68.024 42.173 68.158 41.297 C 68.264 40.602 68.41 38.407 68.211 37.662 C 67.525 35.078 67.415 32.464 67.868 29.83 C 68.313 27.245 68.752 24.657 69.246 22.081 C 69.472 20.904 69.817 19.747 70.124 18.586 C 70.184 18.361 70.281 18.22 69.96 18.087 C 68.686 17.558 68.437 16.541 68.573 15.264 C 68.749 13.632 69.275 12.173 70.343 10.928 C 70.741 10.463 71.18 10.077 71.904 10.244 C 72.232 10.321 72.581 10.241 72.866 9.916 C 74.586 7.953 76.825 6.743 79.181 5.749 C 81.586 4.735 84.005 3.735 86.561 3.146 C 86.806 3.09 86.897 2.97 86.989 2.742 C 87.815 0.66 89.371 -0.243 91.617 0.056 C 92.773 0.21 93.773 0.655 94.642 1.491 C 95.595 2.406 95.603 3.45 95.291 4.568 C 95.147 5.082 95.206 5.362 95.639 5.746 C 97.424 7.325 98.39 9.393 98.93 11.677 C 99.217 12.89 99.501 14.108 99.378 15.372 C 99.332 15.851 99.013 16.271 99.645 16.752 C 100.14 17.128 99.99 17.913 99.892 18.6 C 99.683 20.061 99.227 21.388 98.355 22.574 C 98.091 22.931 97.758 23.218 97.391 23.455 C 96.464 24.059 96.266 24.52 97.001 25.354 C 98.637 27.212 98.935 29.226 98.043 31.517 C 100.203 31.555 102.275 31.853 104.285 32.532 C 107.944 33.764 109.069 37.243 107.793 40.462 C 107.5 41.206 107.173 41.931 106.735 42.584 C 106.528 42.893 106.546 42.972 106.83 43.095 C 109.336 44.175 111.491 45.805 113.684 47.391 C 117.126 49.881 119.907 52.955 121.794 56.74 C 123.164 59.492 123.721 62.431 122.744 65.507 C 121.979 67.912 120.853 70.1 119.12 71.945 C 118.634 72.462 118.413 72.935 118.65 73.662 C 119.836 77.291 120.926 80.955 121.664 84.701 C 122.2 87.415 122.527 90.173 122.63 92.955 C 122.671 94.099 122.475 95.173 122.23 96.254 C 122.1 96.828 121.553 97.115 121.113 97.409 C 118.594 99.102 115.756 100.078 112.892 100.995 C 109.13 102.201 105.25 102.665 101.155 102.879 C 102.547 103.969 103.643 105.183 104.972 106.139 C 105.327 106.394 105.68 106.656 106.013 106.94 C 106.544 107.393 107.058 107.728 107.836 107.471 C 108.322 107.31 108.795 107.65 109.205 107.932 C 110.665 108.934 112.119 109.944 113.569 110.961 C 114.224 111.421 114.289 112.137 114.093 112.784 C 113.967 113.199 114.035 113.245 114.357 113.428 C 116.454 114.604 118.735 115.35 120.923 116.307 C 122.348 116.931 123.736 117.646 125.041 118.505 C 125.771 118.986 126.334 119.668 126.725 120.388 C 127.073 121.03 126.913 121.876 126.833 122.627 C 126.531 125.504 126.206 128.388 125.368 131.16 C 124.487 134.078 123.588 137.007 121.936 139.62 C 121.435 140.41 120.81 141.101 120.017 141.919 C 120.619 141.919 121.067 141.926 121.513 141.919 C 123.676 141.878 125.838 141.929 127.996 142.09 C 128.498 142.128 129.227 142.075 129.271 142.704 C 129.313 143.263 128.644 143.329 128.148 143.434 C 126.576 143.764 124.978 143.734 123.388 143.785 C 120.206 143.89 117.016 143.873 113.843 144.107 C 111.116 144.308 108.397 144.361 105.698 144.027 C 104.026 143.822 102.289 143.399 101.692 141.425 C 101.402 140.464 101.395 139.469 101.634 138.495 C 102.112 136.553 103.112 134.955 104.839 133.876 C 105.182 133.662 105.549 133.391 105.929 133.346 C 106.969 133.227 107.355 132.522 107.835 131.716 C 108.969 129.81 109.462 127.942 108.409 125.819 C 108.108 125.215 108.152 124.417 108.513 123.754 C 108.626 123.548 108.689 123.448 108.447 123.304 C 108.14 123.12 108.147 123.417 108.052 123.535 C 106.518 125.432 105.396 127.617 103.887 129.53 C 103.562 129.941 103.213 130.346 102.586 130.07 C 100.458 129.133 98.37 128.125 96.484 126.744 C 96.207 126.542 95.885 126.288 96.036 125.947 C 96.288 125.376 95.92 125.252 95.556 125.074 C 92.964 123.808 90.552 122.266 88.316 120.438 C 86.795 119.192 85.469 117.777 84.311 116.191 C 83.933 115.674 84.061 115.164 84.361 114.736 C 86.405 111.824 88.349 108.844 90.293 105.865 C 91.776 103.591 93.382 101.395 94.951 99.179 C 95.294 98.694 94.994 98.228 95.011 97.755 C 95.019 97.5 94.888 97.238 94.772 96.797 Z M 96.034 34.353 C 97.456 34.081 98.7 34.355 99.891 34.955 C 100.675 35.35 101.084 36.082 100.992 36.962 C 100.848 38.357 99.791 39.082 98.809 39.807 C 97.129 41.046 95.117 41.633 93.244 42.498 C 90.157 43.923 87.136 45.48 84.534 47.698 C 83.713 48.396 82.81 49.022 82.185 49.982 C 81.571 50.924 80.996 50.953 80.206 50.228 C 78.57 48.725 77.192 47.021 76.661 44.802 C 76.519 44.208 76.263 43.982 75.684 43.868 C 74.475 43.631 73.325 43.216 72.241 42.591 C 71.565 42.202 70.988 41.702 70.354 41.272 C 70.053 41.068 69.79 40.998 69.699 41.466 C 69.477 42.599 69.572 43.677 70.16 44.707 C 70.913 46.023 72.116 46.794 73.385 47.501 C 74.271 47.993 75.23 48.3 76.188 48.614 C 76.718 48.786 77.164 49.158 77.267 49.717 C 77.33 50.062 76.96 50.399 76.65 50.38 C 75.774 50.332 75.802 51.022 75.669 51.513 C 74.863 54.516 74.289 57.569 73.737 60.627 C 73.694 60.864 73.665 61.04 73.929 61.254 C 74.594 61.794 74.234 62.443 73.949 63.027 C 73.652 63.632 73.077 63.838 72.488 63.646 C 71.771 63.412 71.705 62.72 71.867 62.123 C 72.106 61.249 72.28 60.381 72.385 59.477 C 72.713 56.604 73.496 53.819 74.193 51.021 C 74.528 49.677 74.535 49.679 73.246 49.146 C 73.196 49.125 73.133 49.13 73.086 49.105 C 70.968 47.968 68.966 46.696 68.266 44.196 C 68.115 43.661 67.953 43.75 67.601 43.893 C 64.038 45.336 61.178 47.716 58.731 50.616 C 56.89 52.797 55.44 55.249 53.991 57.702 C 52.901 59.548 52.124 61.59 50.623 63.188 C 49.301 64.596 48.098 66.112 46.604 67.368 C 45.902 67.957 45.176 68.587 44.637 69.431 C 47.002 69.67 49.071 70.402 50.63 72.119 C 52.184 73.829 52.972 75.883 52.788 78.323 C 53.06 78.19 53.213 78.135 53.345 78.049 C 55.462 76.7 57.305 75.012 58.924 73.126 C 59.864 72.029 60.899 70.88 60.913 69.231 C 60.936 66.316 61.271 63.438 61.9 60.584 C 62.404 58.293 62.953 56.027 63.844 53.85 C 64.03 53.398 64.222 53.169 64.751 53.353 C 65.255 53.53 65.375 53.822 65.194 54.295 C 64.607 55.828 64.217 57.415 63.819 59.006 C 63.079 61.96 62.505 64.939 62.406 67.983 C 62.263 72.373 62.565 76.74 63.427 81.05 C 63.621 82.02 63.789 83.067 65.045 83.556 C 66.674 84.188 68.331 84.712 70.029 84.998 C 72.26 85.374 74.505 85.724 76.771 85.877 C 81.757 86.212 86.742 86.286 91.721 85.746 C 93.32 85.572 93.322 85.593 93.299 83.986 C 93.297 83.825 93.337 83.662 93.322 83.503 C 93.216 82.415 93.591 81.295 93.053 80.229 C 92.874 79.874 92.849 79.495 92.363 79.334 C 91.736 79.127 91.405 78.495 91.282 77.951 C 90.598 74.934 91.282 72.213 93.508 70.042 C 94.143 69.422 94.394 68.999 94.2 68.123 C 93.715 65.941 93.896 63.697 93.747 61.483 C 93.655 60.127 93.811 58.765 93.931 57.409 C 94.103 55.455 94.385 53.517 94.666 51.578 C 94.918 49.831 95.347 48.128 96.056 46.363 C 95.83 46.487 95.736 46.535 95.646 46.592 C 93.486 47.952 91.358 49.395 88.901 50.16 C 87.631 50.554 87.241 51.392 87.095 52.545 C 86.835 54.597 86.256 56.607 86.231 58.688 C 86.217 59.701 85.766 60.703 86.367 61.751 C 86.722 62.37 86.32 63.063 85.723 63.463 C 85.406 63.674 85 63.81 84.603 63.476 C 84.016 62.984 83.748 62.416 84.096 61.682 C 84.443 60.95 84.55 60.175 84.608 59.381 C 84.728 57.77 84.897 56.171 85.245 54.585 C 85.488 53.479 85.798 52.364 85.783 51.158 C 85.572 51.201 85.42 51.248 85.262 51.263 C 84.693 51.319 84.064 51.351 83.938 50.634 C 83.807 49.894 84.433 49.72 84.983 49.659 C 87.458 49.383 89.631 48.287 91.773 47.146 C 94.715 45.576 97.439 43.591 100.574 42.387 C 101.666 41.967 102.782 41.4 103.993 42.244 C 104.519 42.611 105.005 42.206 105.307 41.738 C 105.826 40.932 106.247 40.078 106.521 39.147 C 107.145 37.03 106.397 35.435 104.489 34.356 C 102.615 33.296 100.551 33.208 98.526 32.941 C 97.515 32.809 96.525 33.079 96.036 34.356 Z M 37.026 131.784 C 37.539 131.558 37.58 131.56 37.726 131.329 C 38.635 129.885 40.081 129.233 41.622 128.834 C 44.635 128.058 47.476 128.536 50.115 130.22 C 50.535 130.488 50.937 131.177 51.428 130.891 C 51.904 130.614 52.073 129.911 52.29 129.35 C 52.31 129.299 52.305 129.238 52.332 129.191 C 52.541 128.836 52.453 128.712 52.04 128.586 C 51.205 128.33 50.346 128.166 49.525 127.848 C 48.226 127.343 47.997 126.977 48.571 125.711 C 49.271 124.168 50.008 122.639 50.794 121.138 C 51.204 120.356 51.829 119.779 52.831 119.882 C 53.131 119.912 53.317 119.816 53.455 119.492 C 53.891 118.477 54.425 117.502 54.843 116.48 C 55.52 114.829 56.411 113.288 57.22 111.706 C 57.432 111.291 57.459 110.989 57.071 110.629 C 56.484 110.085 55.842 109.639 55.163 109.221 C 52.491 107.572 49.581 107.116 46.504 107.424 C 46.207 107.454 46.065 107.62 45.92 107.819 C 45.214 108.79 44.351 109.475 43.175 109.899 C 40.116 111.002 37.189 110.905 34.332 109.319 C 33.951 109.106 33.702 109.043 33.461 109.583 C 32.234 112.353 30.295 114.511 27.826 116.279 C 25.345 118.057 22.659 118.696 19.675 118.29 C 19.016 118.2 18.355 118.135 17.655 118.054 C 18.182 120.059 18.783 121.914 19.796 123.626 C 21.299 126.164 23.182 128.299 25.809 129.717 C 26.231 129.944 26.499 130.082 26.632 129.402 C 26.746 128.815 26.846 128.224 26.975 127.642 C 27.062 127.25 27.259 126.741 27.768 126.875 C 28.2 126.988 28.37 127.378 28.284 127.919 C 27.811 130.91 26.806 133.743 25.827 136.589 C 25.064 138.81 23.912 140.76 22.135 142.32 C 21.506 142.873 21.01 143.521 20.73 144.321 C 20.412 145.228 20.818 146.222 21.634 146.594 C 22.045 146.781 22.269 146.829 22.279 146.232 C 22.298 145.054 22.991 144.13 23.567 143.175 C 23.8 142.787 24.16 142.82 24.49 143.052 C 24.812 143.278 24.993 143.551 24.653 143.929 C 24.228 144.404 23.993 144.996 23.724 145.558 C 23.183 146.693 23.427 147.212 24.53 147.141 C 25.038 147.108 25.567 147.106 26.083 146.98 C 27.514 146.628 28.468 145.731 29.323 144.561 C 31.63 141.401 33.393 137.993 34.559 134.254 C 35.385 131.605 36.331 128.994 37.212 126.363 C 37.406 125.786 37.804 125.928 38.184 126.064 C 38.56 126.197 38.706 126.384 38.542 126.867 C 37.995 128.475 37.535 130.11 37.028 131.785 Z M 60.84 73.253 C 60.762 73.321 60.7 73.361 60.657 73.416 C 58.667 75.936 56.348 78.062 53.466 79.549 C 53.178 79.698 52.658 79.812 52.634 80.262 C 52.562 81.537 51.721 82.42 51.034 83.344 C 49.5 85.412 47.236 85.776 45.182 84.364 C 44.862 84.143 44.668 84.245 44.489 84.483 C 44.059 85.054 43.504 85.492 42.994 85.983 C 40.957 87.954 38.958 89.964 36.928 91.943 C 36.623 92.24 36.512 92.419 36.857 92.777 C 38.098 94.068 38.686 95.75 39.539 97.278 C 40.3 98.641 41.125 99.869 42.953 100.259 C 45.585 100.821 47.272 102.364 46.982 105.31 C 46.944 105.689 46.985 105.862 47.514 105.824 C 49.754 105.661 51.96 105.933 54.012 106.875 C 54.619 107.154 54.685 106.968 54.84 106.517 C 55.266 105.275 55.412 103.986 55.239 102.707 C 55.019 101.058 54.631 99.461 53.509 98.105 C 52.879 97.344 52.084 96.739 51.564 95.874 C 50.802 94.61 51.55 92.867 52.992 92.724 C 53.924 92.633 54.86 92.766 55.742 93.078 C 58.514 94.058 60.287 95.992 61.229 98.769 C 61.765 100.35 61.911 101.984 62.107 103.817 C 63.535 101.153 65.35 98.978 66.965 96.666 C 68.868 93.945 70.89 91.308 72.645 88.486 C 72.902 88.073 73.262 87.534 72.697 87.209 C 72.358 87.015 72.031 87.546 71.816 87.852 C 70.522 89.685 69.25 91.533 67.979 93.381 C 67.843 93.58 67.704 93.723 67.448 93.685 C 67.199 93.648 67.073 93.494 67.009 93.257 C 66.28 90.623 65.093 88.136 64.496 85.457 C 64.428 85.154 64.28 84.694 64.068 84.626 C 62.424 84.102 62.198 82.647 61.914 81.315 C 61.352 78.676 61.165 75.979 60.836 73.252 Z M 117.182 74.124 C 115.08 75.982 112.667 77.238 110.32 78.593 C 109.596 79.011 108.852 79.301 108.352 80.094 C 107.574 81.328 106.259 81.816 104.854 81.899 C 104.212 81.937 103.786 82.178 103.402 82.617 C 102.588 83.553 101.561 84.153 100.4 84.56 C 99.138 85.003 97.476 84.311 96.898 83.029 C 96.794 82.795 96.696 82.728 96.494 82.755 C 95.893 82.835 95.333 82.622 94.754 82.475 C 94.584 85.064 94.745 87.585 95.059 90.094 C 95.364 92.525 95.772 94.942 96.266 97.344 C 96.394 97.966 96.603 98.568 96.636 99.232 C 96.665 99.822 96.97 100.456 97.316 100.957 C 97.55 101.295 98.131 101.093 98.547 101.204 C 98.788 101.269 99.08 101.118 99.337 101.153 C 101.367 101.428 103.371 101.247 105.4 101.01 C 108.293 100.67 111.099 99.968 113.843 99.081 C 115.673 98.489 117.499 97.818 119.231 96.904 C 120.427 96.274 121.085 95.549 121.069 94.169 C 121.049 92.535 120.924 90.915 120.768 89.289 C 120.515 86.637 119.959 84.049 119.363 81.459 C 118.799 79.008 117.993 76.632 117.185 74.119 Z M 74.924 18.064 C 74.218 18.064 73.513 18.06 72.806 18.064 C 71.832 18.07 71.554 18.301 71.373 19.256 C 70.782 22.36 70.122 25.449 69.631 28.571 C 69.228 31.127 68.92 33.67 69.414 36.241 C 69.704 37.75 70.354 39.124 71.461 40.167 C 73.196 41.804 75.382 42.562 77.726 42.612 C 81.261 42.688 84.338 41.541 86.611 38.689 C 86.891 38.337 87.126 38.23 87.498 38.488 C 87.906 38.772 87.886 39.162 87.654 39.5 C 86.682 40.92 85.468 42.065 83.88 42.801 C 82.148 43.606 80.337 44.024 78.438 44.107 C 78.161 44.118 77.892 44.095 78.083 44.573 C 78.647 45.986 79.445 47.227 80.525 48.3 C 80.876 48.649 81.11 48.635 81.473 48.295 C 83.252 46.628 85.232 45.225 87.281 43.909 C 88.981 42.816 90.88 42.123 92.66 41.187 C 93.047 40.985 93.022 40.909 92.808 40.555 C 91.876 39.019 91.179 37.387 91.229 35.539 C 91.242 35.046 91.056 34.705 90.709 34.388 C 90.466 34.166 90.114 33.972 90.497 33.524 C 90.864 33.094 91.23 33.117 91.552 33.449 C 91.877 33.784 92.214 33.768 92.607 33.716 C 94.986 33.406 96.676 31.873 96.981 29.521 C 97.131 28.378 96.875 27.219 95.923 26.393 C 94.946 25.548 93.816 25.555 92.669 25.955 C 91.897 26.223 91.275 26.714 90.874 27.444 C 90.676 27.802 90.394 27.97 89.99 27.884 C 89.6 27.801 89.547 27.497 89.595 27.179 C 89.646 26.844 89.432 26.704 89.228 26.509 C 87.664 25.011 87.234 23.035 87.151 21.01 C 87.095 19.611 87.16 19.533 85.874 19.281 C 82.26 18.57 78.624 18.072 74.928 18.062 Z M 105.667 63.752 C 105.435 63.556 105.23 63.375 105.018 63.206 C 103.754 62.201 102.346 61.377 101.248 60.167 C 100.946 59.834 100.738 59.449 101.12 59.086 C 101.467 58.754 101.837 58.863 102.223 59.167 C 103.547 60.212 104.944 61.169 106.222 62.266 C 106.737 62.707 106.936 62.543 107.307 62.186 C 108.274 61.255 109.27 60.351 110.27 59.454 C 110.577 59.18 110.957 59.054 111.298 59.409 C 111.599 59.721 111.557 60.073 111.257 60.361 C 109.829 61.735 108.43 63.14 106.914 64.42 C 105.532 65.588 104.212 66.831 102.8 67.854 C 107.337 69.374 109.568 72.525 109.79 77.233 C 111.302 76.485 112.735 75.483 114.193 74.527 C 115.684 73.549 116.767 72.137 117.985 70.866 C 119.654 69.125 120.803 67.069 121.367 64.762 C 121.981 62.244 121.575 59.779 120.369 57.46 C 119.259 55.329 117.962 53.303 116.202 51.678 C 114.659 50.253 113.116 48.816 111.336 47.642 C 109.319 46.31 107.394 44.86 105.055 44.104 C 104.532 43.934 104.021 43.893 103.519 44.009 C 103.099 44.107 103.378 44.57 103.252 44.862 C 102.814 45.882 102.424 46.933 102.142 48.007 C 101.497 50.472 101.193 52.998 101.007 55.534 C 100.81 58.223 100.647 60.915 100.526 63.608 C 100.471 64.842 100.498 66.084 100.689 67.356 C 102.44 66.343 104.048 65.089 105.667 63.752 Z M 15.176 116.309 C 15.319 116.387 15.404 116.334 15.51 116.301 C 17.227 115.753 18.973 115.319 20.717 114.867 C 22.165 114.493 23.693 114.252 24.986 113.474 C 27.516 111.953 29.115 109.602 30.462 107.043 C 30.699 106.592 30.731 106.202 30.479 105.842 C 29.679 104.696 29.371 103.357 28.896 102.08 C 28.394 100.726 27.654 99.52 26.589 98.518 C 24.716 96.758 24.504 95.687 25.555 93.36 C 25.794 92.83 25.741 92.553 25.124 92.368 C 23.512 91.88 21.868 91.696 20.191 91.653 C 18.134 91.601 16.215 92.031 14.568 93.285 C 13.501 94.096 12.809 95.139 12.623 96.573 C 12.474 97.721 12.23 98.928 11.21 99.772 C 10.588 100.287 9.918 100.482 9.14 100.512 C 8.769 100.527 8.379 100.562 8.767 101.174 C 9.206 101.868 9.386 102.664 9.16 103.528 C 8.669 105.394 6.818 105.852 5.272 105.872 C 3.991 105.888 2.737 105.703 1.559 104.888 C 1.563 107 1.936 108.831 3.399 110.259 C 4.441 111.275 5.673 111.848 7.179 111.507 C 7.533 111.427 7.821 111.324 7.397 110.893 C 6.886 110.374 6.592 109.72 6.634 108.974 C 6.657 108.547 6.798 108.12 7.327 108.108 C 7.773 108.098 7.956 108.372 8.052 108.829 C 8.282 109.936 8.905 110.701 10.032 111.12 C 11.665 111.726 13.202 111.402 14.74 110.873 C 15.9 110.473 16.845 109.712 17.733 108.893 C 17.915 108.725 18.383 108.38 17.9 108.159 C 17.434 107.945 17.391 107.665 17.51 107.323 C 17.665 106.889 17.98 106.58 18.507 106.608 C 19.282 106.648 19.942 106.983 20.511 107.466 C 21 107.881 20.805 108.445 20.148 108.601 C 19.554 108.742 19.204 109.103 19.138 109.7 C 19.076 110.258 18.824 110.732 18.585 111.221 C 17.679 113.069 16.472 114.715 15.176 116.309 Z M 111.872 139.063 C 112.677 139.237 113.427 138.966 114.19 138.89 C 115.268 138.781 116.185 138.258 116.741 137.286 C 117.23 136.433 117.663 135.548 118.094 134.663 C 119.202 132.388 119.82 129.958 120.47 127.519 C 121.231 124.656 121.631 121.761 121.881 118.829 C 121.906 118.54 121.843 118.329 121.594 118.213 C 120.561 117.729 119.556 117.181 118.459 116.841 C 118.053 116.715 117.874 116.76 117.895 117.261 C 117.95 118.509 117.673 119.714 117.268 120.881 C 116.865 122.043 116.27 123.107 115.313 123.931 C 114.027 125.038 112.576 124.963 111.063 124.585 C 110.041 124.329 109.684 124.659 109.819 125.688 C 110.021 127.234 110.383 127.566 111.925 127.662 C 112.801 127.716 113.674 127.806 114.45 128.272 C 114.707 128.426 114.89 128.67 114.752 128.961 C 114.616 129.246 114.326 129.427 114.005 129.256 C 113.307 128.883 112.521 128.982 111.794 128.793 C 110.958 128.574 110.522 128.771 110.29 129.671 C 110.154 130.198 110.242 130.332 110.703 130.44 C 111.574 130.646 112.461 130.784 113.299 131.12 C 113.709 131.285 114.118 131.447 113.941 131.98 C 113.768 132.497 113.349 132.331 112.967 132.227 C 112.018 131.968 111.068 131.714 110.112 131.477 C 109.912 131.427 109.61 131.145 109.502 131.552 C 109.361 132.086 108.804 132.422 108.845 133.021 C 108.848 133.078 109.008 133.142 109.104 133.172 C 109.776 133.385 110.446 133.608 111.129 133.786 C 111.358 133.846 111.509 134.04 111.708 134.076 C 112.317 134.186 112.262 134.542 112.131 134.984 C 111.968 135.533 111.539 135.332 111.25 135.251 C 110.179 134.95 109.134 134.476 108.011 134.473 C 105.504 134.466 103.913 136.254 103.208 138.338 C 103.082 138.709 103.346 138.713 103.593 138.796 C 104.481 139.092 105.408 139.17 106.324 139.248 C 108.183 139.408 110.041 139.268 111.872 139.064 Z M 100.87 69.317 C 99.838 69.314 98.839 69.481 97.837 69.656 C 95.802 70.009 94.103 70.815 93.173 72.812 C 92.469 74.322 92.128 75.841 92.718 77.472 C 92.81 77.724 92.97 77.974 93.166 78.009 C 93.385 78.047 93.463 77.721 93.539 77.526 C 94.11 76.08 95.092 74.957 96.273 73.982 C 96.587 73.723 96.857 73.579 97.174 73.962 C 97.484 74.338 97.306 74.522 96.995 74.828 C 95.767 76.03 94.795 77.399 94.55 79.169 C 94.385 80.35 94.745 80.96 95.807 81.234 C 96.66 81.453 96.888 81.275 97.37 79.963 C 97.88 78.573 98.992 77.717 100.111 76.875 C 100.387 76.667 100.704 76.783 100.921 77.042 C 101.122 77.281 101.153 77.518 100.866 77.752 C 99.592 78.789 98.743 80.059 98.426 81.722 C 98.267 82.558 98.244 82.869 99.065 83.077 C 100.437 83.423 101.483 82.66 102.309 81.776 C 103.009 81.027 103.716 80.564 104.728 80.423 C 106.735 80.142 107.831 79.086 108.201 77.07 C 108.424 75.859 108.057 74.75 107.515 73.64 C 106.148 70.837 103.99 69.354 100.865 69.322 Z M 39.906 133.463 C 39.63 133.463 39.35 133.489 39.078 133.458 C 38.393 133.378 38.139 133.66 38.041 134.352 C 37.782 136.16 38.628 137.512 39.746 138.742 C 41.43 140.592 43.371 142.166 45.429 143.568 C 48.78 145.849 52.061 148.305 56.286 148.803 C 57.501 148.946 58.688 148.904 59.871 148.611 C 60.155 148.541 60.44 148.4 60.505 148.143 C 60.583 147.834 60.206 147.828 60.02 147.698 C 58.494 146.632 57.028 145.492 55.689 144.192 C 54.317 142.858 53.096 141.397 51.861 139.942 C 50.738 138.62 49.336 137.58 47.971 136.515 C 45.6 134.662 42.946 133.549 39.904 133.466 Z M 50.004 126.404 C 51.741 126.771 53.405 127.357 55.052 127.997 C 56.271 128.471 57.411 129.125 58.617 129.609 C 59.756 130.067 60.846 130.575 61.909 131.197 C 63.406 132.069 64.688 133.234 66.161 134.126 C 67.143 134.72 67.966 135.514 68.852 136.226 C 69.336 136.616 69.513 136.586 69.832 136.093 C 70.655 134.819 70.965 133.31 71.728 132.028 C 72.118 131.374 71.93 130.998 71.487 130.631 C 70.306 129.652 69.15 128.632 67.888 127.768 C 63.781 124.95 59.305 122.921 54.455 121.742 C 52.794 121.338 52.363 121.39 51.907 122.342 C 51.263 123.684 50.411 124.93 50.004 126.404 Z M 41.307 82.524 C 41.251 82.342 41.203 82.163 41.138 81.989 C 40.408 80.034 40.705 78.177 41.719 76.415 C 41.861 76.168 41.979 75.549 42.545 75.944 C 42.955 76.229 43.087 76.606 42.784 77.057 C 41.986 78.243 42.085 79.587 42.193 80.895 C 42.304 82.257 43.668 83.146 44.847 82.148 C 45.711 81.416 46.324 80.466 46.373 79.296 C 46.395 78.809 46.178 78.311 46.08 77.815 C 45.97 77.264 46.146 76.792 46.692 76.647 C 47.274 76.493 47.485 76.944 47.639 77.43 C 47.744 77.76 47.722 78.12 48.191 78.326 C 49.6 78.943 49.56 79.124 48.578 80.375 C 47.868 81.279 46.866 81.921 46.327 82.967 C 46.246 83.123 45.992 83.259 46.267 83.432 C 46.732 83.724 47.239 84.035 47.797 83.855 C 49.459 83.314 51.351 80.97 51.477 79.099 C 51.594 77.364 51.23 75.785 50.376 74.315 C 49.197 72.288 47.312 71.241 45.056 71.041 C 43.009 70.86 41.098 71.43 39.25 72.446 C 37.237 73.552 35.93 75.017 35.56 77.311 C 35.329 78.737 36.089 80.683 37.235 81.338 C 37.217 81.164 37.214 80.997 37.18 80.837 C 36.789 78.991 37.209 77.279 38.001 75.615 C 38.182 75.236 38.473 75.128 38.796 75.254 C 39.086 75.367 39.284 75.683 39.118 75.997 C 38.645 76.893 38.594 77.89 38.413 78.847 C 38.093 80.545 38.837 82.725 41.302 82.526 Z M 74.576 10.312 C 77.907 10.327 81.019 10.777 84.146 11.123 C 86.788 11.417 89.367 11.91 91.841 12.837 C 93.722 13.542 95.616 14.252 97.394 15.211 C 97.887 15.476 97.912 15.138 97.862 14.811 C 97.6 13.086 97.471 11.326 96.638 9.738 C 95.808 8.159 95.075 6.497 93.237 5.792 C 92.556 5.532 91.869 5.273 91.167 5.072 C 89.251 4.525 87.334 4.276 85.386 4.991 C 81.659 6.356 77.879 7.603 74.574 10.311 Z M 17.91 123.274 C 17.245 125.198 16.301 126.756 15.281 128.267 C 13.695 130.614 11.673 132.542 9.414 134.229 C 8.465 134.937 7.551 135.692 6.771 136.581 C 5.978 137.488 5.827 138.631 6.289 139.482 C 6.415 139.716 6.557 139.915 6.838 139.912 C 7.168 139.907 7.038 139.603 7.125 139.433 C 7.604 138.487 8.057 137.538 8.951 136.855 C 9.417 136.498 9.721 136.618 10.009 136.924 C 10.366 137.304 10.15 137.565 9.757 137.832 C 8.999 138.344 8.677 139.182 8.372 140 C 8.233 140.373 8.349 140.615 8.84 140.597 C 9.502 140.572 10.152 140.547 10.799 140.358 C 13.111 139.681 15.044 138.373 16.814 136.795 C 18.856 134.975 20.494 132.811 22.125 130.629 C 22.702 129.858 22.769 129.533 21.967 128.82 C 20.297 127.332 18.995 125.499 17.908 123.274 Z M 112.67 112.469 C 112.708 112.323 112.599 112.275 112.521 112.2 C 111.323 111.077 109.958 110.196 108.53 109.403 C 108.288 109.269 108.137 109.296 107.997 109.525 C 106.984 111.197 106.022 112.902 105.07 114.604 C 104.187 116.178 103.358 117.787 102.354 119.285 C 101.006 121.297 99.584 123.259 98.157 125.218 C 97.812 125.693 97.933 125.867 98.366 126.167 C 99.609 127.028 100.997 127.587 102.349 128.226 C 102.804 128.44 103.127 128.232 103.315 127.871 C 104.268 126.029 105.541 124.391 106.664 122.66 C 108.757 119.437 110.731 116.153 112.524 112.756 C 112.574 112.661 112.62 112.565 112.67 112.469 Z M 39.116 131.915 C 40.888 132.066 42.536 132.008 44.094 132.623 C 48.112 134.212 51.308 136.875 54.039 140.159 C 56.049 142.578 58.235 144.795 60.969 146.421 C 61.39 146.671 61.472 146.676 61.583 146.19 C 61.87 144.95 62.21 143.72 62.543 142.49 C 62.882 141.236 62.888 141.237 61.695 140.74 C 60.5 140.24 59.532 139.393 58.472 138.688 C 57.56 138.081 57.31 137.377 57.27 136.455 C 57.245 135.866 56.968 135.403 56.658 134.954 C 55.928 133.899 54.73 133.456 53.708 132.789 C 53.337 132.545 52.995 132.147 52.401 132.207 C 53.458 133.794 54.271 135.415 54.772 137.188 C 54.924 137.729 54.704 138.074 54.246 138.225 C 53.795 138.374 53.544 138.094 53.44 137.646 C 53.086 136.108 52.383 134.702 51.446 133.472 C 49.283 130.638 46.26 129.694 42.828 130.052 C 41.467 130.193 40.123 130.641 39.111 131.918 Z M 95.289 68.836 C 96.47 68.501 97.476 68.129 98.531 68.022 C 99.075 67.965 99.09 67.764 99.078 67.288 C 99.027 65.197 98.911 63.092 99.073 61.011 C 99.271 58.483 99.322 55.944 99.665 53.423 C 99.879 51.848 100.029 50.272 100.471 48.74 C 100.982 46.971 101.455 45.192 102.346 43.458 C 100.72 43.73 99.471 44.624 98.093 45.2 C 97.927 45.268 97.804 45.533 97.739 45.731 C 97.396 46.779 97.026 47.822 96.761 48.889 C 96.041 51.774 95.707 54.738 95.485 57.679 C 95.24 60.925 95.172 64.216 95.711 67.469 C 95.787 67.925 95.802 68.386 95.291 68.836 Z M 102.877 139.756 C 102.953 141.319 103.29 141.833 104.572 142.244 C 106.12 142.74 107.745 142.783 109.346 142.866 C 111.088 142.956 112.829 142.74 114.561 142.551 C 117.252 142.257 119.362 141.053 120.768 138.66 C 122.042 136.49 122.878 134.159 123.61 131.771 C 124.429 129.098 124.949 126.355 125.191 123.591 C 125.438 120.756 125.443 120.25 123.265 119.137 C 123.499 121.428 122.844 123.609 122.482 125.819 C 122.228 127.37 121.677 128.858 121.259 130.376 C 120.515 133.076 119.365 135.597 118.011 138.032 C 117.469 139.008 116.699 139.771 115.57 140.068 C 113.65 140.572 111.675 140.625 109.713 140.746 C 107.402 140.887 105.104 140.829 102.877 139.758 Z M 58.346 109.528 C 58.682 109.311 58.819 108.919 58.974 108.591 C 59.425 107.634 60.314 106.857 60.39 105.761 C 60.505 104.11 60.597 102.45 60.241 100.801 C 59.707 98.333 58.716 96.168 56.321 94.993 C 55.256 94.471 54.141 93.935 52.874 94.332 C 52.586 94.421 52.285 94.511 52.572 94.877 C 52.839 95.219 53.12 95.571 53.458 95.836 C 55.198 97.201 56.094 99.101 56.548 101.154 C 57.005 103.21 57.008 105.319 56.069 107.307 C 55.969 107.517 55.838 107.741 56.092 107.882 C 56.913 108.34 57.486 109.133 58.346 109.525 Z M 116.563 116.986 C 116.751 116.485 116.533 116.102 115.87 115.845 C 115.21 115.589 114.584 115.226 113.974 114.858 C 113.407 114.516 113.082 114.703 112.851 115.244 C 112.552 115.944 112.139 116.588 111.803 117.264 C 111.048 118.784 109.913 120.069 109.21 121.612 C 109.144 121.756 108.875 122.01 109.137 122.092 C 109.912 122.33 110.27 123.392 111.28 123.147 C 111.456 123.103 111.667 123.163 111.852 123.211 C 113.254 123.574 114.173 123.246 115.002 122.075 C 116.049 120.597 116.507 118.935 116.563 116.984 Z M 16.376 111.704 C 15.307 112.053 14.442 112.384 13.549 112.612 C 12.781 112.807 12.249 113.258 11.787 113.861 C 11.544 114.179 11.505 114.569 11.338 114.911 C 11.179 115.232 10.943 115.337 10.595 115.226 C 10.193 115.098 10.188 114.808 10.319 114.509 C 10.472 114.159 10.696 113.841 10.855 113.494 C 10.938 113.315 11.351 113.109 10.99 112.932 C 10.653 112.767 10.25 112.381 9.833 112.769 C 8.319 114.179 7.448 115.931 7.246 117.981 C 7.186 118.582 7.292 119.195 7.929 119.598 C 9.41 120.534 11.116 120.229 12.025 118.724 C 13.421 116.413 14.606 113.973 16.376 111.706 Z M 59.876 131.782 C 59.609 131.761 59.584 131.981 59.511 132.145 C 59.259 132.721 59.096 133.358 58.745 133.864 C 57.947 135.015 58.405 136.264 58.978 137.041 C 59.836 138.203 61.108 139.122 62.664 139.441 C 63.109 139.532 63.291 139.431 63.437 139.038 C 63.822 138.004 64.268 136.991 64.617 135.946 C 64.761 135.511 64.662 135.075 64.197 134.753 C 63.185 134.053 62.221 133.283 61.218 132.572 C 60.797 132.273 60.327 132.044 59.874 131.781 Z M 86.542 12.978 C 86.161 12.943 85.806 12.858 85.627 13.373 C 85.204 14.584 84.751 15.786 84.273 16.977 C 84.141 17.309 84.187 17.42 84.527 17.455 C 85.567 17.564 86.543 17.926 87.539 18.213 C 88.06 18.364 88.687 18.578 89.024 17.787 C 89.502 16.664 90.125 15.604 90.444 14.411 C 90.487 14.25 90.62 14.066 90.383 14.02 C 89.077 13.759 87.881 13.096 86.544 12.978 Z M 77.209 16.591 C 77.948 16.816 78.33 16.534 78.512 15.773 C 78.786 14.64 78.979 13.467 79.63 12.454 C 79.927 11.993 79.509 12.021 79.269 12.006 C 78.29 11.94 77.308 11.895 76.328 11.852 C 75.843 11.83 75.522 12.003 75.316 12.502 C 74.828 13.693 74.316 14.871 73.969 16.116 C 73.853 16.529 73.964 16.597 74.319 16.596 C 75.281 16.591 76.245 16.594 77.207 16.594 Z M 83.066 17.135 C 83.255 17.1 83.534 17.334 83.58 16.939 C 83.739 15.615 84.489 14.487 84.829 13.222 C 84.929 12.854 85.003 12.683 84.522 12.645 C 83.461 12.562 82.404 12.414 81.341 12.334 C 81.019 12.309 80.649 12.208 80.455 12.699 C 80.002 13.846 79.665 15.025 79.337 16.208 C 79.229 16.594 79.335 16.787 79.813 16.815 C 80.903 16.878 81.988 17.024 83.066 17.137 Z M 94.706 16.183 C 94.72 15.828 94.657 15.723 94.477 15.63 C 93.647 15.209 92.803 14.829 91.929 14.512 C 91.6 14.393 91.424 14.524 91.317 14.839 C 90.889 16.078 90.391 17.286 89.658 18.386 C 89.555 18.538 89.431 18.882 89.756 18.92 C 90.968 19.066 92.015 19.696 93.161 20.031 C 93.332 20.081 93.478 20.144 93.549 19.915 C 93.952 18.618 94.354 17.319 94.706 16.183 Z M 74.526 11.891 C 73.72 11.714 72.979 11.86 72.25 11.79 C 71.766 11.744 71.434 11.935 71.109 12.286 C 70.623 12.812 70.479 13.489 70.207 14.104 C 69.88 14.844 69.769 15.7 70.242 16.377 C 70.615 16.913 71.285 16.586 71.837 16.488 C 72.078 16.445 72.332 16.475 72.579 16.473 C 72.811 16.471 72.964 16.442 73.023 16.135 C 73.305 14.663 73.881 13.285 74.526 11.89 Z M 98.494 18.213 C 98.562 17.983 98.38 17.878 98.254 17.735 C 97.698 17.105 96.9 16.868 96.197 16.481 C 95.842 16.286 95.541 16.374 95.417 16.826 C 95.105 17.953 94.775 19.076 94.455 20.199 C 94.399 20.396 94.395 20.549 94.634 20.665 C 95.269 20.975 95.855 21.375 96.522 21.637 C 96.945 21.803 97.154 21.716 97.394 21.353 C 98.031 20.394 98.177 19.275 98.496 18.21 Z M 57.514 133.612 C 57.773 132.867 58.008 132.174 58.259 131.485 C 58.33 131.29 58.383 131.147 58.133 131.037 C 56.887 130.49 55.663 129.889 54.395 129.395 C 53.695 129.121 53.568 129.833 53.33 130.251 C 53.098 130.661 53.254 130.838 53.709 131.061 C 55.047 131.716 56.238 132.622 57.514 133.612 Z" fill="rgb(0,0,0)"></path><path d="M 68.707 78.114 C 68.576 78.847 68.838 79.594 68.942 80.348 C 69.017 80.891 68.949 81.251 68.403 81.324 C 67.901 81.392 67.652 81.06 67.521 80.577 C 67.247 79.562 67.318 78.525 67.313 77.503 C 67.303 75.208 67.786 72.992 68.624 70.857 C 69.178 69.443 69.845 68.859 71.656 69.107 C 73.678 69.384 75.748 69.365 77.797 69.364 C 81.159 69.364 84.51 69.727 87.874 69.662 C 88.778 69.644 89.128 69.979 89.176 70.863 C 89.282 72.796 89.478 74.718 90.087 76.563 C 90.5 77.814 90.648 79.171 91.467 80.272 C 91.665 80.537 91.513 80.753 91.351 80.936 C 91.174 81.136 90.976 81.359 90.646 81.201 C 90.266 81.018 89.963 80.791 89.782 80.37 C 89.316 79.287 88.891 78.202 88.689 77.026 C 88.375 75.203 87.728 73.436 87.801 71.548 C 87.818 71.104 87.473 71.134 87.164 71.127 C 84.266 71.077 81.368 71.069 78.474 70.956 C 76.108 70.865 73.725 70.966 71.386 70.513 C 70.537 70.349 70.171 70.731 69.931 71.426 C 69.188 73.577 68.742 75.782 68.707 78.111 Z" fill="rgb(0,0,0)"></path><path d="M 100.361 87.032 C 100.326 86.584 100.566 86.181 100.94 86.163 C 101.3 86.144 101.658 86.393 101.706 86.936 C 101.935 89.484 102.452 91.98 103.161 94.438 C 103.322 94.997 103.579 95.502 103.844 96.011 C 104.055 96.414 104.232 96.854 103.655 97.106 C 103.106 97.345 102.811 96.933 102.656 96.533 C 102.068 95.011 101.389 93.513 101.072 91.897 C 100.756 90.288 100.525 88.664 100.361 87.032 Z" fill="rgb(0,0,0)"></path><path d="M 75.034 31.118 C 75.475 31.137 75.949 31.042 76.379 30.755 C 76.736 30.516 77.104 30.435 77.368 30.878 C 77.597 31.263 77.598 31.664 77.26 31.996 C 76.236 32.999 73.912 32.935 72.944 31.887 C 72.406 31.306 72.353 30.239 72.834 29.342 C 73.275 28.519 73.818 27.771 74.47 27.094 C 75.06 26.48 75.599 25.817 76.152 25.168 C 76.372 24.908 76.624 24.76 76.94 24.948 C 77.233 25.122 77.308 25.406 77.207 25.739 C 76.895 26.767 76.203 27.55 75.483 28.29 C 74.997 28.79 74.597 29.343 74.243 29.921 C 73.647 30.89 73.82 31.128 75.032 31.122 Z" fill="rgb(0,0,0)"></path><path d="M 81.317 33.17 C 81.242 32.498 81.391 32.012 82.056 31.835 C 82.157 31.808 82.269 31.773 82.368 31.787 C 82.783 31.845 83.813 33.417 83.71 33.82 C 83.629 34.142 83.425 34.48 83.108 34.353 C 82.561 34.132 82.484 34.462 82.227 34.797 C 80.525 37.02 76.73 38.088 74.507 36.488 C 74.353 36.377 74.21 36.247 74.068 36.121 C 73.693 35.784 73.799 35.419 74.064 35.102 C 74.343 34.769 74.656 34.799 74.992 35.091 C 76.236 36.177 78.034 35.968 79.349 35.214 C 79.945 34.872 80.492 34.472 80.983 33.989 C 81.237 33.741 81.582 33.543 81.317 33.17 Z" fill="rgb(0,0,0)"></path><path d="M 81.791 20.618 C 82.7 20.703 83.525 20.942 84.15 21.62 C 84.4 21.89 84.492 22.244 84.454 22.609 C 84.399 23.136 84.163 23.375 83.636 23.053 C 83.518 22.982 83.379 22.934 83.287 22.837 C 82.377 21.87 81.347 22.008 80.263 22.476 C 79.923 22.623 79.542 23.08 79.207 22.507 C 78.883 21.955 79.197 21.62 79.661 21.293 C 80.32 20.83 81.051 20.696 81.793 20.62 Z" fill="rgb(0,0,0)"></path><path d="M 73.549 20.119 C 74.401 19.931 75.037 20.509 75.712 20.879 C 76.13 21.108 76.345 21.602 76.038 22.093 C 75.68 22.669 75.202 22.398 74.837 22.124 C 74 21.497 73.116 21.532 72.207 21.852 C 71.81 21.992 71.399 22.105 71.216 21.673 C 71.045 21.268 71.286 20.86 71.657 20.625 C 72.22 20.268 72.832 20.034 73.547 20.119 Z" fill="rgb(0,0,0)"></path><path d="M 80.062 27.286 C 80.065 26.592 80.077 26.076 80.374 25.687 C 80.589 25.405 80.616 24.749 81.19 24.96 C 81.745 25.164 82.167 25.584 82.12 26.259 C 82.095 26.609 82.044 26.966 81.943 27.299 C 81.775 27.851 81.473 28.327 80.8 28.236 C 80.145 28.148 80.017 27.659 80.062 27.284 Z" fill="rgb(0,0,0)"></path><path d="M 72.014 25.996 C 72.001 25.23 72.393 24.714 72.703 24.178 C 72.859 23.907 73.164 23.894 73.439 24.012 C 73.844 24.186 73.992 24.556 73.985 24.949 C 73.978 25.326 73.891 25.706 73.803 26.076 C 73.686 26.568 73.535 27.114 72.892 27.051 C 72.258 26.988 71.925 26.575 72.011 25.996 Z" fill="rgb(0,0,0)"></path><path d="M 91.386 29.423 C 91.278 28.673 92.048 28.715 92.453 28.444 C 92.889 28.154 93.397 27.908 93.954 27.918 C 94.299 27.925 94.637 28.053 94.695 28.431 C 94.754 28.801 94.417 28.99 94.136 29.028 C 93.4 29.131 92.887 29.642 92.27 29.959 C 92.086 30.053 91.968 30.267 91.703 30.095 C 91.467 29.94 91.366 29.75 91.386 29.423 Z" fill="rgb(0,0,0)"></path><path d="M 13.329 99.809 C 13.411 99.252 13.586 98.57 14.066 98.021 C 14.303 97.749 14.618 97.507 14.995 97.771 C 15.341 98.013 15.595 98.31 15.325 98.796 C 15.03 99.329 15.114 100.012 14.611 100.483 C 14.325 100.753 14.063 100.939 13.676 100.793 C 13.278 100.644 13.316 100.291 13.329 99.809 Z" fill="rgb(0,0,0)"></path><path d="M 18.275 100.677 C 18.217 100.14 18.741 99.655 19.02 99.088 C 19.157 98.806 19.557 98.741 19.892 98.979 C 20.168 99.174 20.401 99.34 20.241 99.762 C 20.076 100.191 20.046 100.671 19.884 101.1 C 19.701 101.578 19.489 102.125 18.804 101.986 C 18.152 101.853 18.313 101.301 18.276 100.676 Z" fill="rgb(0,0,0)"></path></svg>