<svg width="139" height="172" viewBox="0 0 139 172" fill="none" xmlns="http://www.w3.org/2000/svg">
<path d="M136.421 141.595C135.65 141.169 134.928 140.651 134.186 140.171C132.732 139.233 131.323 138.212 129.816 137.372C128.37 136.564 126.823 135.944 125.294 135.228C125.436 134.85 125.56 134.548 125.668 134.238C126.148 132.849 126.044 132.523 124.81 131.673C123.675 130.893 122.526 130.131 121.392 129.347C121.095 129.141 120.836 128.877 120.338 128.449C120.966 128.409 121.28 128.357 121.591 128.375C125.186 128.569 128.779 128.765 132.372 128.981C133.082 129.025 133.613 128.829 133.777 128.086C133.897 127.538 133.924 126.968 133.983 126.406C134.357 122.839 134.729 119.273 135.097 115.704C135.301 113.724 135.498 111.743 135.687 109.763C135.77 108.897 135.52 108.281 134.548 108.126C133.908 108.024 133.296 107.738 132.657 107.654C131.925 107.558 131.655 107.14 131.419 106.484C130.597 104.19 130.085 101.637 128.722 99.7248C127.413 97.8884 126.607 96.0101 125.934 93.9376C125.65 93.0595 125.707 92.4373 126.119 91.6452C128.277 87.4904 130.463 83.3435 132.458 79.1067C134.483 74.8098 134.231 70.511 131.923 66.3401C129.523 62.0053 126.609 58.0605 123.317 54.3877C117.967 48.4146 111.35 44.7658 103.586 43.1795C102.572 42.9715 101.325 42.9054 100.646 42.2693C99.3888 41.0891 98.041 40.2449 96.5023 39.5388C96.0734 39.3407 95.9967 38.2405 95.8924 37.5344C95.8727 37.4084 96.4886 37.0903 96.8447 37.0123C100.868 36.1301 104.19 30.497 101.772 26.3101C101.211 25.3379 101.264 24.6638 101.65 23.6976C103.969 17.8785 103.727 12.2573 100.199 6.94427C99.9811 6.6142 99.7174 6.28413 99.6171 5.91206C99.2491 4.55779 98.3775 3.5996 97.3386 2.76143C96.5141 2.0973 95.6189 1.74523 94.5131 1.98128C94.0723 2.07529 93.5352 1.94327 93.0964 1.77123C90.5543 0.775034 87.961 0.0728941 85.2181 0.00488051C81.8181 -0.0771359 78.8353 0.865052 76.5391 3.55159C75.9645 4.22372 75.4077 4.91186 74.843 5.59C74.3944 5.43196 73.9713 5.25393 73.5345 5.13591C71.2442 4.51178 68.9815 3.68562 66.5397 4.22772C63.97 4.79784 62.1244 7.03629 62.4314 9.38876C62.7029 11.4692 63.8461 13.0015 65.6681 13.9737C66.6991 14.5258 67.7675 14.9999 68.8438 15.522C68.771 15.866 68.7159 16.1541 68.647 16.4402C67.2579 22.2213 66.1049 28.0365 66.3548 34.0337C66.4767 37.0103 67.2894 39.7848 69.0799 42.1873C69.7469 43.0815 70.5379 43.8816 71.3072 44.7638C71.3761 44.7058 71.3348 44.7618 71.2816 44.7818C70.8232 44.9579 70.3667 45.1359 69.9023 45.2919C65.5736 46.7642 62.0142 49.3547 59.0451 52.8614C56.3475 56.0461 54.0887 59.5348 52.0011 63.1435C50.8127 65.1999 49.7069 67.3083 48.5657 69.3947C48.3 69.8808 47.997 70.3189 47.3517 70.1569C43.7529 69.2547 40.1562 68.3405 36.5574 67.4444C35.7527 67.2443 35.369 66.7662 35.2667 65.928C35.003 63.7876 34.0546 62.0233 32.3231 60.733C31.8312 60.3689 31.3157 60.0369 30.7786 59.6688C31.2685 59.3147 31.725 58.9947 32.1716 58.6606C34.6055 56.8382 35.5028 54.4277 34.8909 51.4111C34.3812 48.9106 32.4864 46.9243 30.2611 46.8082C25.4897 46.5562 20.7143 46.3761 15.9389 46.1681C14.7977 46.1181 13.6427 45.9581 12.5133 46.0621C10.53 46.2421 9.00509 47.3763 7.64155 48.7906C7.34444 49.0987 6.84467 49.2567 6.40983 49.3607C5.81168 49.5008 5.18795 49.5168 4.57602 49.5968C4.39304 49.6188 4.17857 49.7608 4.04084 49.7008C2.66548 49.1027 1.66791 49.9929 0.595568 50.575C-0.15212 50.9811 -0.158023 51.6652 0.367326 52.1353C1.30194 52.9775 2.27787 53.9016 3.7457 53.4316C3.97591 53.3575 4.26908 53.4015 4.51109 53.4716C5.1545 53.6596 5.77233 53.9457 6.4236 54.0837C6.95485 54.1977 7.23229 54.3757 7.42511 54.9559C8.11574 57.0343 9.51667 58.4846 11.624 59.0307C12.6825 59.3027 13.8159 59.2707 14.9138 59.3867C16.1809 59.5208 17.45 59.6668 18.7172 59.8088C18.7231 59.9088 18.729 60.0109 18.7368 60.1129C17.2631 60.517 15.8032 60.921 15.2424 62.6074C14.7052 64.2217 15.1263 65.59 16.2341 66.7602C15.0712 68.5846 14.8508 70.723 16.7811 72.3253C15.6792 74.1277 16.7043 75.51 17.7176 76.8302C17.1746 77.2703 16.6177 77.6004 16.2262 78.0725C15.8661 78.5086 15.5356 79.0747 15.451 79.6228C15.2798 80.735 15.325 81.8792 15.2129 83.0035C15.0082 85.0539 15.8484 85.4159 17.5169 85.528C21.824 85.812 26.139 85.9821 30.4539 86.1501C32.1638 86.2181 32.4805 85.868 32.7344 84.1577C32.8347 83.4876 33.0157 82.8314 33.1751 82.1053C33.425 82.2273 33.5706 82.2913 33.7103 82.3653C38.4286 84.8798 43.3279 86.9183 48.5007 88.2525C51.1334 88.9306 53.7877 89.3027 56.0957 87.4724C58.1243 85.864 59.9758 84.0217 61.9021 82.2813C62.1972 82.0153 62.4845 81.7412 62.8682 81.3831C63.3502 83.1875 63.7713 84.7798 64.2022 86.3701C64.3655 86.9723 64.7098 87.5644 64.7118 88.1625C64.7256 93.5716 65.6169 98.8586 66.8132 104.102C66.9293 104.604 66.884 104.826 66.4827 105.158C59.6354 110.813 54.2107 117.646 50.2204 125.644C47.8495 130.399 45.8209 135.33 42.9895 139.849C41.9939 141.439 41.6791 141.513 40.0715 140.519C38.4089 139.491 36.7345 138.387 34.9184 137.736C30.5247 136.164 26.3692 136.448 22.9337 140.151C22.6288 140.479 22.19 140.683 21.8083 140.937C20.1338 142.049 19.579 143.392 20.0315 145.382C20.185 146.054 20.3877 146.726 20.6671 147.354C22.7921 152.119 26.2885 155.646 30.5877 158.361C32.9902 159.877 35.5421 161.153 38.039 162.509C38.8989 162.977 39.5265 163.538 39.5403 164.626C39.56 166.01 40.2801 166.978 41.4115 167.69C41.7755 167.92 42.0923 168.232 42.6688 168.699C41.9034 168.699 41.4508 168.667 41.0062 168.703C37.8836 168.963 34.759 169.215 31.6404 169.523C31.1445 169.571 30.6763 169.883 30.1942 170.073C30.1981 170.179 30.2001 170.287 30.204 170.395C30.5661 170.575 30.9124 170.845 31.2941 170.917C32.7993 171.201 34.3084 171.541 35.8294 171.649C42.6963 172.133 49.5652 172.155 56.4223 171.469C57.471 171.365 58.6339 171.339 59.6039 170.211C58.5827 169.809 57.7013 169.461 56.7588 169.091C56.8985 168.673 57.0244 168.272 57.1621 167.878C58.3919 164.366 60.4224 161.163 61.0757 157.418C61.1131 157.2 61.7014 156.944 62.0339 156.944C62.8111 156.946 63.5883 157.1 64.3655 157.176C65.9239 157.33 66.5259 156.952 67.1575 155.466C69.5265 149.905 71.746 144.264 74.8961 139.089C76.423 136.584 78.1013 134.168 79.8013 131.777C80.4959 130.803 80.6691 130.875 81.4384 131.763C86.9241 138.1 93.2243 143.466 100.19 148.04C101.067 148.617 102.212 148.899 102.382 150.225C102.401 150.377 102.629 150.523 102.787 150.637C104.442 151.821 106.092 153.015 107.765 154.178C109.292 155.236 109.67 155.16 111.09 153.918C112.078 153.053 113.14 152.273 114.169 151.455C114.258 151.515 114.348 151.577 114.439 151.637C114.264 152.641 114.124 153.652 113.904 154.646C113.717 155.502 113.154 155.948 112.277 156.122C110.506 156.472 109.077 157.43 108.056 158.949C106.391 161.429 105.197 164.092 105.288 167.178C105.315 168.088 104.977 168.319 104.097 168.357C101.88 168.451 99.6662 168.681 97.4547 168.891C97.1221 168.923 96.8054 169.147 96.4807 169.283C96.4905 169.375 96.4984 169.469 96.5063 169.561C96.7916 169.683 97.069 169.867 97.3661 169.917C99.4183 170.259 101.469 170.753 103.535 170.857C107.588 171.065 111.655 171.153 115.712 171.093C118.911 171.045 122.107 170.745 125.296 170.469C126.475 170.369 127.378 169.721 127.681 168.443C128.342 165.648 128.954 162.837 129.696 160.065C130.201 158.17 130.89 156.326 131.52 154.398C132.332 154.774 132.891 155.04 133.456 155.292C135.03 155.998 135.469 155.842 136.283 154.334C137.598 151.899 138.416 149.293 138.867 146.564C139.231 144.372 138.341 142.651 136.421 141.595ZM10.4375 54.2617C10.1561 54.8438 9.54225 54.9779 8.99919 54.6638C8.3184 54.2697 8.8103 53.8136 9.07593 53.4275C9.79804 52.3753 9.76852 51.2951 9.34352 50.1329C9.22547 49.8108 9.39468 49.3807 9.43206 49.0007C9.88855 49.1527 10.5772 49.1687 10.7543 49.4828C11.1085 50.1129 11.1813 50.905 11.4016 51.7472C11.0986 52.5574 10.835 53.4416 10.4375 54.2617ZM39.7233 161.927C35.8235 159.783 31.8057 157.816 28.4489 154.796C26.2157 152.785 24.0907 150.661 22.6425 147.962C22.2254 147.184 21.883 146.356 21.58 145.522C21.2318 144.562 21.2751 143.55 22.009 142.823C22.7783 142.065 23.8546 142.025 24.7675 142.473C26.4912 143.324 28.1872 144.252 29.8144 145.28C35.0974 148.619 39.5698 152.967 44.0795 157.262C45.1539 158.287 46.2085 159.335 47.2572 160.385C47.5504 160.677 47.7963 161.019 48.1328 161.423C47.8042 161.543 47.6055 161.669 47.3989 161.685C45.1853 161.839 42.9698 161.987 40.7543 162.107C40.4119 162.127 40.0145 162.089 39.7233 161.927ZM40.7661 163.554C43.2571 163.382 45.6772 163.213 48.1525 163.043V165.22C47.4009 165.22 46.665 165.238 45.9311 165.216C44.6895 165.178 43.446 165.06 42.2044 165.08C41.2128 165.098 40.9235 164.548 40.7661 163.554ZM42.4268 166.292C43.989 166.388 45.4588 166.674 46.8814 166.522C49.4393 166.248 51.4403 167.34 53.3863 168.743C53.5457 168.857 53.7031 168.979 53.8487 169.111C53.9156 169.171 53.953 169.265 54.0081 169.349C50.0433 170.643 45.0299 169.245 42.4268 166.292ZM55.5507 168.24C53.7011 167.342 51.9716 166.516 50.2539 165.666C49.699 165.39 49.3212 163.48 49.762 163.041C49.9135 162.891 50.3818 162.869 50.5785 162.995C52.2648 164.064 53.9294 165.17 55.5841 166.288C56.6073 166.98 55.5939 167.59 55.5507 168.24ZM59.055 158.659C58.8543 160.231 57.5537 163.528 56.4203 165.17C54.679 164.006 52.979 162.867 51.277 161.729C52.8019 159.437 55.4385 157.82 57.9866 157.578C58.9625 157.484 59.177 157.7 59.055 158.659ZM60.5051 153.201C60.2631 154.162 60.1529 155.154 59.9561 156.31C55.8871 155.902 52.7744 157.854 50.0335 160.835C49.7246 160.565 49.455 160.345 49.2012 160.109C45.026 156.222 40.9373 152.231 36.6499 148.477C33.0433 145.318 29.1828 142.463 24.6456 140.593C25.9442 139.315 27.4828 138.651 29.2104 138.539C35.3591 138.142 39.8158 140.871 42.7908 146.266C42.838 146.352 42.8655 146.476 42.9383 146.518C43.2669 146.708 43.6073 146.876 43.9418 147.052C44.0166 146.676 44.2625 146.22 44.1327 145.94C43.6683 144.926 43.0761 143.972 42.533 142.995C43.6978 143.043 44.5183 143.768 45.1322 144.758C45.6359 145.57 46.0137 146.464 46.5351 147.26C46.7279 147.554 47.1746 147.674 47.5051 147.874C47.5858 147.504 47.7944 147.104 47.7216 146.766C47.5622 146.038 47.2612 145.344 47.0172 144.636C47.1018 144.57 47.1864 144.506 47.271 144.442C47.694 144.926 48.1741 145.37 48.5283 145.902C48.908 146.476 49.1146 147.172 49.5121 147.73C49.7285 148.032 50.185 148.158 50.5333 148.363C50.6041 147.956 50.7104 147.552 50.7281 147.142C50.7359 146.94 50.5805 146.732 50.3877 146.25C51.4364 146.77 52.3002 147.112 53.0774 147.598C55.4129 149.059 57.7091 150.579 60.0289 152.065C60.4657 152.343 60.6487 152.627 60.5051 153.201ZM126.772 137.734C126.975 137.872 127.128 138.313 127.079 138.569C126.707 140.539 126.335 142.513 125.847 144.458C125.483 145.904 124.432 146.742 123 146.99C121.656 147.222 120.289 147.402 119.075 146.48C121.001 143.171 122.868 139.967 124.806 136.64C125.434 136.98 126.136 137.306 126.772 137.734ZM94.1196 90.905H91.9021C91.9021 90.3789 91.8726 89.9448 91.908 89.5168C92.0162 88.2225 91.5066 87.3423 90.4047 86.6482C88.4234 85.3979 88.3624 82.6794 90.3123 80.9991C90.391 81.6412 90.4874 82.2053 90.5248 82.7734C90.5897 83.7756 91.0423 84.2757 92.1028 84.4477C93.124 84.6138 93.7615 84.2517 94.0625 83.2715C94.214 82.7794 94.2849 82.2593 94.3911 81.7472C95.3887 82.1553 96.0144 83.2095 95.7822 84.2677C95.6287 84.9659 95.4241 85.718 95.0207 86.2801C94.0192 87.6824 93.5352 89.1407 94.1196 90.905ZM99.1311 92.3533C100.792 92.2453 102.448 92.0833 104.103 91.8952C104.817 91.8152 105.109 91.9933 105.101 92.7814C105.093 93.8656 105.217 94.9478 105.286 96.0741C104.388 96.0281 103.668 96.0361 102.958 95.944C101.711 95.782 100.843 96.3261 100.343 97.4203C99.3436 99.6068 98.3558 101.799 97.4802 104.036C97.1536 104.876 96.8034 105.296 95.8806 105.164C95.3041 105.08 94.7 105.196 94.1176 105.138C93.2105 105.046 92.8721 105.522 92.8131 106.338C92.7049 107.794 92.577 109.249 92.5081 110.707C92.4747 111.401 92.3448 111.587 91.5656 111.423C90.1509 111.123 89.5626 110.097 89.3954 108.917C89.0589 106.532 88.8248 104.118 88.7638 101.709C88.6988 99.1907 88.8877 96.6662 88.9645 94.1437C88.99 93.3155 89.2576 92.8594 90.2237 92.8274C93.1948 92.7314 96.1639 92.5454 99.1311 92.3533ZM109.738 74.6598C109.209 73.4035 109.939 72.6674 110.378 71.7812C110.445 71.6432 111.1 71.6072 111.299 71.7652C112.735 72.9074 114.156 74.0757 115.5 75.3259C115.74 75.55 115.74 76.2381 115.614 76.6362C114.622 79.7788 113.496 82.8794 112.578 86.0401C112.18 87.4043 111.818 88.3125 110.197 88.6726C108.934 88.9546 107.853 90.0849 106.443 91.0011C107.011 87.8884 107.558 84.8918 108.123 81.8152C108.276 81.9412 108.396 82.0973 108.554 82.1593C109.04 82.3553 109.691 82.7934 110 82.6214C110.401 82.3973 110.695 81.6952 110.752 81.1671C111 78.9166 110.598 76.7062 109.738 74.6598ZM105.038 112.735C103.706 112.605 102.374 112.485 101.044 112.333C98.7493 112.071 96.4571 111.789 94.0015 111.497C94.1038 109.879 94.2002 108.369 94.3065 106.686C95.9121 106.792 97.4625 106.878 99.011 107.006C100.994 107.168 102.972 107.392 104.955 107.534C106.285 107.628 106.576 107.94 106.388 109.253C106.264 110.105 106.11 110.959 106.09 111.817C106.071 112.603 105.695 112.799 105.038 112.735ZM105.86 115.216C105.538 118.679 105.219 122.141 104.88 125.82C102.751 125.63 100.804 125.468 98.8615 125.278C97.1753 125.114 95.4969 124.876 93.8087 124.754C93.1968 124.71 92.9961 124.5 93.0354 123.92C93.2184 121.371 93.3817 118.819 93.5726 116.27C93.6493 115.25 93.7812 114.234 93.9031 113.067C95.0778 113.171 96.2052 113.243 97.3248 113.378C99.9142 113.684 102.498 114.032 105.085 114.332C105.658 114.398 105.915 114.624 105.86 115.216ZM106.191 105.928C105.756 103.906 105.343 101.979 104.924 100.037C105.577 99.7788 105.906 100.109 106.092 100.687C106.285 101.281 106.456 101.883 106.657 102.475C107.419 104.728 109.294 105.624 111.446 104.664C112.046 104.396 112.479 104.442 112.961 104.77C113.896 105.408 114.88 105.472 115.952 105.166C116.34 105.056 116.832 105.11 117.213 105.256C118.175 105.624 119.116 105.954 120.155 105.614C120.275 105.576 120.426 105.554 120.541 105.592C121.823 106.004 122.984 105.794 124.015 104.836C124.224 106.1 123.519 107.062 122.435 106.994C118.75 106.758 115.069 106.472 111.385 106.222C109.658 106.104 107.928 106.026 106.191 105.928ZM104.209 98.5346C103.106 98.5266 102.99 98.8246 103.188 99.9468C103.491 101.661 103.678 103.398 103.904 105.126C103.926 105.284 103.889 105.45 103.865 105.834C102.112 105.664 100.388 105.496 98.3302 105.296C99.5403 102.755 100.617 100.439 101.76 98.1585C101.899 97.8804 102.391 97.6364 102.724 97.6304C104.776 97.5984 106.83 97.6384 108.884 97.6624C108.969 97.6624 109.052 97.7424 109.193 97.8124C108.953 98.4905 108.597 98.7946 107.826 98.7086C106.63 98.5746 105.416 98.5426 104.209 98.5346ZM105.976 86.3121C105.843 87.3523 105.575 88.3845 105.268 89.3887C105.148 89.7868 104.758 90.1029 104.493 90.4549C104.326 90.4009 104.158 90.3469 103.991 90.2909C103.79 88.1945 103.501 86.1021 103.42 84.0017C103.365 82.5594 103.599 81.1071 103.706 79.6588C103.71 79.5948 103.716 79.5248 103.737 79.4648C104.026 78.6806 104.298 77.8504 105.301 77.7904C105.937 77.7544 106.695 78.6426 106.641 79.7328C106.533 81.9312 106.26 84.1257 105.976 86.3121ZM109.15 80.0909C108.619 79.3147 108.068 78.5506 107.562 77.7564C106.151 75.548 104.05 75.562 102.838 77.8964C102.431 78.6806 101.968 78.8526 101.229 78.7666C100.388 78.6686 99.6289 78.4746 99.2629 77.5564C98.6313 75.9801 97.3956 75.2559 95.8117 75.612C95.5205 75.676 95.3474 76.1881 95.0621 76.4182C94.7787 76.6482 94.4344 76.8402 94.0881 76.9222C94.0035 76.9423 93.6847 76.4642 93.6788 76.2121C93.6395 74.5878 93.6592 72.9635 93.6592 71.3171C94.4993 71.0571 95.1053 71.0711 95.5658 71.8892C95.9376 72.5454 96.5653 72.7614 97.3327 72.5994C99.4262 72.1593 101.524 71.9993 103.659 72.3533C107.251 72.9515 108.546 74.1877 109.187 77.8204C109.311 78.5306 109.367 79.2527 109.455 79.9689C109.353 80.0109 109.252 80.0509 109.15 80.0909ZM102.128 79.9368C102.049 81.7052 101.974 83.3835 101.897 85.1099H99.9161V79.9368H102.128ZM133.385 117.788C133.198 120.069 132.946 122.343 132.716 124.622C132.696 124.82 132.641 125.014 132.626 125.212C132.446 127.358 132.445 127.424 130.31 127.316C126.394 127.118 122.483 126.826 118.569 126.588C115.86 126.422 113.148 126.286 110.439 126.13C109.142 126.054 107.846 125.96 106.384 125.864C106.73 122.079 107.07 118.339 107.426 114.442C111.228 114.73 114.895 115.01 118.593 115.29C118.541 116.14 118.484 116.856 118.459 117.574C118.431 118.363 118.815 118.829 119.596 118.903C120.572 118.995 121.548 119.099 122.526 119.127C123.773 119.161 124.226 118.719 124.344 117.45C124.393 116.928 124.403 116.402 124.436 115.776C125.456 115.776 126.394 115.718 127.325 115.788C128.919 115.91 130.508 116.096 132.098 116.282C133.283 116.422 133.479 116.614 133.385 117.788ZM120.251 114.182C120.297 114.012 120.509 113.812 120.68 113.766C120.989 113.686 121.326 113.696 121.65 113.696C122.996 113.702 123.128 113.868 123.006 115.236C122.945 115.918 122.931 116.606 122.9 117.234C122.764 117.298 122.736 117.322 122.707 117.324C120.045 117.498 119.541 116.862 120.251 114.182ZM127.02 99.6988C127.283 100.055 127.634 100.375 127.795 100.775C128.58 102.693 129.318 104.632 130.06 106.568C130.239 107.032 130.489 107.564 129.713 107.73C129.007 107.882 128.621 107.582 128.482 106.842C128.263 105.676 128.015 104.512 127.712 103.366C127.484 102.505 127.134 101.681 126.87 100.829C126.77 100.507 126.758 100.155 126.705 99.8168C126.811 99.7768 126.916 99.7388 127.02 99.6988ZM127.748 109.113C129.471 109.251 131.193 109.477 132.919 109.519C133.871 109.541 134.176 109.995 134.101 110.789C133.979 112.095 133.759 113.394 133.564 114.804C132.397 114.712 131.327 114.632 130.259 114.542C128.696 114.41 127.134 114.278 125.572 114.126C125.035 114.072 124.586 113.932 124.474 113.226C124.348 112.441 123.681 112.217 122.998 112.165C122.15 112.099 121.296 112.093 120.446 112.061C119.336 112.019 118.923 112.739 118.77 113.764C116.664 113.6 114.614 113.442 112.564 113.282C111.163 113.169 109.764 113.015 108.361 112.959C107.716 112.933 107.515 112.757 107.578 112.077C107.712 110.629 107.753 109.171 107.836 107.624C108.908 107.672 109.874 107.688 110.838 107.764C116.475 108.206 122.111 108.659 127.748 109.113ZM132 70.453C132.122 70.825 132.167 71.2271 132.22 71.6192C132.598 74.4518 131.96 77.1363 130.705 79.6048C128.627 83.6956 126.386 87.7004 124.153 91.7052C123.797 92.3433 123.75 92.8034 124.078 93.4195C125.428 95.9561 125.741 98.6246 124.914 101.395C124.442 102.983 123.433 103.834 122.091 103.93C122.469 103.233 122.921 102.543 123.218 101.789C123.338 101.483 123.118 101.039 123.053 100.657C122.693 100.833 122.225 100.917 121.993 101.201C121.312 102.035 120.781 103.001 120.072 103.808C119.696 104.24 119.1 104.642 118.402 104.026C118.803 103.252 119.203 102.497 119.582 101.735C119.73 101.441 119.885 101.137 119.954 100.819C120.058 100.343 120.226 99.7748 119.561 99.5688C118.88 99.3587 118.616 99.8088 118.494 100.395C118.138 102.095 117.152 103.256 115.535 103.792C115.086 103.94 114.563 103.854 114.018 103.88C114.451 102.235 114.803 100.799 115.21 99.3787C115.391 98.7546 115.197 98.3105 114.618 98.3025C114.327 98.3005 113.914 98.7426 113.764 99.0787C113.487 99.7048 113.38 100.407 113.172 101.065C112.79 102.277 111.952 102.975 110.746 103.276C109.235 103.654 107.899 102.759 107.655 101.195C107.566 100.631 107.818 100.419 108.334 100.351C109.864 100.149 110.492 99.4827 110.604 97.9344C110.638 97.4724 110.636 97.0003 110.588 96.5402C110.512 95.826 109.945 95.778 109.422 95.808C109.109 95.826 108.804 96.0021 108.497 96.1141C106.999 96.6682 106.464 96.2321 106.671 94.6258C106.919 92.6894 109.463 90.1689 111.387 89.9529C112.802 89.7928 113.097 89.5028 113.556 88.0865C115.017 83.5636 116.497 79.0467 117.989 74.5338C118.179 73.9577 118.545 73.2875 117.837 72.9895C117.532 72.8594 116.956 73.3955 116.287 73.7416C115.867 73.3595 115.2 72.7494 114.425 72.0433C118.384 68.2125 122.288 64.4378 126.302 60.557C128.535 63.8236 130.807 66.8122 132 70.453ZM95.9121 42.4814C96.4158 41.9793 96.7424 41.0471 97.7931 41.7312C99.072 42.5654 99.4124 43.1315 98.9461 44.3697C97.6573 47.7944 96.4669 51.2691 94.4383 54.3477C94.2612 54.6178 94.0566 54.8698 93.8539 55.1419C91.4476 53.3355 89.1278 51.5052 85.832 51.9813C86.8709 51.1491 87.9846 50.3949 88.9389 49.4688C91.3 47.1803 93.5805 44.8038 95.9121 42.4814ZM84.9879 1.75123C89.3442 1.91326 93.2519 3.41956 96.7699 6.05409C99.5108 8.1065 100.703 10.9991 101.347 14.2337C101.819 16.6062 101.425 18.9227 100.87 21.2211C100.804 21.4972 100.632 21.7452 100.445 22.1453C92.3704 16.8963 84.378 11.6992 76.3325 6.46817C78.4771 3.26153 81.3105 1.6172 84.9879 1.75123ZM69.4518 39.5188C67.795 36.2961 67.7459 32.8694 67.9682 29.4148C68.2869 24.4678 69.44 19.6728 70.8606 14.9439C70.9176 14.7538 70.9767 14.5658 71.0416 14.3798C71.5256 12.9755 71.5965 12.9175 73.0171 13.2375C78.6227 14.4998 84.0297 16.3962 89.3659 18.5266C90.204 18.8606 90.2021 19.3848 90.0604 20.0989C89.6964 21.9293 89.4505 23.7816 89.9719 25.612C90.145 26.2241 90.509 26.8382 90.9399 27.3023C92.0438 28.4906 93.1082 28.4186 94.033 27.0903C94.8633 25.9001 95.9317 25.3019 97.3523 25.3419C99.8315 25.41 101.494 27.8824 100.876 30.553C100.26 33.2215 97.5963 36.3121 93.974 35.2559C93.6906 35.1739 93.2774 35.548 92.9252 35.71C93.1515 36.0581 93.3247 36.6402 93.6159 36.7102C94.3281 36.8822 94.456 37.2783 94.4757 37.9065C94.4914 38.4326 94.5603 38.9747 94.7099 39.4768C95.1211 40.869 94.6508 41.9833 93.669 42.8894C91.0068 45.3479 88.3329 47.7924 85.6254 50.1969C83.8093 51.8132 81.9283 53.3555 79.9961 54.9979C78.1761 52.3693 77.0152 49.5088 76.5705 46.3301C78.0364 46.2141 79.4413 46.2821 80.7478 45.9521C82.3061 45.558 83.8054 44.8778 85.2752 44.1977C85.6156 44.0417 86.0091 43.2755 85.897 42.9775C85.6294 42.2693 85.047 42.6754 84.5865 42.9195C82.5048 44.0217 80.2952 44.8098 77.9498 44.7218C74.2291 44.5798 71.2718 43.0535 69.4518 39.5188ZM76.5273 52.0913C74.7328 51.6792 73.145 52.4314 71.4292 53.1915C71.6417 50.605 72.4661 48.3605 73.5463 46.2061C73.6624 45.9741 74.1406 45.768 74.4023 45.816C74.6561 45.862 74.9669 46.2201 75.0476 46.5002C75.5671 48.3345 76.0295 50.1829 76.5273 52.0913ZM14.0107 48.7746C15.3644 48.5066 15.9015 48.8106 16.1337 49.9849C15.4096 49.9849 14.6993 50.0349 14.0028 49.9569C13.7883 49.9309 13.4853 49.5688 13.4597 49.3367C13.442 49.1627 13.7864 48.8206 14.0107 48.7746ZM15.5926 55.9481C14.7288 56.0701 13.8513 56.0941 12.7908 56.1621C13.5365 54.6358 14.6206 54.8838 15.5926 54.8738C15.7363 54.8718 16.0235 55.1779 15.9999 55.2859C15.9448 55.534 15.7638 55.924 15.5926 55.9481ZM16.5587 52.4554C14.7485 52.8254 14.174 52.6774 14.0087 51.7032H16.5587V52.4554ZM17.5071 57.9845C19.9902 54.7078 20.0217 51.4852 18.6444 47.9885C19.6321 47.9885 20.4664 47.9585 21.2967 47.9945C23.9726 48.1125 26.6486 48.2225 29.3206 48.3945C32.2917 48.5866 33.9995 51.1591 33.1889 54.0877C32.7186 55.79 31.725 57.0483 30.1804 57.8084C29.2478 58.2685 28.2364 58.5586 27.2841 58.9767C26.3082 59.4027 25.3618 59.9028 24.3937 60.3489C24.1438 60.465 23.8054 60.627 23.6067 60.537C23.4276 60.459 23.3469 60.0709 23.2938 59.8048C23.2427 59.5488 23.282 59.2747 23.284 59.0087C23.2879 58.3045 22.9357 57.9805 22.251 57.9825C20.7556 57.9885 19.2583 57.9845 17.5071 57.9845ZM16.5981 63.9997C16.5528 62.9194 17.1018 61.9373 18.062 61.8272C19.2169 61.6932 20.4093 61.7192 21.5643 61.8492C22.2726 61.9313 22.6858 62.4634 22.4123 63.3135C22.1329 64.1837 21.9165 65.0739 21.643 66.0621C20.427 65.9681 19.2858 65.934 18.1603 65.78C17.0309 65.626 16.6473 65.1239 16.5981 63.9997ZM17.0919 68.5126C17.2926 68.0825 17.9301 67.7384 18.4319 67.6164C18.9395 67.4944 19.5239 67.7404 20.0768 67.7424C20.5903 67.7464 21.1058 67.6424 21.6646 67.5804C22.0306 69.0407 23.0105 69.7248 24.3799 69.9849C24.6318 70.0309 25.045 70.4449 25.0076 70.581C24.9072 70.939 24.6062 71.5112 24.374 71.5172C22.4281 71.5632 20.4624 71.6372 18.5342 71.4251C17.1962 71.2791 16.5036 69.7608 17.0919 68.5126ZM24.8876 74.1917C24.8797 75.3879 24.3012 76.1381 23.16 76.3681C22.5874 76.4842 22.0011 76.5402 21.4207 76.6222C19.7895 76.5762 18.4338 75.77 17.9321 74.4998C17.5405 73.5036 17.8022 73.1695 18.8234 73.1615C20.4014 73.1495 21.9795 73.0855 23.5535 72.9855C24.5196 72.9234 24.8935 73.2115 24.8876 74.1917ZM16.8794 80.0189C17.7373 78.3985 19.2169 77.7904 21.1688 78.2265C22.4418 78.5126 23.528 78.2065 24.616 77.5824C25.0214 77.3483 25.529 77.1903 25.9894 77.1923C27.1956 77.1963 28.4076 77.2603 29.6059 77.4023C29.962 77.4443 30.4205 77.7524 30.5838 78.0705C30.9478 78.7886 31.1583 79.5908 31.5204 80.607C26.5345 80.4069 21.7748 80.2149 16.8794 80.0189ZM61.5204 80.4109C59.7358 82.1653 57.9944 83.9677 56.1311 85.63C54.3189 87.2463 52.2018 87.6324 49.8249 86.9883C44.4613 85.536 39.2471 83.7176 34.3694 80.9811C33.7339 80.623 33.2066 80.3129 33.2912 79.4227C33.3168 79.1407 33.0138 78.7626 32.7698 78.5306C31.1977 77.0363 30.8435 75.1999 31.2842 73.1515C31.4161 72.5274 31.3236 72.1673 30.7372 71.7792C29.295 70.825 28.8169 69.1907 29.2753 67.2703C29.3914 66.7882 29.657 66.3141 29.6472 65.84C29.6393 65.4119 29.3501 64.9859 29.1848 64.5598C28.8031 64.7798 28.2404 64.9058 28.0711 65.2379C27.4671 66.4201 26.9595 67.6444 25.7513 68.3585C24.5944 69.0427 23.0754 68.2305 23.1285 66.8882C23.221 64.4998 24.1812 62.5514 26.137 61.1451C26.9496 60.561 27.8252 60.451 28.748 60.681C31.4475 61.3551 33.2046 63.0875 33.6611 65.854C33.9799 67.7984 34.9971 68.7486 36.7542 69.1647C41.565 70.3049 46.3718 71.4672 51.1924 72.5754C51.4679 72.6374 51.8358 72.2853 52.1625 72.1253C51.95 71.8112 51.8044 71.3511 51.5112 71.2111C50.9622 70.9491 50.3287 70.875 49.5534 70.677C50.1949 69.5248 50.7832 68.4726 51.4541 67.2683C53.3647 68.8246 55.2122 70.2449 56.9595 71.7812C58.5158 73.1495 59.9876 74.6238 61.4476 76.1001C62.5947 77.2583 63.0059 78.9487 61.5204 80.4109ZM80.9858 95.3459C80.9229 95.614 80.4329 95.892 80.1004 95.9541C79.5633 96.0561 78.9946 95.982 78.4378 95.982C78.4358 96.0021 78.4339 96.0241 78.4319 96.0441C76.8736 95.906 75.3172 95.758 73.7588 95.636C73.1745 95.59 72.9836 95.2819 73.0052 94.7238C73.0348 93.9276 72.9718 93.1235 73.0682 92.3373C73.0997 92.0633 73.4991 91.6052 73.7096 91.6172C75.9862 91.7512 78.2607 91.9412 80.5294 92.1813C80.795 92.2093 81.22 92.6354 81.2259 92.8834C81.2436 93.7056 81.1728 94.5478 80.9858 95.3459ZM78.3611 90.2529C76.6138 90.0369 74.8135 89.7488 73.0977 89.9688C71.6299 90.1569 70.3175 89.9488 68.9953 89.5288C68.1669 89.2627 67.3956 88.7946 66.6302 88.3605C66.4118 88.2385 66.2426 87.9384 66.1541 87.6824C64.1983 81.9473 63.1987 76.0421 63.6434 69.9829C63.8815 66.7262 64.5918 63.5056 65.0916 60.2689C65.127 60.0409 65.1939 59.8168 65.2588 59.5948C65.4438 58.9747 65.4831 58.2945 64.7964 58.1005C64.5859 58.0405 63.9563 58.7546 63.85 59.1967C62.7895 63.5836 62.0241 68.0205 62.0575 72.5634C62.0615 73.0175 62.0575 73.4716 62.0575 74.1117C58.6949 71.2931 55.4916 68.6106 52.0562 65.732C53.9471 62.8114 55.8065 59.6988 57.9019 56.7582C60.2355 53.4856 62.9469 50.525 66.4807 48.5406C68.0784 47.6424 69.8177 47.0003 71.6319 46.1801C71.0298 48.3265 70.5005 50.1829 69.9948 52.0473C69.8905 52.4274 69.8079 52.8354 69.8295 53.2235C69.8571 53.7556 69.8236 54.4938 70.1326 54.7498C70.4474 55.0099 71.1773 54.9058 71.6673 54.7578C73.021 54.3497 74.1897 53.4255 75.7461 53.5596C77.6291 53.7216 79.0438 55.884 78.5224 57.7104C77.9006 59.8928 77.4697 62.1333 77.0546 64.3657C76.9896 64.7118 77.4579 65.1579 77.6803 65.556C77.9459 65.2479 78.3768 64.9759 78.4496 64.6258C78.7349 63.2355 78.7664 61.7792 79.156 60.427C80.0355 57.3743 81.645 54.8018 84.8168 53.8176C87.4947 52.9855 89.8932 53.8676 92.0162 55.618C92.3468 55.89 92.6734 56.1661 93.0039 56.4402C93.9602 57.2303 94.2809 57.1943 95.0443 56.1461C97.1103 53.3175 98.2771 50.0349 99.5659 46.8162C99.8492 46.1121 100.048 45.3679 100.375 44.6878C100.487 44.4558 100.904 44.1857 101.13 44.2257C106.102 45.1099 110.88 46.5602 115.145 49.4188C119.084 52.0593 122.559 55.1999 125.349 59.2727C122.837 61.7512 120.373 64.1897 117.898 66.6142C116.601 67.8844 115.271 69.1187 113.977 70.3909C113.369 70.9891 112.869 71.0551 112.115 70.515C109.551 68.6826 106.937 66.9242 104.304 65.1939C103.979 64.9799 103.21 64.9098 103.041 65.1139C102.6 65.64 103.165 65.9841 103.564 66.2621C105.13 67.3463 106.665 68.4886 108.296 69.4648C109.187 69.9989 109.357 70.493 108.794 71.3271C108.576 71.6512 108.404 72.0073 108.17 72.4233C106.34 71.3291 104.412 70.767 102.372 70.729C101.073 70.703 99.7725 70.837 98.4719 70.909C97.6554 70.953 96.9116 71.2111 96.2918 70.1809C95.6464 69.1127 94.4009 69.5648 93.3857 69.6808C92.5239 69.7808 92.1953 70.4189 92.1894 71.2351C92.1716 73.1675 92.1343 75.0979 92.1953 77.0283C92.2071 77.4103 92.5337 77.9104 92.8603 78.1305C93.732 78.7166 95.3592 78.3665 96.0951 77.6224C96.3607 77.3543 96.8644 77.0343 97.1241 77.1263C97.4802 77.2543 97.917 77.7304 97.9544 78.0965C98.1512 79.9989 98.403 81.9232 98.3027 83.8216C98.1925 85.93 97.7144 88.0185 97.4153 90.1189C97.3012 90.909 96.8152 91.1671 96.1108 91.1551C95.371 91.1411 95.1093 90.683 95.2568 90.0289C95.4871 89.0127 95.6799 87.9604 96.1029 87.0243C96.6696 85.778 97.2618 84.5818 97.0631 83.1535C96.7562 80.9731 95.4005 79.8648 93.2479 80.0109C93.0217 80.939 92.7973 81.8592 92.573 82.7794C92.4373 82.7734 92.3035 82.7674 92.1677 82.7614C91.9532 82.0273 91.7565 81.2851 91.5184 80.559C91.1524 79.4407 90.3438 79.2787 89.3108 79.8528C87.3589 80.933 86.8729 85.736 88.6988 87.0343C89.2557 87.4283 89.6846 88.0065 90.1804 88.4906C90.8632 89.1587 90.8002 90.0029 90.6369 90.817C90.5976 91.0191 90.1529 91.2711 89.8873 91.2771C87.6934 91.3331 85.4975 91.3371 83.3017 91.3551C83.2368 91.3551 83.1463 91.3671 83.1108 91.3311C81.7532 89.9568 79.9666 90.451 78.3591 90.2529H78.3611ZM126.302 168.028C126.012 168.441 125.593 168.963 125.164 169.035C121.046 169.729 116.895 169.579 112.751 169.383C111.222 169.311 109.699 169.109 108.178 168.919C106.61 168.723 106.61 168.699 106.628 167.098C106.628 166.844 106.675 166.592 106.696 166.382C113.347 167.432 119.938 168.042 126.727 166.662C126.563 167.226 126.534 167.702 126.302 168.028ZM127.144 164.12C126.965 164.882 126.583 165.238 125.924 165.286C122.768 165.514 119.608 165.878 116.452 165.852C113.561 165.828 110.675 165.372 107.788 165.096C107.332 165.052 106.909 164.9 107.064 164.296C107.602 162.211 108.469 160.305 110.067 158.821C111.466 157.522 113.18 157.28 114.933 157.572C116.434 157.822 117.886 158.357 119.372 158.709C119.72 158.791 120.119 158.647 120.495 158.607C120.316 158.236 120.226 157.65 119.944 157.534C118.63 156.992 117.255 156.604 115.923 156.098C115.61 155.98 115.153 155.612 115.161 155.376C115.191 154.646 115.828 154.84 116.212 154.966C117.664 155.436 119.083 156.01 120.537 156.474C120.895 156.59 121.552 156.584 121.699 156.368C122.063 155.84 121.743 155.332 121.17 155.126C119.795 154.63 118.419 154.12 117.011 153.736C115.555 153.34 115.537 153.402 115.734 151.563C117.154 151.917 118.553 152.255 119.946 152.623C120.542 152.779 121.111 153.065 121.713 153.163C122.006 153.213 122.345 152.967 122.664 152.855C122.528 152.561 122.459 152.091 122.243 152.003C121.038 151.521 119.803 151.115 118.567 150.719C117.772 150.463 116.956 150.271 116.035 150.017C116.19 149.769 116.245 149.689 116.296 149.603C117.129 148.18 118.048 147.786 119.803 148.399C123.457 149.669 126.146 148.1 127.295 144.34C127.864 142.483 128.196 140.553 128.68 138.467C130.018 139.221 131.425 139.905 132.714 140.769C134.365 141.875 134.121 143.604 133.686 145.182C133.19 146.988 132.618 148.811 131.787 150.477C129.623 154.818 128.248 159.419 127.144 164.12ZM137.525 145.844C137.45 148.291 136.083 152.157 134.51 154.288C134.021 154.072 133.568 153.89 133.133 153.672C132.842 153.528 132.576 153.336 132.226 153.119C133.729 149.861 135.176 146.59 135.392 142.921C137.08 143.538 137.574 144.234 137.525 145.844Z" fill="black"/>
<path d="M94.3066 30.1187C94.5191 28.8765 95.2117 28.2564 96.0755 27.8143C96.53 27.5802 97.0259 27.3542 97.5237 27.2962C98.2477 27.2121 98.8085 27.5462 98.8754 28.3664C98.9443 29.1885 98.4366 29.3526 97.7303 29.4966C97.1242 29.6206 96.5969 30.1087 96.0145 30.3908C95.6328 30.5748 95.2117 30.7909 94.8143 30.7789C94.6156 30.7729 94.4286 30.2908 94.3066 30.1187Z" fill="black"/>
<path d="M27.5771 53.3767C28.5491 53.4587 29.5388 53.4647 30.4872 53.6648C30.8472 53.7408 31.1188 54.2589 31.4316 54.5769C31.0912 54.733 30.7488 55.025 30.4085 55.023C28.7124 55.013 27.0163 54.915 25.3183 54.873C24.7909 54.861 24.4387 54.629 24.5647 54.1169C24.6316 53.8468 25.0369 53.5107 25.3202 53.4767C26.062 53.3867 26.8195 53.4467 27.5712 53.4467L27.5771 53.3767Z" fill="black"/>
<path d="M29.7237 52.2497C28.2873 52.1797 26.849 52.1357 25.4166 52.0077C25.1805 51.9857 24.7712 51.5456 24.8047 51.3735C24.8598 51.0995 25.2198 50.6794 25.45 50.6814C27.2484 50.6914 29.0488 50.7494 30.8413 50.8914C31.1266 50.9135 31.3725 51.4256 31.6381 51.7116C31.3273 51.8976 31.0341 52.1477 30.6996 52.2477C30.3986 52.3397 30.0503 52.2677 29.7237 52.2677C29.7237 52.2617 29.7237 52.2537 29.7237 52.2477V52.2497Z" fill="black"/>
</svg>
