<svg width="184" height="172" viewBox="0 0 184 172" fill="none" xmlns="http://www.w3.org/2000/svg">
<path d="M19.6277 165.862C22.5818 168.069 27.4238 167.191 29.6276 163.978C30.5754 162.596 31.2523 161.026 32.059 159.546C32.3279 159.053 32.4934 158.215 33.2568 158.568C33.9657 158.895 33.4599 159.589 33.2756 160.063C32.437 162.233 31.431 164.307 29.7912 166.018C29.0748 166.764 29.2911 167.498 30.2989 167.725C31.7356 168.051 32.9484 167.488 33.9939 166.559C36.3614 164.457 38.285 162.013 39.637 159.13C39.8664 158.641 40.0112 157.76 40.8085 158.134C41.5362 158.476 41.0831 159.198 40.8725 159.715C39.795 162.366 38.1609 164.64 36.0793 166.599C35.8518 166.813 35.6092 167.02 35.423 167.268C34.9059 167.96 35.1523 168.714 36.006 168.774C36.9875 168.844 38.0255 168.865 38.9676 168.63C42.8337 167.663 45.0526 165.016 46.1395 161.293C46.2279 160.994 46.2579 160.646 46.4347 160.411C46.6491 160.127 46.9894 159.939 47.2771 159.709C47.3993 160.082 47.6946 160.495 47.6137 160.817C47.3937 161.689 47.0816 162.556 46.6904 163.367C45.6073 165.61 44.3606 167.735 42.2019 169.162C41.9725 169.314 41.8409 169.705 41.8014 170.004C41.7882 170.094 42.2188 170.313 42.4689 170.361C44.0334 170.672 45.376 170.149 46.5344 169.134C48.9902 166.977 50.3459 164.132 51.4197 161.131C51.745 160.221 51.9236 159.256 52.2715 158.356C52.5855 157.543 52.232 157.303 51.5325 157.147C48.206 156.4 44.8758 155.667 41.5607 154.87C31.6228 152.48 21.6905 150.065 11.76 147.642C11.2072 147.506 10.8763 147.585 10.628 148.106C9.7593 149.939 8.77208 151.724 8.01616 153.6C6.84655 156.505 5.10718 158.991 2.86574 161.137C2.38059 161.599 1.7657 161.971 1.14705 162.231C0.840541 162.359 0.387363 162.135 0 162.071C0.165476 161.667 0.229409 161.152 0.520872 160.885C1.06619 160.383 1.78074 160.074 2.35615 159.599C4.18766 158.085 5.33847 156.092 6.29559 153.954C7.18878 151.963 8.1948 150.02 9.08423 148.027C9.29296 147.561 9.39826 146.935 9.27227 146.455C8.75892 144.501 9.21022 142.758 10.4419 141.275C11.5814 139.902 13.2192 139.759 14.8496 140.145C20.7503 141.538 26.6397 142.969 32.5253 144.424C33.2286 144.597 33.6498 144.458 34.1707 143.954C35.6318 142.538 37.1775 141.211 38.6968 139.855C38.8567 139.712 39.071 139.513 39.2478 139.524C40.3441 139.596 40.9232 138.791 41.6058 138.18C51.5513 129.28 61.4855 120.366 71.4478 111.485C72.215 110.801 72.3316 110.285 71.8465 109.343C70.5998 106.916 70.6073 104.272 70.8818 101.628C70.9683 100.792 71.1526 99.9606 71.3501 99.1408C71.6885 97.7362 71.5964 96.3711 71.256 94.9702C70.5415 92.0257 69.9304 89.0566 69.2496 86.1046C68.9413 84.7658 69.402 83.7241 70.4964 83.0246C71.4234 82.4323 71.5964 81.6708 71.5907 80.6498C71.5268 68.941 74.7442 58.1856 81.1282 48.3817C82.7453 45.8978 84.7912 43.7749 87.0646 41.8796C87.6362 41.4038 87.7697 40.9432 87.1473 40.5276C82.5704 37.4796 81.5606 32.7676 81.1808 27.7734C80.9852 25.2125 80.8781 22.6458 80.7314 20.0811C80.7314 20.0491 80.7239 20.019 80.7257 19.9871C80.8254 17.8604 80.7502 15.747 80.4117 13.6335C80.3158 13.028 80.4907 12.3041 80.7483 11.7268C83.7212 5.13258 88.8058 1.19144 95.957 0.187354C104.421 -1.00289 112.975 3.53243 116.136 12.2402C117.1 14.8971 117.691 17.5727 117.307 20.5549C117.753 20.4459 118.046 20.3932 118.324 20.303C121.252 19.3553 123.966 19.816 126.186 21.9181C128.492 24.1012 128.977 26.8615 127.993 29.8681C127.828 30.372 127.632 30.8703 127.395 31.3442C127.074 31.9853 127.204 32.3332 127.935 32.4629C134.221 33.5911 140.043 35.981 145.615 39.0234C147.012 39.7868 148.354 40.6611 149.65 41.5844C150.318 42.0601 150.709 42.0507 151.327 41.496C156.782 36.5996 162.269 31.7371 167.758 26.8784C168.2 26.4873 168.708 26.1601 169.221 25.8668C170.675 25.0376 171.905 25.2538 172.999 26.4929C173.868 27.4745 173.924 28.8208 172.911 30.0035C171.939 31.1392 170.808 32.1489 169.69 33.1493C164.761 37.553 159.821 41.9435 154.861 46.3115C154.287 46.8154 154.624 47.199 154.84 47.6164C156.168 50.1811 156.549 52.8211 155.547 55.5908C154.795 57.6704 153.81 59.641 152.316 61.2712C150.884 62.8375 149.319 64.291 147.741 65.7144C146.703 66.6508 146.666 66.6264 147.734 67.4556C149.618 68.9204 151.126 70.7048 152.089 72.9029C152.787 74.4936 152.508 75.3642 151.074 76.3495C150.635 76.6503 150.167 76.9042 149.712 77.1825C149.199 77.4965 149.067 77.8725 149.396 78.4366C152.13 83.1299 153.324 88.2575 153.766 93.6277C154.187 98.729 153.621 103.753 152.852 108.774C152.762 109.36 152.702 109.953 152.599 110.537C152.356 111.897 152.732 113.019 153.655 114.07C157.788 118.777 161.873 123.528 165.985 128.256C167.253 129.711 167.268 129.812 165.996 131.185C164.067 133.267 164.086 133.252 165.936 135.414C167.617 137.381 169.596 138.975 171.677 140.506C173.059 141.521 174.197 142.92 175.282 144.276C176.252 145.491 176.963 146.91 177.858 148.191C179.236 150.165 179.287 152.169 177.997 154.151C177.234 155.326 176.309 156.4 175.432 157.5C173.952 159.36 172.441 161.193 170.968 163.058C169.776 164.568 168.623 166.112 167.429 167.671C169.483 167.671 171.596 167.646 173.712 167.676C176.406 167.716 179.099 167.782 181.792 167.883C182.441 167.908 183.407 167.827 183.437 168.724C183.467 169.626 182.476 169.493 181.893 169.532C176.395 169.912 170.897 170.324 165.391 170.559C160.417 170.771 155.434 170.816 150.453 170.837C149.189 170.843 147.901 170.566 146.664 170.26C145.22 169.901 144.212 168.56 144.139 167.09C143.964 163.605 145.382 159.217 149.74 157.427C151.378 156.755 152.416 155.625 153.125 154.11C154.157 151.904 155.165 149.686 156.113 147.442C156.239 147.143 156.057 146.579 155.827 146.293C155.241 145.564 154.524 144.94 153.904 144.236C153.432 143.7 153.014 143.708 152.446 144.103C151.497 144.763 150.53 145.408 149.517 145.962C147.631 146.995 147.264 146.925 145.754 145.421C142.57 142.245 139.832 138.706 137.277 135.017C133.59 129.696 130.556 124.021 128.165 118.006C127.93 117.417 127.649 117.28 127.012 117.237C124.052 117.038 121.098 116.733 118.144 116.458C117.775 116.425 117.409 116.355 116.918 116.284C116.169 118.732 115.374 121.124 114.712 123.551C112.693 130.963 111.354 138.5 110.652 146.151C110.62 146.493 110.536 146.831 110.509 147.173C110.44 148.104 109.91 148.503 109.02 148.497C107.924 148.492 106.826 148.49 105.731 148.458C105.169 148.443 104.881 148.606 104.821 149.234C104.686 150.667 104.314 152.096 104.334 153.521C104.362 155.287 104.78 157.043 104.866 158.811C104.943 160.36 104.791 161.921 104.75 163.476C104.727 164.335 104.59 165.219 104.744 166.048C105.203 168.521 104.423 169.835 101.92 170.113C100.032 170.324 98.1101 170.235 96.2034 170.296C93.2342 170.388 90.2594 170.397 87.2996 170.613C81.869 171.01 76.4742 170.991 71.1376 169.754C68.065 169.041 67.0326 167.582 67.8187 164.521C68.6724 161.189 70.2876 158.316 73.9112 157.274C75.045 156.949 76.2523 156.885 77.4219 156.684C80.6449 156.129 83.4222 154.597 86.0699 152.767C86.7863 152.273 87.6099 151.934 88.3263 151.442C88.6836 151.195 89.0653 150.804 89.1725 150.409C89.5204 149.116 89.7442 147.788 90.0243 146.474C90.1654 145.818 89.8833 145.481 89.2628 145.316C87.6005 144.872 85.9458 144.407 84.2872 143.951C83.4918 143.732 83.1571 143.298 83.3922 142.424C85.8649 133.218 88.3639 124.021 91.5042 115.014C91.6791 114.512 91.8615 114.014 92.0571 113.52C92.2789 112.957 92.2 112.512 91.8803 111.949C91.6434 111.532 91.7374 110.823 91.8897 110.302C93.001 106.5 94.1631 102.713 95.3102 98.9208C95.218 98.8531 95.1278 98.7835 95.0356 98.7158C93.6498 100.064 92.2395 101.388 90.9025 102.785C90.6919 103.005 90.7408 103.56 90.7991 103.939C91.2541 106.899 88.8416 109.592 85.8912 109.338C85.1203 109.272 84.6502 109.394 84.2515 110.165C83.5576 111.506 82.3937 112.162 80.8254 111.887C80.3177 111.799 79.8288 111.722 79.6351 112.401C79.5881 112.562 79.4132 112.7 79.2722 112.822C74.7179 116.786 70.1259 120.708 65.6111 124.715C57.9277 131.539 50.2914 138.415 42.6344 145.271C42.5178 145.376 42.3787 145.46 42.2865 145.585C42.1116 145.816 41.965 146.066 41.807 146.308C42.0759 146.483 42.3223 146.743 42.6156 146.82C43.915 147.16 45.2256 147.457 46.5362 147.751C49.6182 148.439 52.704 149.106 55.7822 149.808C56.3576 149.939 56.9274 150.141 57.4614 150.393C58.9394 151.088 59.6878 152.32 59.5298 153.927C59.4396 154.853 59.182 155.763 58.977 156.676C58.93 156.883 58.8454 157.169 58.6912 157.25C57.4012 157.916 57.7566 159.123 57.6269 160.204C57.3072 162.885 56.1019 165.204 54.5374 167.359C54.3606 167.603 54.1838 167.847 53.9657 168.148C55.4136 168.246 56.7713 168.333 58.1289 168.43C58.3771 168.447 58.6554 168.445 58.8604 168.558C59.1086 168.695 59.4772 168.957 59.4659 169.147C59.4509 169.423 59.1989 169.841 58.9544 169.925C58.1929 170.187 57.3956 170.433 56.6002 170.482C53.6949 170.659 50.7841 170.724 47.8788 170.899C47.1248 170.944 46.3313 171.125 45.6506 171.446C43.6216 172.403 41.745 172.125 40.1711 170.568C39.9736 170.373 39.5712 170.314 39.2628 170.309C38.112 170.286 36.9518 170.393 35.8123 170.284C35.2689 170.234 34.6201 169.931 34.2685 169.527C33.7307 168.908 33.1835 168.929 32.5141 169.062C31.4103 169.282 30.1636 169.715 29.276 168.84C28.2004 167.782 27.1305 167.996 25.8856 168.237C23.2249 168.748 20.6544 168.569 18.3283 166.936C18.0688 166.753 17.5705 166.857 17.1944 166.907C15.8405 167.093 14.496 167.375 13.1365 167.503C12.2057 167.592 11.4065 167.125 10.8913 166.356C10.4644 165.719 9.93229 165.561 9.2215 165.584C8.55208 165.606 7.65889 165.73 7.5235 164.839C7.39563 164 8.31139 163.95 8.86611 163.647C9.78938 163.143 10.6863 162.592 11.6096 162.088C11.8296 161.968 12.2715 161.838 12.326 161.915C12.5047 162.165 12.6796 162.539 12.6194 162.812C12.5273 163.224 12.2395 163.592 12.0252 163.974C11.5175 164.878 11.6886 165.593 12.6927 165.749C13.7382 165.913 14.9097 165.945 15.9026 165.634C19.9003 164.39 23.0443 161.951 25.2952 158.399C25.6807 157.792 25.9815 157.124 26.414 156.554C26.6303 156.27 27.0553 156.146 27.3843 155.949C27.4389 156.329 27.6589 156.787 27.5235 157.079C25.8612 160.616 23.4844 163.542 20.0733 165.548C19.921 165.638 19.7837 165.751 19.6258 165.866L19.6277 165.862ZM93.2586 111.147C95.8743 111.414 98.347 111.545 100.778 111.942C106.514 112.876 112.236 113.899 117.95 114.958C123.796 116.039 129.631 116.199 135.483 115.035C136.237 114.885 136.687 114.548 136.907 113.777C137.894 110.325 138.977 106.897 139.928 103.435C142.599 93.7179 144.086 83.8632 143.204 73.7509C143.165 73.2996 143.052 72.8559 142.965 72.3595C142.544 72.4271 142.236 72.4591 141.937 72.5306C140.481 72.8784 139.041 73.3203 137.567 73.5647C136.51 73.7415 135.902 74.2774 135.451 75.1837C134.769 76.5526 134.107 77.944 133.292 79.2339C131.798 81.6031 129.624 82.7294 126.781 82.4906C126.341 82.4549 125.837 82.5395 125.444 82.7331C124.366 83.2653 123.289 83.2653 122.153 83.0058C121.619 82.8836 121.051 82.8384 120.502 82.8535C119.067 82.893 117.64 82.8666 116.562 81.7554C115.904 81.0785 115.419 81.1424 114.74 81.7309C109.229 86.5107 103.684 91.2529 98.1778 96.042C97.6908 96.4651 97.262 97.0893 97.074 97.7023C95.8367 101.73 94.6671 105.78 93.4899 109.827C93.3715 110.235 93.3376 110.669 93.2549 111.148L93.2586 111.147ZM100.69 85.3299C100.765 85.3675 100.842 85.407 100.918 85.4446C101.164 85.2678 101.421 85.108 101.655 84.9143C105.985 81.306 110.288 77.6638 114.663 74.11C115.619 73.3353 116.104 72.5719 115.923 71.3441C115.603 69.1798 116.593 67.5346 118.112 66.1206C119.351 64.9679 120.835 64.2891 122.399 63.6837C123.749 63.161 125.024 62.4276 126.292 61.7131C127.016 61.3051 126.969 60.8068 126.423 60.1243C125.293 58.7121 124.161 57.2699 123.266 55.7055C119.693 49.4459 118.417 42.5584 118.014 35.4658C117.862 32.7751 117.92 32.7713 115.267 32.8033C113.699 32.8221 113.64 32.8841 113.701 34.4486C113.913 40.0406 114.9 45.5067 116.408 50.8844C116.769 52.1724 116.559 52.5109 115.301 52.9753C109.242 55.2053 102.96 56.3768 96.5606 57.0311C95.0638 57.1834 94.6878 56.9691 94.511 55.4611C94.039 51.4259 93.6046 47.3851 93.1985 43.3443C93.1251 42.6204 92.8769 42.2725 92.1304 42.2274C91.4779 42.1879 90.831 42.045 90.1842 41.9341C89.2158 41.7686 88.9864 41.9172 89.0484 42.9325C89.2026 45.4597 89.3681 47.9887 89.6144 50.5102C89.9999 54.4401 90.7953 58.2909 91.9649 62.0685C93.7645 67.8768 97.2018 72.6321 101.484 76.8196C102.58 77.8913 102.858 78.8484 102.255 80.2963C101.579 81.9115 101.198 83.6489 100.69 85.3336V85.3299ZM142.777 67.5459C143.054 67.4556 143.247 67.4349 143.392 67.339C147.145 64.872 150.519 62.0102 152.828 58.0804C154.423 55.3671 155.265 52.5165 154.069 49.3952C152.967 46.5221 150.998 44.3259 148.558 42.5339C144.759 39.7435 140.44 37.976 136.075 36.327C131.049 34.4298 125.899 33.0364 120.487 32.8465C119.176 32.7995 119.08 32.8879 119.161 34.2229C119.411 38.3841 120 42.4944 121.136 46.5145C122.45 51.1683 124.302 55.54 127.584 59.2029C128.136 59.8215 128.514 59.8403 128.986 59.2029C129.285 58.8005 129.573 58.3868 129.904 58.0127C130.85 56.9409 131.816 55.9575 133.464 56.0853C133.843 56.1154 134.266 55.5946 134.853 55.2072C134.236 54.8631 133.898 54.6525 133.543 54.4795C131.687 53.577 129.823 52.6895 127.969 51.7813C127.497 51.55 127.159 51.1157 127.516 50.6644C127.691 50.4425 128.345 50.3692 128.644 50.514C130.724 51.5293 132.796 52.5635 134.804 53.7124C135.613 54.1749 136.137 54.1166 136.786 53.5149C137.726 52.6425 138.714 51.8151 139.733 51.0367C139.945 50.875 140.383 51.0085 140.716 51.0066C140.679 51.3187 140.669 51.6403 140.59 51.9411C140.556 52.069 140.382 52.1649 140.265 52.2683C138.755 53.5864 137.251 54.9101 135.731 56.217C135.005 56.8412 135.002 57.0142 135.76 57.6441C136.29 58.0841 136.824 58.5222 137.317 59.0017C139.776 61.3972 141.598 64.2102 142.783 67.5477L142.777 67.5459ZM87.9314 10.0233C86.7712 12.0991 84.9736 13.5244 83.0274 14.8162C82.6644 15.0569 82.4256 15.6135 82.309 16.0722C82.1473 16.7003 82.0702 17.3772 82.106 18.0259C82.3316 22.2096 82.341 26.4271 82.9051 30.5676C83.8491 37.5041 88.0161 41.0936 95.1447 41.0673C99.3079 41.0522 102.356 38.7319 104.802 35.5166C105.162 35.0446 105.421 33.9465 106.277 34.6121C107.053 35.2176 106.188 35.8456 105.827 36.3533C104.071 38.8165 101.884 40.7758 98.9826 41.8551C101.442 44.7658 105.218 45.1532 108.264 42.8498C110.823 40.915 112.021 38.2299 112.369 35.1255C112.439 34.505 112.414 33.7303 112.1 33.2414C111.342 32.0643 110.397 31.0076 109.498 29.9245C109.359 29.7572 109.077 29.6876 108.847 29.6199C108.336 29.4676 107.802 29.2608 108.007 28.6215C108.249 27.8656 108.821 28.2586 109.248 28.4485C110.562 29.0351 111.681 28.7399 112.679 27.7716C114.979 25.5453 114.714 22.2171 112.087 20.3124C110.549 19.1973 108.64 19.3553 107.644 20.9629C106.655 22.5593 105.348 22.5274 103.994 21.9746C103.104 21.6117 102.196 20.9968 101.611 20.2465C100.462 18.7724 99.0578 17.7984 97.3184 17.2117C96.4911 16.9316 95.6768 16.6006 94.8795 16.2434C91.98 14.9422 89.2459 13.4511 88.2022 10.1229C88.1966 10.106 88.1496 10.1023 87.9333 10.0214L87.9314 10.0233ZM85.7671 81.3643C85.8649 81.1217 85.9439 80.9544 86.0003 80.7776C87.5723 75.9076 89.0917 71.0188 90.7445 66.1751C91.1507 64.983 91.1601 63.9789 90.7934 62.7868C88.9958 56.9277 88.0725 50.9164 87.8976 44.7903C87.8844 44.3484 87.7622 43.9084 87.6851 43.4289C80.5302 46.5409 71.2297 70.5807 72.9728 80.9882C75.1015 80.6009 77.215 80.0537 79.3587 79.8713C81.5682 79.6814 83.6648 80.4486 85.7671 81.3643ZM72.0026 103.898C72.0533 105.895 72.373 107.783 73.5257 109.452C74.3869 110.699 75.5057 111.607 76.9706 112.074C77.6945 112.305 78.1872 112.025 78.5652 111.444C78.9394 110.866 78.4768 110.539 78.174 110.146C77.5084 109.281 76.8089 108.431 76.2466 107.503C75.9364 106.991 75.8179 106.337 75.7314 105.729C75.7013 105.528 75.9947 105.186 76.2222 105.079C76.3444 105.021 76.6885 105.282 76.8408 105.472C77.0101 105.684 77.0721 105.981 77.1887 106.237C77.8845 107.773 78.8077 109.144 80.2237 110.103C81.1244 110.712 81.869 110.586 82.593 109.872C83.3263 109.146 83.0669 108.454 82.5479 107.785C81.5795 106.536 81.0905 105.094 80.8536 103.563C80.7652 102.988 80.4343 102.114 81.2899 101.984C82.1492 101.854 81.9424 102.802 82.059 103.321C82.4031 104.844 82.9014 106.28 84.0992 107.354C84.9454 108.114 86.1319 107.884 86.4967 106.797C86.7336 106.094 86.8107 105.241 86.649 104.522C86.35 103.189 85.7953 101.916 85.4023 100.602C85.1221 99.6654 85.4512 98.8926 86.2015 98.2683C86.7882 97.7813 87.7603 97.2868 87.7979 96.7415C87.8412 96.1398 87.0345 95.461 86.5588 94.8461C85.596 93.5957 85.1108 92.2475 85.4362 90.6417C85.8273 88.7125 86.1282 86.7645 86.5249 84.8353C86.681 84.0738 86.4741 83.5699 85.8235 83.1788C81.9762 80.8698 75.7145 80.4824 71.7393 83.709C70.754 84.5082 70.4023 85.3505 70.7088 86.5558C71.2861 88.8254 71.7995 91.1118 72.3862 93.3795C72.9804 95.6772 73.3264 97.9392 72.5554 100.299C72.1831 101.439 72.1756 102.696 72.0044 103.9L72.0026 103.898ZM127.503 81.0841C127.807 81.1386 127.899 81.1762 127.988 81.1687C128.142 81.1556 128.296 81.1274 128.445 81.0841C130.214 80.5595 131.536 79.4558 132.435 77.8707C133.02 76.8384 133.567 75.776 134.031 74.6854C134.673 73.183 135.771 72.3971 137.365 72.1507C138.503 71.974 139.622 71.6694 140.75 71.4268C141.719 71.22 142.13 70.6502 141.931 69.665C141.869 69.3604 141.843 69.0445 141.756 68.7474C140.414 64.1669 137.488 60.7429 133.793 57.8867C133.114 57.3621 132.431 57.441 131.841 58.0089C131.096 58.7234 130.338 59.4379 129.691 60.2371C127.687 62.7116 125.269 64.5392 122.172 65.4399C121.342 65.6806 120.543 66.0961 119.802 66.5493C118.482 67.3559 117.444 68.4522 117.151 70.0279C117.065 70.4867 117.335 71.0131 117.443 71.5077C117.826 71.3704 118.244 71.2914 118.588 71.0846C119.485 70.5487 119.975 70.7048 120.214 71.722C120.314 72.1432 120.316 72.5907 120.336 73.0288C120.449 75.4432 119.652 77.5002 117.973 79.247C117.059 80.1966 117.256 80.9168 118.539 81.2684C119.086 81.4188 119.723 81.3906 120.291 81.2853C121.553 81.0521 122.495 80.3 123.221 79.2508C123.475 78.8841 123.742 78.32 124.314 78.73C124.938 79.1756 124.43 79.6231 124.159 80.0067C123.77 80.5576 123.33 81.071 122.757 81.7949C123.375 81.7215 123.806 81.7385 124.191 81.6144C125.688 81.1349 126.745 80.1082 127.627 78.8371C127.862 78.5006 128.535 78.0549 128.706 78.1583C129.389 78.572 128.949 79.1267 128.633 79.5874C128.304 80.0669 127.933 80.52 127.503 81.0879V81.0841ZM169.355 140.81C169.251 141.175 169.221 141.358 169.152 141.521C168.386 143.323 167.721 145.178 166.813 146.905C166.036 148.381 164.637 148.736 163.01 148.371C161.767 148.093 160.502 147.818 159.236 147.764C157.437 147.687 157.149 148.059 156.515 149.712C155.812 151.543 154.987 153.33 154.176 155.12C153.407 156.818 152.149 157.991 150.387 158.69C148.58 159.409 147.238 160.689 146.369 162.457C145.263 164.705 145.536 165.172 148.052 165.427C152.034 165.832 155.996 165.533 159.962 165.196C162.568 164.974 164.539 163.78 166.004 161.584C167.969 158.643 170.09 155.81 172.068 152.876C173.061 151.402 173.924 149.834 174.755 148.26C174.977 147.841 175.041 147.177 174.876 146.739C173.868 144.075 171.955 142.217 169.357 140.812L169.355 140.81ZM103.418 156.957C102.617 157.297 101.993 157.549 101.38 157.827C99.039 158.893 95.3685 158.908 93.4993 155.629C93.3451 155.358 93.1458 155.11 92.9446 154.871C91.0134 152.591 89.1744 152.316 86.7524 153.984C83.2756 156.376 79.5975 158.185 75.2801 158.476C72.6851 158.651 71.0548 160.319 69.8833 162.5C69.5373 163.145 69.6915 163.59 70.4587 163.715C72.8017 164.092 75.1334 164.628 77.4933 164.809C85.7953 165.448 94.0823 164.837 102.365 164.288C102.963 164.249 103.315 163.972 103.353 163.378C103.447 161.879 103.539 160.381 103.584 158.88C103.601 158.305 103.49 157.726 103.418 156.957ZM92.2263 66.7035C92.0345 66.9329 91.9029 67.0344 91.8465 67.1679C89.9078 71.8837 88.2737 76.6973 87.3335 81.7215C87.279 82.013 87.3805 82.4342 87.5723 82.6523C88.1646 83.3198 88.1853 84.0306 87.9916 84.841C87.6438 86.2982 87.3072 87.7611 87.0383 89.2353C86.7036 91.0705 86.4892 92.8756 87.8713 94.4889C88.9394 95.7355 89.1763 95.8446 90.4117 94.7822C93.1176 92.4581 95.8141 90.1228 98.4937 87.7667C98.8021 87.4941 99.0747 87.0861 99.18 86.6931C99.7366 84.6153 100.124 82.4849 100.792 80.4448C101.226 79.1135 100.857 78.29 99.9284 77.3949C97.0025 74.5707 94.6031 71.3441 92.828 67.67C92.6757 67.3541 92.4576 67.0701 92.2263 66.7035ZM58.2079 154.033C58.2324 152.707 57.9352 152.154 56.6904 151.78C55.0187 151.278 53.3132 150.881 51.6152 150.475C39.2741 147.527 26.9349 144.571 14.5807 141.683C13.7646 141.493 12.7736 141.687 11.9556 141.969C11.0079 142.296 10.3065 143.998 10.5077 145.105C10.6901 146.102 11.6153 146.109 12.3392 146.286C18.3452 147.762 24.355 149.229 30.3723 150.661C37.4539 152.35 44.5449 153.991 51.6246 155.689C52.264 155.844 52.467 155.629 52.6438 155.114C52.9259 154.287 53.1948 153.448 53.5727 152.664C53.6912 152.418 54.1462 152.331 54.4452 152.171C54.5336 152.495 54.7555 152.852 54.6822 153.134C54.4753 153.948 54.118 154.723 53.8924 155.533C53.8284 155.765 53.9262 156.203 54.0973 156.31C55.8743 157.421 58.1665 156.135 58.206 154.031L58.2079 154.033ZM115.594 20.758C117.617 14.9027 112.138 5.62898 105.124 2.74834C97.7942 -0.263922 87.2827 2.79911 84.3963 8.80483C84.4941 8.81047 84.5881 8.8368 84.669 8.81612C85.1221 8.69954 85.5753 8.58296 86.021 8.44381C88.6705 7.62024 91.3576 7.42656 94.0879 7.95681C99.3135 8.97218 103.556 11.7908 107.36 15.3352C108.044 15.9726 108.355 17.0105 108.849 17.8548C108.949 18.024 109.09 18.2797 109.231 18.2948C110.195 18.3869 111.166 18.4226 112.377 18.4922C111.568 17.1591 110.865 15.9557 110.111 14.7842C109.876 14.4195 109.387 14.0716 109.913 13.7162C110.148 13.5564 110.835 13.673 111.019 13.9024C111.6 14.6244 112.057 15.4499 112.531 16.2528C113.308 17.5671 114.045 18.9059 114.836 20.2108C114.977 20.4421 115.306 20.5587 115.594 20.7599V20.758ZM112.706 39.4784C112.185 40.2945 111.769 40.9827 111.318 41.6464C110.141 43.3801 108.59 44.7094 106.608 45.36C103.84 46.2682 101.233 45.8207 98.9356 43.9535C97.8337 43.0566 96.775 42.156 95.156 42.5772C94.6144 42.7182 94.3794 42.8799 94.4433 43.4101C94.8984 47.1914 95.3609 50.9728 95.816 54.756C95.8969 55.4291 96.303 55.6529 96.9179 55.5814C97.8487 55.4742 98.7795 55.3652 99.7065 55.226C104.466 54.5096 109.193 53.6447 113.749 52.0276C114.93 51.6083 115.004 51.4522 114.723 50.1661C114.291 48.1824 113.858 46.2005 113.477 44.2074C113.187 42.69 112.977 41.1556 112.708 39.4784H112.706ZM43.4091 142.738C43.6893 142.531 43.898 142.405 44.0767 142.243C46.2147 140.312 48.3414 138.368 50.4851 136.444C58.4091 129.333 66.3275 122.214 74.2741 115.127C76.1827 113.426 76.1131 113.819 74.1406 112.2C73.5501 111.714 73.0725 111.743 72.499 112.26C66.7769 117.417 61.0379 122.556 55.3046 127.705C51.0172 131.555 46.7262 135.403 42.467 139.282C42.1605 139.56 41.839 140.212 41.965 140.498C42.3072 141.279 42.8845 141.957 43.4091 142.734V142.738ZM118.941 72.3181C117.268 73.6663 115.731 74.8358 114.268 76.0919C105.521 83.5962 96.7919 91.1212 88.0556 98.6387C86.7336 99.7763 86.6058 100.429 87.3955 101.982C87.954 103.078 88.0969 103.11 89.0089 102.318C98.095 94.44 107.153 86.5257 116.29 78.7055C118.245 77.032 118.892 74.9957 118.939 72.3181H118.941ZM145.617 166.225C145.321 167.28 145.714 168.222 146.687 168.62C147.316 168.878 147.99 169.068 148.661 169.177C152.145 169.741 155.65 169.718 159.142 169.322C163.526 168.825 166.976 166.849 169.261 162.908C170.207 161.276 171.54 159.862 172.73 158.376C174.156 156.599 175.709 154.918 177.029 153.07C177.905 151.844 177.585 150.43 176.848 149.168C176.472 148.523 176.098 148.527 175.759 149.168C173.123 154.176 169.511 158.523 166.301 163.139C165.182 164.749 163.661 165.832 161.715 166.142C156.382 166.994 151.036 167.37 145.615 166.225H145.617ZM154.419 142.758C155.481 143.851 156.44 144.879 157.456 145.848C157.698 146.079 158.121 146.171 158.477 146.224C159.985 146.448 161.506 146.583 163.007 146.842C164.456 147.094 165.145 146.961 165.854 145.695C166.656 144.259 167.326 142.74 167.928 141.207C168.087 140.803 167.941 140.098 167.666 139.733C166.506 138.184 165.252 136.706 164.016 135.213C163.512 134.603 163.05 134.628 162.467 135.222C160.916 136.809 159.321 138.355 157.706 139.876C156.685 140.839 155.596 141.73 154.417 142.758H154.419ZM98.8886 156.962C99.5674 156.739 100.635 156.475 101.613 156.02C102.04 155.821 102.474 155.266 102.572 154.804C102.935 153.061 103.155 151.289 103.439 149.531C103.633 148.324 103.45 148.095 102.262 147.95C101.023 147.8 99.7761 147.664 98.5539 147.418C96.5964 147.027 94.6577 146.538 92.7039 146.117C92.262 146.021 91.696 145.703 91.5136 146.512C91.2334 147.76 90.9063 148.999 90.6505 150.253C90.4869 151.06 90.8235 151.733 91.5945 151.985C93.0048 152.448 93.898 153.375 94.5448 154.676C95.3421 156.274 96.8051 156.834 98.8886 156.962ZM98.4993 168.739C98.5069 168.852 98.5144 168.962 98.5219 169.075C99.8231 168.915 101.136 168.814 102.422 168.573C103.319 168.404 103.62 167.618 103.454 166.569C103.304 165.604 102.734 165.623 101.954 165.687C99.8946 165.86 97.8299 165.978 95.7652 166.05C87.136 166.354 78.4899 167.026 69.9473 165.048C69.2045 164.875 68.7946 165.238 68.9582 165.945C69.0898 166.511 69.3643 167.137 69.7762 167.518C70.1823 167.894 70.8254 168.118 71.3933 168.197C74.4527 168.626 77.5215 169.297 80.5904 169.305C86.5588 169.32 92.529 168.949 98.4993 168.737V168.739ZM170.308 27.0646C169.844 27.3635 169.048 27.7452 168.409 28.3056C163.02 33.0289 157.657 37.7842 152.294 42.5396C152.1 42.7125 151.818 43.113 151.875 43.1901C152.345 43.837 152.837 44.4876 153.443 44.9971C153.576 45.1081 154.246 44.7301 154.562 44.4537C159.708 39.9297 164.846 35.3944 169.962 30.8365C170.632 30.2404 171.294 29.5804 171.76 28.8264C172.333 27.8994 171.76 27.0702 170.306 27.0627L170.308 27.0646ZM151.04 74.1307C150.823 73.6512 150.733 73.2188 150.481 72.9292C149.214 71.4757 147.973 69.9846 146.585 68.6496C145.434 67.5421 145.175 67.6267 143.836 68.5687C143.127 69.067 142.943 69.7327 143.458 70.4208C144.825 72.2504 146.25 74.0386 147.64 75.8531C147.971 76.2837 148.317 76.3532 148.763 76.0468C149.33 75.6575 149.926 75.3078 150.47 74.8885C150.713 74.7023 150.854 74.3864 151.04 74.1307ZM48.4355 169.237C48.4712 169.307 48.5088 169.376 48.5445 169.446C48.9864 169.301 49.4565 169.211 49.8664 169C53.7777 166.992 55.7314 163.641 56.4102 159.416C56.5212 158.722 56.6303 158.09 55.6863 157.912C54.1425 157.62 53.8059 157.754 53.5013 158.803C52.7058 161.537 51.7976 164.23 50.2726 166.659C49.7122 167.55 49.0522 168.378 48.4373 169.235L48.4355 169.237ZM87.8826 107.367C89.1575 106.386 89.5524 105.207 88.96 104.118C87.7754 104.979 88.6122 106.435 87.8826 107.367Z" fill="black"/>
<path d="M13.3064 151.792C13.2763 152.035 13.2782 152.098 13.2594 152.157C11.8904 156.474 10.0796 160.52 6.23418 163.26C5.69075 163.647 5.01192 163.875 4.36506 164.076C4.13377 164.149 3.66179 164.01 3.56777 163.828C3.46059 163.623 3.57153 163.2 3.73513 162.982C3.92693 162.724 4.25036 162.512 4.55874 162.404C6.39966 161.775 7.77047 160.526 8.69375 158.901C9.82952 156.905 10.7415 154.78 11.7438 152.706C11.9055 152.369 11.9751 151.978 12.1838 151.679C12.3342 151.463 12.6727 151.207 12.8758 151.245C13.077 151.282 13.2161 151.664 13.3045 151.788L13.3064 151.792Z" fill="black"/>
<path d="M20.0333 152.416C20.8269 152.705 20.8889 153.13 20.5881 153.66C19.725 155.183 18.8694 156.71 17.9818 158.22C17.5381 158.974 17.0849 159.738 16.5208 160.398C16.2895 160.668 15.7517 160.678 15.353 160.807C15.3756 160.418 15.2665 159.952 15.4414 159.651C16.7032 157.498 18.0157 155.375 19.3301 153.254C19.5275 152.935 19.8171 152.671 20.0333 152.418V152.416Z" fill="black"/>
<path d="M110.407 22.5813C110.525 22.6057 110.811 22.5963 110.999 22.7261C111.198 22.8652 111.422 23.1435 111.411 23.3503C111.401 23.5139 111.038 23.8129 110.865 23.7922C109.805 23.6606 109.322 24.1626 109.081 25.131C109.026 25.3529 108.601 25.4807 108.346 25.6519C108.186 25.383 107.891 25.1122 107.891 24.8433C107.891 23.5948 108.994 22.5832 110.407 22.5813Z" fill="black"/>
<path d="M151.13 162.44C150.483 162.447 149.853 162.295 149.827 161.545C149.799 160.74 150.446 160.554 151.126 160.535C151.988 160.51 152.599 160.937 152.565 161.528C152.533 162.084 151.98 162.434 151.13 162.44Z" fill="black"/>
<path d="M162.005 160.357C161.328 160.396 160.739 160.199 160.752 159.445C160.763 158.8 161.219 158.305 161.905 158.33C162.574 158.354 163.09 158.706 163.133 159.482C163.18 160.329 162.563 160.306 162.005 160.359V160.357Z" fill="black"/>
<path d="M155.674 159.583C155.364 159.273 154.89 159.012 154.783 158.643C154.614 158.056 155.336 157.458 156.052 157.455C156.727 157.451 157.201 157.844 157.203 158.446C157.205 159.241 156.522 159.388 155.674 159.583Z" fill="black"/>
<path d="M157.178 163.056C156.68 162.548 156.099 162.231 156.078 161.877C156.033 161.123 156.675 160.871 157.366 160.879C158.006 160.884 158.709 161.084 158.559 161.808C158.468 162.24 157.773 162.547 157.178 163.054V163.056Z" fill="black"/>
<path d="M158.582 155.08C158.825 154.271 158.71 153.53 159.654 153.532C160.476 153.532 160.692 154.108 160.699 154.796C160.707 155.486 160.154 156.061 159.507 155.903C159.154 155.817 158.887 155.368 158.582 155.082V155.08Z" fill="black"/>
<path d="M78.1693 161.287C77.4453 161.287 76.8266 161.199 76.836 160.392C76.8436 159.696 77.3814 159.433 77.9906 159.461C78.6281 159.491 79.3351 159.687 79.3577 160.443C79.3802 161.214 78.7127 161.309 78.1711 161.285L78.1693 161.287Z" fill="black"/>
<path d="M83.6071 161.068C83.0994 160.592 82.5428 160.318 82.5033 159.983C82.4224 159.293 83.0392 159.054 83.6428 159.052C84.2088 159.052 84.8124 159.276 84.6977 159.934C84.6338 160.301 84.096 160.585 83.6071 161.066V161.068Z" fill="black"/>
<path d="M88.2432 158.827C87.7186 158.308 87.1733 158.02 87.1018 157.642C86.989 157.052 87.493 156.711 88.106 156.709C88.7265 156.709 89.3 156.944 89.2173 157.638C89.174 157.995 88.6964 158.3 88.2432 158.827Z" fill="black"/>
<path d="M87.4221 30.2457C87.9223 30.2957 88.4676 30.2197 88.9748 29.9221C89.3959 29.6743 89.8197 29.6063 90.0901 30.1271C90.3247 30.5795 90.3 31.0358 89.8934 31.3903C88.664 32.4628 86.0275 32.2353 84.9963 30.9798C84.4241 30.2845 84.4345 29.069 85.0406 28.0812C85.5965 27.1755 86.2624 26.3614 87.048 25.6356C87.7597 24.9773 88.4163 24.2591 89.087 23.5588C89.3549 23.2775 89.6512 23.1264 89.9969 23.3603C90.319 23.5777 90.385 23.9049 90.2479 24.2771C89.8254 25.425 88.9875 26.2688 88.1204 27.0618C87.535 27.5969 87.0441 28.1999 86.6024 28.8323C85.8615 29.8936 86.0417 30.1765 87.42 30.2493L87.4221 30.2457Z" fill="black"/>
<path d="M94.4253 32.9914C94.385 32.2231 94.5869 31.6807 95.3545 31.5231C95.4712 31.4997 95.5998 31.4675 95.712 31.4891C96.1794 31.5826 97.2457 33.4377 97.1021 33.8889C96.9884 34.2492 96.7341 34.6202 96.3826 34.4541C95.7752 34.1671 95.6666 34.5371 95.3522 34.9008C93.271 37.3137 88.8876 38.276 86.468 36.3097C86.3001 36.1732 86.1466 36.0167 85.9928 35.864C85.5892 35.4566 85.734 35.0489 86.0566 34.7065C86.3953 34.3461 86.7496 34.4008 87.111 34.7548C88.4526 36.0718 90.5097 35.9535 92.0544 35.1831C92.7537 34.8343 93.4022 34.4164 93.9921 33.9004C94.297 33.6345 94.7022 33.4331 94.4253 32.9914Z" fill="black"/>
<path d="M95.7904 18.7634C96.8177 18.9198 97.7387 19.2458 98.4043 20.0582C98.671 20.382 98.7512 20.7896 98.6837 21.2017C98.5865 21.7975 98.303 22.0533 97.725 21.6526C97.5959 21.5638 97.4407 21.4999 97.3434 21.3845C96.3728 20.2253 95.1931 20.3134 93.9313 20.7731C93.5351 20.9184 93.0714 21.4114 92.7285 20.7389C92.3976 20.0898 92.7761 19.7298 93.3255 19.3893C94.1045 18.9071 94.9446 18.8029 95.7922 18.7654L95.7904 18.7634Z" fill="black"/>
<path d="M86.4614 17.6484C87.4426 17.4919 88.1263 18.19 88.8689 18.6551C89.3287 18.9429 89.541 19.5189 89.1597 20.0565C88.7144 20.6867 88.1895 20.3478 87.793 20.0127C86.8827 19.2446 85.8757 19.2256 84.8216 19.5291C84.3619 19.6612 83.887 19.7621 83.7082 19.2599C83.5409 18.7887 83.8413 18.3409 84.2791 18.0979C84.9417 17.73 85.6527 17.5048 86.4595 17.6483L86.4614 17.6484Z" fill="black"/>
<path d="M93.3874 26.2253C93.4372 25.4376 93.4846 24.8522 93.8478 24.4289C94.1115 24.1228 94.1851 23.38 94.8233 23.6575C95.4412 23.9261 95.8922 24.4309 95.7946 25.195C95.7431 25.591 95.6611 25.9929 95.524 26.365C95.297 26.9816 94.9224 27.5025 94.1632 27.3542C93.4245 27.2109 93.3118 26.6464 93.3875 26.2234L93.3874 26.2253Z" fill="black"/>
<path d="M84.3301 24.2248C84.3658 23.3531 84.8449 22.7928 85.2328 22.2046C85.4279 21.9077 85.7756 21.9128 86.0807 22.0649C86.5291 22.2897 86.6723 22.7198 86.6387 23.1661C86.6062 23.5935 86.4811 24.0193 86.3567 24.4338C86.1921 24.9859 85.9844 25.596 85.2573 25.4817C84.5414 25.3681 84.1899 24.8766 84.3263 24.2245L84.3301 24.2248Z" fill="black"/>
</svg>
