<svg width="148" height="172" viewBox="0 0 148 172" fill="none" xmlns="http://www.w3.org/2000/svg">
<path d="M107.887 110.258C106.735 112.221 105.65 113.992 104.516 115.734C102.58 118.708 100.647 121.68 98.6307 124.603C96.2764 128.017 94.0525 131.521 91.7813 134.992C90.3056 137.25 88.8092 139.494 87.392 141.79C86.2829 143.585 85.2834 145.446 84.2272 147.275C83.8474 147.933 83.3221 148.475 83.7283 149.408C83.9248 149.86 83.5507 150.54 83.2805 151.075C82.2829 153.057 81.7425 155.27 80.1818 156.972C79.4411 157.781 78.6324 158.092 77.5951 157.766C76.7958 157.512 75.955 157.367 75.22 156.942C74.8232 156.711 74.6399 156.8 74.4774 157.219C73.9956 158.463 73.5138 159.702 73.2134 161.01C72.758 162.992 72.2535 164.961 71.7528 166.931C71.613 167.479 71.2842 167.944 70.9857 168.424C70.6796 168.917 70.5662 169.393 71.424 169.401C71.4826 169.401 71.5412 169.444 71.6016 169.458C72.2119 169.588 73.0622 169.684 72.9999 170.406C72.9451 171.043 72.074 171.173 71.4732 171.264C69.2568 171.6 67.0196 171.733 64.7825 171.837C62.6852 171.935 60.5803 172.033 58.483 171.99C55.1253 171.922 51.7545 172.059 48.4234 171.483C48.1777 171.442 47.9359 171.372 47.7016 171.289C47.0667 171.066 47.1404 170.705 47.5429 170.315C47.866 170.004 48.2552 169.843 48.7087 169.764C51.08 169.348 53.4683 169.121 55.8755 169.144C56.1853 169.146 56.3667 169.033 56.6653 168.893C55.3162 168.063 53.9803 167.323 52.7295 166.459C49.8858 164.494 47.1631 162.378 44.7483 159.886C43.8414 158.95 42.855 158.096 42.2844 156.891C41.5097 155.254 41.3378 153.552 41.6855 151.753C41.3283 152.097 41.2603 152.545 41.1432 152.993C41.026 153.437 40.7313 153.837 40.6292 154.283C40.0794 156.668 38.9117 158.788 37.7667 160.906C36.6424 162.986 35.3311 164.953 33.7704 166.748C32.4742 168.241 30.8908 169.184 28.9107 169.187C25.4567 169.193 22.0008 169.138 18.5506 168.993C16.2133 168.895 13.859 168.938 11.5444 168.471C10.9285 168.347 10.3918 168.146 10.4126 167.462C10.4334 166.799 11.0664 166.697 11.5765 166.586C14.6791 165.907 17.8383 165.743 20.9975 165.63C21.4755 165.613 21.6853 165.573 21.7212 164.991C21.8138 163.51 22.596 162.325 23.6976 161.395C25.691 159.714 27.0193 157.62 27.8204 155.162C28.3325 153.592 28.8294 152.018 29.3868 150.465C29.5758 149.939 29.3774 149.748 28.9673 149.518C27.1818 148.518 27.1931 148.513 26.0405 150.23C24.3513 152.745 22.5053 155.16 20.2417 157.163C17.6267 159.475 14.7017 161.329 11.1023 161.766C9.86467 161.915 8.6384 161.815 7.51227 161.314C4.87077 160.142 4.559 157.117 6.20285 154.805C7.22507 153.367 8.64785 152.328 10.0121 151.247C13.2355 148.688 15.9942 145.741 17.861 142.034C18.1973 141.369 18.4902 140.681 18.8208 140.012C19.2875 139.069 19.5464 138.117 19.0854 137.087C18.9455 136.775 18.8926 136.424 18.7566 136.11C18.5091 135.543 18.7131 134.685 18.1727 134.41C17.7211 134.179 17.022 134.466 16.4325 134.455C15.9583 134.446 15.7523 134.659 15.501 135.043C14.8624 136.019 14.3994 137.129 13.3772 137.831C11.4235 139.175 8.36064 138.604 7.11359 136.598C6.36724 135.398 6.56186 134.096 6.88118 132.817C7.25341 131.324 7.98464 129.994 8.97851 128.622C7.04178 128.998 5.3148 128.781 3.82777 127.781C1.26753 126.062 0.128167 123.528 0.00912972 120.49C-0.0399968 119.222 0.101714 117.977 0.615654 116.824C0.904745 116.178 0.585422 115.647 0.475832 115.112C-0.0683391 112.439 2.0989 109.946 4.61947 109.945C7.75034 109.941 9.75697 108.267 11.4367 105.888C12.1396 104.892 12.9729 103.985 14.2993 103.785C14.5525 103.747 14.7679 103.696 15.0211 103.825C15.962 104.304 16.835 104.153 17.7911 103.698C20.6668 102.328 23.6862 102.625 26.7226 103.042C28.0339 103.222 29.2413 103.709 30.5073 104.012C30.923 104.112 31.1573 103.898 31.4445 103.732C33.5834 102.504 35.8073 102.043 38.2126 102.897C38.8607 103.127 39.3595 103.528 39.8394 103.978C40.1417 104.259 40.3401 104.32 40.6689 103.947C43.2726 100.994 46.1484 98.3054 48.977 95.5713C48.657 95.366 48.3207 95.354 47.968 95.5354C46.9099 96.0796 44.9202 95.7357 43.9169 94.8438C43.7148 94.6643 43.573 94.4319 43.2235 94.43C41.1885 94.4149 39.9263 93.3965 39.3312 91.3861C38.7738 89.5004 38.7322 87.6052 39.3652 85.7554C40.0699 83.6902 41.6269 82.3487 43.4578 81.2528C44.7823 80.4611 46.1503 79.8168 47.6638 79.522C48.1173 79.4332 48.4309 79.112 48.6293 78.8267C50.2146 76.5612 52.5141 75.0175 54.3771 73.0354C56.6275 70.6414 58.4112 67.947 59.8868 65.0146C60.9166 62.9683 62.1315 61.0202 63.4655 59.1458C64.8222 57.2393 66.2733 55.4179 67.9663 53.8061C70.313 51.5747 72.9432 49.7532 75.989 48.5931C76.7656 48.2964 77.4156 48.0376 77.5686 47.0399C77.6896 46.2482 77.8558 43.7484 77.6291 42.9001C76.8468 39.9562 76.7221 36.9784 77.238 33.9779C77.7443 31.0341 78.2451 28.0865 78.8081 25.1521C79.0651 23.8106 79.4581 22.4936 79.8077 21.171C79.8757 20.914 79.9872 20.7534 79.6206 20.6023C78.1695 19.9995 77.8861 18.8413 78.041 17.3864C78.2413 15.5271 78.8402 13.8663 80.0571 12.4473C80.5106 11.9182 81.0113 11.478 81.8351 11.6688C82.2092 11.7557 82.606 11.665 82.931 11.2947C84.8904 9.05942 87.4412 7.68009 90.1242 6.54829C92.864 5.39382 95.6188 4.25446 98.5305 3.58369C98.8102 3.51945 98.9141 3.38341 99.018 3.12266C99.959 0.751359 101.731 -0.27652 104.29 0.0635871C105.607 0.239309 106.746 0.74569 107.736 1.69799C108.821 2.74098 108.83 3.92947 108.475 5.20298C108.311 5.78872 108.379 6.10804 108.872 6.54451C110.905 8.3433 112.004 10.6995 112.62 13.3013C112.947 14.6825 113.27 16.0694 113.131 17.5092C113.078 18.0552 112.715 18.5333 113.435 19.0812C113.998 19.5101 113.828 20.4039 113.716 21.1861C113.478 22.8508 112.959 24.3623 111.965 25.7133C111.664 26.1196 111.285 26.4464 110.867 26.7166C109.811 27.4044 109.586 27.9297 110.423 28.8801C112.286 30.9963 112.626 33.2901 111.61 35.8995C114.07 35.943 116.43 36.2831 118.72 37.0559C122.888 38.4598 124.169 42.422 122.716 46.0895C122.381 46.936 122.009 47.7617 121.51 48.5062C121.274 48.8576 121.295 48.9483 121.618 49.0881C124.473 50.3182 126.928 52.1755 129.425 53.9819C133.346 56.818 136.515 60.3192 138.663 64.631C140.224 67.7657 140.859 71.1138 139.746 74.6169C138.875 77.3567 137.592 79.8489 135.617 81.95C135.064 82.5395 134.812 83.078 135.083 83.9056C136.434 88.0398 137.675 92.2137 138.516 96.4801C139.126 99.5713 139.498 102.714 139.615 105.882C139.663 107.186 139.44 108.408 139.16 109.64C139.013 110.294 138.389 110.621 137.888 110.955C135.018 112.885 131.785 113.996 128.524 115.041C124.239 116.414 119.819 116.943 115.154 117.187C116.739 118.428 117.988 119.811 119.502 120.9C119.906 121.191 120.309 121.489 120.689 121.812C121.293 122.328 121.879 122.71 122.765 122.417C123.319 122.234 123.857 122.621 124.324 122.942C125.987 124.084 127.644 125.234 129.295 126.393C130.041 126.916 130.115 127.732 129.892 128.469C129.749 128.941 129.826 128.994 130.193 129.202C132.581 130.542 135.179 131.392 137.671 132.482C139.294 133.193 140.876 134.007 142.363 134.986C143.194 135.534 143.835 136.31 144.281 137.13C144.677 137.862 144.494 138.825 144.403 139.681C144.06 142.958 143.689 146.243 142.735 149.401C141.732 152.724 140.708 156.061 138.826 159.037C138.255 159.937 137.543 160.724 136.64 161.656C137.325 161.656 137.836 161.664 138.344 161.656C140.808 161.609 143.27 161.667 145.728 161.851C146.3 161.894 147.13 161.834 147.181 162.55C147.228 163.186 146.467 163.262 145.902 163.381C144.111 163.757 142.291 163.723 140.479 163.782C136.855 163.901 133.221 163.882 129.607 164.148C126.501 164.377 123.404 164.437 120.33 164.057C118.425 163.823 116.447 163.341 115.766 161.093C115.436 159.999 115.428 158.865 115.7 157.756C116.244 155.543 117.384 153.724 119.351 152.494C119.742 152.25 120.159 151.942 120.592 151.891C121.777 151.755 122.217 150.952 122.763 150.034C124.056 147.863 124.617 145.735 123.417 143.317C123.075 142.629 123.124 141.72 123.536 140.964C123.664 140.73 123.736 140.617 123.46 140.452C123.111 140.242 123.118 140.581 123.011 140.715C121.263 142.876 119.986 145.365 118.266 147.543C117.896 148.012 117.499 148.473 116.785 148.159C114.361 147.092 111.982 145.943 109.833 144.371C109.518 144.14 109.151 143.851 109.323 143.462C109.61 142.812 109.191 142.67 108.777 142.468C105.824 141.027 103.077 139.269 100.53 137.187C98.797 135.768 97.2873 134.156 95.9684 132.35C95.5376 131.761 95.6831 131.18 96.0251 130.693C98.3529 127.375 100.567 123.982 102.782 120.588C104.471 117.998 106.3 115.496 108.088 112.972C108.479 112.42 108.137 111.889 108.156 111.35C108.165 111.059 108.016 110.761 107.883 110.258H107.887ZM109.321 39.1305C110.941 38.8207 112.358 39.1324 113.714 39.8164C114.608 40.2661 115.073 41.0994 114.969 42.1027C114.805 43.6917 113.601 44.5175 112.482 45.3432C110.568 46.7546 108.276 47.4235 106.143 48.4079C102.627 50.031 99.1862 51.8052 96.2216 54.3314C95.2863 55.1269 94.2584 55.8392 93.5461 56.9332C92.847 58.0065 92.1913 58.0386 91.2919 57.2129C89.4289 55.501 87.8587 53.5605 87.2541 51.0324C87.0916 50.356 86.8006 50.099 86.1412 49.9686C84.7638 49.6984 83.4544 49.226 82.2186 48.5137C81.4496 48.0716 80.7921 47.5009 80.0703 47.0116C79.7264 46.7792 79.4279 46.6998 79.324 47.2326C79.0708 48.5232 79.1785 49.7513 79.8492 50.9247C80.7071 52.423 82.0769 53.3017 83.5224 54.1066C84.5314 54.6678 85.6235 55.0173 86.7156 55.3744C87.3184 55.5709 87.8266 55.9942 87.9438 56.6309C88.0156 57.0239 87.5942 57.4075 87.2409 57.3867C86.2432 57.3319 86.2754 58.118 86.1242 58.6772C85.2059 62.0972 84.5522 65.5757 83.923 69.0581C83.8738 69.3283 83.8417 69.5285 84.1421 69.7723C84.8998 70.3883 84.4898 71.127 84.1648 71.7921C83.8266 72.4818 83.1709 72.7161 82.5002 72.4969C81.6839 72.2305 81.6083 71.4426 81.7935 70.7624C82.0656 69.7666 82.264 68.7784 82.383 67.7486C82.7571 64.4761 83.649 61.3036 84.4426 58.1161C84.8242 56.5856 84.8318 56.5875 83.3637 55.9809C83.307 55.9564 83.2352 55.9621 83.1823 55.9337C80.7694 54.6394 78.4888 53.1902 77.6914 50.3427C77.5195 49.7324 77.3343 49.8345 76.9338 49.997C72.8752 51.6408 69.6177 54.3522 66.8307 57.655C64.7334 60.1397 63.082 62.9324 61.4305 65.7269C60.1892 67.8299 59.3049 70.1558 57.5949 71.9754C56.089 73.5796 54.7191 75.3066 53.0167 76.7369C52.2174 77.4077 51.3898 78.1257 50.7758 79.0874C53.4702 79.3595 55.8263 80.1928 57.6025 82.1484C59.3729 84.0965 60.2704 86.4356 60.0607 89.2151C60.3705 89.0639 60.5444 89.0015 60.6955 88.9033C63.1065 87.3671 65.2057 85.4437 67.0499 83.2953C68.1212 82.0464 69.3002 80.737 69.3154 78.8588C69.3418 75.539 69.7235 72.2607 70.4396 69.0089C71.014 66.3996 71.6394 63.8185 72.6541 61.3395C72.8657 60.8237 73.0849 60.5629 73.6876 60.7727C74.262 60.9748 74.3981 61.3074 74.1921 61.8459C73.5232 63.5918 73.0792 65.4 72.6257 67.212C71.783 70.5772 71.1293 73.9707 71.0159 77.4379C70.8534 82.4375 71.1973 87.4125 72.1798 92.3214C72.4009 93.4267 72.5917 94.619 74.0221 95.1764C75.8775 95.8963 77.7651 96.4934 79.7 96.8183C82.2413 97.2473 84.7978 97.6459 87.3788 97.8198C93.0586 98.2014 98.7365 98.2865 104.409 97.6705C106.23 97.4721 106.232 97.4967 106.206 95.6658C106.204 95.4825 106.249 95.2973 106.232 95.1159C106.111 93.8764 106.538 92.601 105.926 91.3861C105.722 90.9817 105.694 90.5509 105.14 90.3676C104.426 90.1315 104.048 89.4116 103.908 88.7918C103.13 85.3549 103.908 82.2561 106.444 79.7828C107.167 79.0761 107.453 78.5943 107.232 77.5966C106.68 75.112 106.886 72.5555 106.716 70.033C106.612 68.4893 106.789 66.9381 106.926 65.3925C107.122 63.1666 107.443 60.9597 107.763 58.7509C108.05 56.7613 108.539 54.8208 109.346 52.8104C109.089 52.9521 108.981 53.0069 108.879 53.0711C106.419 54.6205 103.995 56.2644 101.197 57.1354C99.7493 57.5851 99.3052 58.5393 99.139 59.8525C98.8423 62.1898 98.1829 64.4798 98.1545 66.8493C98.1394 68.0037 97.6255 69.145 98.3095 70.3391C98.7138 71.0439 98.2566 71.8337 97.5763 72.2891C97.2155 72.529 96.7525 72.684 96.301 72.3042C95.6321 71.743 95.326 71.0968 95.7228 70.2598C96.1177 69.4265 96.2405 68.5441 96.3066 67.6391C96.4427 65.8044 96.6354 63.9829 97.0322 62.1766C97.308 60.9163 97.6614 59.6465 97.6444 58.2729C97.4044 58.322 97.2306 58.3749 97.0511 58.3919C96.403 58.4562 95.6869 58.4921 95.5433 57.6758C95.394 56.8331 96.1063 56.6347 96.7337 56.5648C99.5528 56.2511 102.028 55.0022 104.467 53.7022C107.819 51.9148 110.922 49.6531 114.493 48.2813C115.736 47.8033 117.008 47.1571 118.387 48.1188C118.986 48.5364 119.54 48.0754 119.884 47.5425C120.475 46.6242 120.955 45.6511 121.267 44.5911C121.977 42.1802 121.125 40.3625 118.952 39.1343C116.817 37.9269 114.466 37.8268 112.159 37.5226C111.009 37.3714 109.881 37.6794 109.323 39.1343L109.321 39.1305ZM42.1068 150.111C42.6907 149.854 42.7379 149.856 42.9042 149.593C43.9396 147.948 45.5872 147.205 47.3426 146.752C50.7739 145.867 54.0106 146.412 57.0167 148.329C57.4948 148.636 57.952 149.42 58.5113 149.095C59.0536 148.779 59.2463 147.978 59.4938 147.339C59.5165 147.281 59.5108 147.211 59.5411 147.158C59.7791 146.754 59.679 146.612 59.2085 146.468C58.2581 146.177 57.2794 145.99 56.3441 145.627C54.8646 145.053 54.6039 144.635 55.2576 143.194C56.055 141.437 56.8939 139.694 57.7895 137.985C58.2562 137.095 58.9686 136.437 60.1098 136.554C60.4518 136.588 60.6634 136.479 60.8203 136.11C61.3172 134.954 61.9256 133.843 62.4017 132.679C63.1727 130.799 64.1873 129.043 65.1094 127.241C65.3512 126.769 65.3815 126.425 64.9393 126.015C64.2704 125.395 63.5392 124.887 62.7664 124.41C59.7225 122.532 56.4083 122.013 52.9033 122.364C52.5651 122.398 52.4026 122.587 52.2382 122.814C51.4333 123.919 50.4508 124.7 49.1111 125.183C45.6269 126.44 42.292 126.328 39.0383 124.522C38.6037 124.28 38.3203 124.208 38.0463 124.822C36.6481 127.978 34.4393 130.436 31.6277 132.45C28.8011 134.476 25.742 135.203 22.3428 134.74C21.5927 134.638 20.8388 134.565 20.0414 134.472C20.6423 136.756 21.3263 138.869 22.4808 140.819C24.1926 143.71 26.3372 146.141 29.3301 147.757C29.8101 148.016 30.1162 148.173 30.2673 147.398C30.3977 146.729 30.5111 146.056 30.6584 145.393C30.7567 144.947 30.9815 144.367 31.5616 144.52C32.0529 144.649 32.2475 145.093 32.1492 145.709C31.6107 149.115 30.4657 152.343 29.3509 155.585C28.4817 158.115 27.1686 160.335 25.1449 162.113C24.4288 162.742 23.8639 163.481 23.5445 164.392C23.1817 165.425 23.6447 166.557 24.5743 166.981C25.0429 167.194 25.298 167.249 25.3093 166.569C25.3301 165.227 26.1199 164.175 26.7755 163.086C27.042 162.644 27.452 162.682 27.828 162.946C28.1945 163.203 28.4005 163.515 28.0132 163.946C27.5294 164.486 27.2611 165.161 26.955 165.801C26.3391 167.094 26.6168 167.685 27.8733 167.604C28.4515 167.566 29.0543 167.564 29.6419 167.421C31.2725 167.02 32.359 165.998 33.3321 164.666C35.9603 161.066 37.9688 157.184 39.2971 152.925C40.2381 149.907 41.3151 146.933 42.3184 143.936C42.5395 143.279 42.993 143.441 43.4257 143.596C43.8546 143.747 44.0209 143.961 43.8338 144.511C43.2103 146.342 42.6869 148.205 42.1087 150.113L42.1068 150.111ZM69.2322 83.4408C69.1434 83.5183 69.0735 83.5636 69.0244 83.626C66.757 86.4961 64.1155 88.9184 60.8335 90.6114C60.5047 90.7814 59.9133 90.9118 59.885 91.4239C59.8037 92.8769 58.8457 93.8821 58.0635 94.9345C56.3157 97.2907 53.7366 97.7045 51.3974 96.0966C51.0327 95.8453 50.8117 95.9605 50.6076 96.2326C50.1182 96.8826 49.4852 97.3814 48.9052 97.9407C46.5849 100.185 44.3081 102.475 41.9953 104.73C41.6477 105.068 41.5211 105.272 41.9141 105.68C43.3274 107.15 43.9982 109.066 44.9694 110.806C45.8366 112.359 46.7757 113.758 48.8579 114.202C51.8565 114.842 53.7781 116.599 53.4475 119.955C53.404 120.388 53.4513 120.584 54.054 120.541C56.6048 120.356 59.1178 120.666 61.4551 121.739C62.1467 122.056 62.2222 121.845 62.398 121.331C62.8836 119.915 63.0498 118.447 62.8533 116.99C62.602 115.112 62.1599 113.293 60.8826 111.749C60.1646 110.882 59.2595 110.192 58.6662 109.208C57.799 107.768 58.6511 105.782 60.2931 105.62C61.355 105.516 62.4206 105.667 63.4258 106.022C66.5832 107.139 68.603 109.342 69.6763 112.505C70.2866 114.306 70.4528 116.167 70.6758 118.255C72.3026 115.22 74.3697 112.743 76.2101 110.109C78.3773 107.01 80.6806 104.006 82.6797 100.792C82.9725 100.321 83.3826 99.7074 82.7383 99.337C82.3528 99.116 81.9806 99.7206 81.7349 100.07C80.2611 102.158 78.8119 104.263 77.3646 106.368C77.2096 106.595 77.0509 106.757 76.7599 106.714C76.4765 106.672 76.3329 106.496 76.2592 106.226C75.4297 103.226 74.0769 100.393 73.3966 97.3417C73.3192 96.996 73.151 96.4726 72.9092 96.3951C71.0367 95.798 70.7797 94.1409 70.4566 92.6237C69.8161 89.6175 69.6026 86.5452 69.2284 83.4389L69.2322 83.4408ZM133.41 84.4328C131.016 86.549 128.267 87.9793 125.594 89.523C124.77 89.9992 123.921 90.3299 123.353 91.233C122.467 92.6388 120.968 93.1943 119.368 93.2888C118.637 93.3322 118.151 93.6062 117.714 94.1069C116.787 95.1726 115.617 95.8566 114.295 96.3195C112.857 96.824 110.963 96.0361 110.306 94.5755C110.187 94.3091 110.075 94.2335 109.845 94.2638C109.161 94.3545 108.522 94.1126 107.863 93.9444C107.67 96.8939 107.853 99.7659 108.21 102.623C108.558 105.393 109.023 108.146 109.586 110.882C109.731 111.59 109.969 112.276 110.007 113.032C110.039 113.705 110.387 114.426 110.782 114.997C111.048 115.383 111.71 115.152 112.184 115.279C112.458 115.352 112.79 115.18 113.083 115.22C115.396 115.534 117.679 115.328 119.989 115.058C123.285 114.67 126.482 113.871 129.607 112.86C131.691 112.186 133.771 111.422 135.744 110.381C137.106 109.663 137.856 108.837 137.837 107.265C137.815 105.404 137.673 103.558 137.495 101.706C137.206 98.6852 136.573 95.7376 135.895 92.7881C135.253 89.9954 134.334 87.2897 133.414 84.4271L133.41 84.4328ZM85.2758 20.5758C84.4709 20.5758 83.6679 20.572 82.863 20.5758C81.7538 20.5834 81.4364 20.846 81.2304 21.9344C80.5578 25.4696 79.8058 28.9878 79.2465 32.5438C78.7873 35.4555 78.4359 38.3521 78.999 41.2808C79.3296 43.0002 80.0703 44.5647 81.3306 45.7532C83.307 47.6181 85.7973 48.4816 88.4672 48.5383C92.4936 48.6252 95.9986 47.3177 98.5872 44.0696C98.9066 43.6691 99.1749 43.5463 99.5981 43.841C100.063 44.1641 100.04 44.6082 99.7757 44.9936C98.6685 46.611 97.2854 47.9147 95.4771 48.7537C93.5045 49.6701 91.4412 50.1462 89.2777 50.2407C88.9622 50.2539 88.6561 50.2275 88.8734 50.7716C89.5158 52.3815 90.4247 53.7948 91.6547 55.0173C92.0553 55.4141 92.3217 55.399 92.7355 55.0116C94.761 53.1127 97.0171 51.5142 99.3506 50.0158C101.287 48.7707 103.451 47.9809 105.478 46.9152C105.918 46.6847 105.89 46.5978 105.646 46.1953C104.584 44.4457 103.791 42.5864 103.848 40.4815C103.863 39.9203 103.651 39.5311 103.256 39.1702C102.978 38.917 102.578 38.696 103.014 38.1858C103.432 37.6964 103.849 37.7229 104.216 38.1008C104.586 38.4824 104.97 38.4636 105.418 38.405C108.127 38.0516 110.053 36.3058 110.4 33.6265C110.57 32.3246 110.279 31.0039 109.195 30.0629C108.082 29.1012 106.795 29.1087 105.488 29.5641C104.609 29.8702 103.9 30.4295 103.443 31.2608C103.218 31.669 102.897 31.8598 102.436 31.7616C101.992 31.6671 101.932 31.3213 101.986 30.9585C102.045 30.5768 101.801 30.4181 101.569 30.1952C99.787 28.489 99.2977 26.2386 99.2032 23.9315C99.139 22.3387 99.2126 22.2499 97.7483 21.9627C93.6311 21.1521 89.4894 20.5853 85.2796 20.5739L85.2758 20.5758ZM120.294 72.6178C120.029 72.3949 119.797 72.1889 119.555 71.9962C118.115 70.8512 116.511 69.9121 115.26 68.5347C114.916 68.1549 114.68 67.7165 115.115 67.3027C115.509 66.9248 115.931 67.0495 116.371 67.3953C117.879 68.5857 119.47 69.6759 120.927 70.9249C121.512 71.4275 121.739 71.2404 122.162 70.8342C123.264 69.7742 124.398 68.7444 125.537 67.7222C125.886 67.4104 126.319 67.2668 126.708 67.6712C127.05 68.0264 127.003 68.427 126.661 68.7557C125.034 70.3202 123.441 71.9206 121.714 73.3793C120.141 74.7095 118.637 76.1247 117.029 77.2905C122.196 79.0213 124.738 82.6113 124.991 87.9737C126.712 87.1215 128.345 85.9803 130.006 84.8919C131.704 83.7771 132.938 82.1692 134.325 80.7218C136.226 78.7379 137.535 76.3968 138.178 73.7685C138.877 70.9003 138.414 68.0925 137.04 65.451C135.776 63.023 134.298 60.716 132.294 58.8643C130.536 57.2412 128.779 55.6049 126.752 54.2672C124.454 52.7499 122.261 51.0985 119.596 50.2369C119.001 50.0442 118.419 49.997 117.847 50.1292C117.369 50.2407 117.686 50.7679 117.543 51.1004C117.044 52.2624 116.6 53.4604 116.278 54.6829C115.543 57.4906 115.198 60.3683 114.986 63.2573C114.761 66.3202 114.576 69.3868 114.438 72.4535C114.376 73.8592 114.406 75.2745 114.623 76.7237C116.619 75.5692 118.449 74.1408 120.294 72.6178ZM17.2185 132.484C17.381 132.573 17.4774 132.513 17.5983 132.475C19.5539 131.851 21.5436 131.356 23.5294 130.842C25.1789 130.415 26.9191 130.141 28.3929 129.255C31.2744 127.522 33.0959 124.845 34.6301 121.93C34.9003 121.416 34.9362 120.972 34.649 120.562C33.7383 119.256 33.3868 117.731 32.8465 116.276C32.2739 114.734 31.4312 113.361 30.2182 112.22C28.085 110.215 27.8431 108.994 29.041 106.343C29.3131 105.74 29.2527 105.425 28.5498 105.213C26.7132 104.658 24.8407 104.448 22.9304 104.399C20.5875 104.34 18.4014 104.83 16.5251 106.258C15.3102 107.182 14.5222 108.371 14.3106 110.003C14.1406 111.311 13.8628 112.686 12.7008 113.648C11.9922 114.234 11.2289 114.457 10.3427 114.491C9.91947 114.508 9.47544 114.547 9.91758 115.245C10.4183 116.034 10.6224 116.941 10.3654 117.926C9.8061 120.051 7.69744 120.573 5.93644 120.596C4.47776 120.615 3.04931 120.403 1.70777 119.475C1.71155 121.88 2.13669 123.966 3.80321 125.593C4.98981 126.75 6.39369 127.403 8.10934 127.014C8.5118 126.923 8.84057 126.806 8.35686 126.315C7.7749 125.724 7.44047 124.979 7.4877 124.129C7.51416 123.643 7.67476 123.156 8.27751 123.143C8.78578 123.131 8.99362 123.443 9.10321 123.965C9.36585 125.225 10.0744 126.096 11.3593 126.574C13.2185 127.264 14.9701 126.895 16.7216 126.292C18.0424 125.837 19.1194 124.97 20.1302 124.036C20.3381 123.846 20.8709 123.452 20.3211 123.201C19.7901 122.957 19.741 122.638 19.877 122.249C20.0528 121.754 20.4118 121.402 21.0126 121.435C21.895 121.48 22.647 121.862 23.2951 122.411C23.8525 122.884 23.6296 123.526 22.8813 123.704C22.2049 123.864 21.8062 124.276 21.7306 124.957C21.6607 125.591 21.3735 126.132 21.1014 126.689C20.0698 128.794 18.6942 130.668 17.2185 132.484ZM127.362 158.402C128.279 158.601 129.133 158.293 130.002 158.206C131.23 158.081 132.275 157.486 132.908 156.379C133.465 155.407 133.958 154.398 134.45 153.391C135.712 150.799 136.415 148.031 137.155 145.253C138.023 141.992 138.478 138.695 138.763 135.354C138.792 135.026 138.72 134.786 138.436 134.653C137.259 134.102 136.114 133.478 134.865 133.091C134.402 132.947 134.198 132.998 134.223 133.569C134.285 134.99 133.97 136.363 133.509 137.692C133.05 139.016 132.371 140.227 131.281 141.166C129.817 142.427 128.163 142.342 126.44 141.911C125.276 141.62 124.87 141.996 125.023 143.167C125.253 144.928 125.665 145.306 127.423 145.416C128.42 145.478 129.414 145.58 130.298 146.111C130.591 146.287 130.799 146.565 130.642 146.895C130.487 147.22 130.157 147.426 129.792 147.232C128.997 146.807 128.101 146.92 127.273 146.704C126.321 146.455 125.824 146.68 125.56 147.704C125.405 148.305 125.505 148.458 126.03 148.581C127.022 148.815 128.033 148.972 128.987 149.355C129.454 149.542 129.921 149.728 129.718 150.334C129.522 150.924 129.044 150.735 128.609 150.616C127.528 150.321 126.446 150.032 125.357 149.762C125.129 149.705 124.785 149.384 124.662 149.847C124.501 150.455 123.867 150.839 123.914 151.521C123.918 151.585 124.099 151.659 124.209 151.693C124.974 151.935 125.737 152.19 126.516 152.392C126.776 152.46 126.948 152.681 127.175 152.722C127.869 152.847 127.806 153.253 127.657 153.756C127.472 154.381 126.982 154.153 126.654 154.06C125.433 153.718 124.243 153.178 122.963 153.174C120.108 153.167 118.296 155.203 117.493 157.577C117.35 158 117.65 158.004 117.932 158.098C118.943 158.436 119.999 158.525 121.042 158.614C123.16 158.795 125.276 158.637 127.362 158.404V158.402ZM114.829 78.9571C113.654 78.9533 112.516 79.1441 111.375 79.3425C109.057 79.745 107.122 80.6633 106.062 82.9382C105.261 84.6576 104.872 86.3884 105.544 88.2458C105.648 88.533 105.831 88.8183 106.054 88.8579C106.304 88.9014 106.393 88.5292 106.48 88.3081C107.13 86.6605 108.248 85.3813 109.593 84.2703C109.951 83.9755 110.259 83.8111 110.619 84.2476C110.973 84.6765 110.771 84.8863 110.415 85.2339C109.017 86.6038 107.91 88.1626 107.63 90.1787C107.443 91.524 107.853 92.2193 109.063 92.5311C110.034 92.7805 110.294 92.5783 110.842 91.0838C111.424 89.5004 112.69 88.5254 113.966 87.5655C114.279 87.3294 114.64 87.4616 114.888 87.7564C115.116 88.0285 115.152 88.2987 114.825 88.5651C113.374 89.746 112.407 91.1934 112.046 93.0866C111.865 94.0389 111.838 94.3941 112.773 94.6303C114.336 95.0252 115.528 94.1561 116.469 93.149C117.267 92.2949 118.072 91.7678 119.224 91.6071C121.51 91.2878 122.759 90.0842 123.181 87.7885C123.434 86.4092 123.016 85.1451 122.398 83.8811C120.842 80.6878 118.383 78.9986 114.824 78.9627L114.829 78.9571ZM45.387 152.023C45.0733 152.023 44.754 152.054 44.4441 152.018C43.6637 151.927 43.3747 152.248 43.2632 153.036C42.9684 155.096 43.932 156.636 45.2056 158.038C47.1234 160.144 49.3341 161.938 51.6789 163.534C55.4957 166.132 59.2331 168.93 64.0456 169.497C65.4287 169.66 66.7816 169.613 68.1288 169.278C68.4519 169.199 68.7769 169.038 68.8506 168.745C68.9394 168.394 68.5104 168.386 68.2988 168.239C66.5605 167.024 64.8902 165.726 63.3654 164.245C61.8028 162.725 60.4121 161.061 59.0045 159.404C57.7253 157.898 56.1287 156.713 54.5736 155.5C51.8735 153.389 48.8504 152.122 45.3851 152.027L45.387 152.023ZM56.8901 143.984C58.8684 144.401 60.7636 145.068 62.6398 145.798C64.0286 146.338 65.3267 147.082 66.7003 147.634C67.9984 148.156 69.2398 148.734 70.4509 149.442C72.1553 150.436 73.6158 151.763 75.2937 152.779C76.4123 153.456 77.3494 154.361 78.3584 155.171C78.9102 155.615 79.1123 155.581 79.4751 155.02C80.4123 153.569 80.7656 151.85 81.6348 150.389C82.0788 149.645 81.8653 149.216 81.3608 148.798C80.0155 147.683 78.6985 146.521 77.2606 145.537C72.5823 142.327 67.4845 140.016 61.9596 138.672C60.0682 138.213 59.577 138.272 59.0574 139.356C58.3242 140.885 57.353 142.304 56.8901 143.984ZM46.9836 94.0011C46.9193 93.7933 46.8645 93.5892 46.7908 93.3908C45.9595 91.165 46.2977 89.0488 47.4522 87.0422C47.6147 86.7606 47.7488 86.0558 48.3931 86.5055C48.8598 86.8305 49.011 87.2594 48.6652 87.7734C47.7564 89.1244 47.8697 90.6548 47.9925 92.1457C48.1191 93.6969 49.6723 94.7097 51.0157 93.5722C52.0001 92.7389 52.6974 91.6563 52.754 90.3242C52.7786 89.7687 52.5311 89.2018 52.4196 88.6369C52.2949 88.0096 52.4952 87.4711 53.1168 87.3067C53.78 87.131 54.02 87.6449 54.1957 88.1985C54.3148 88.5745 54.2902 88.9846 54.8249 89.2188C56.4291 89.9217 56.3837 90.1277 55.2652 91.5524C54.4565 92.5821 53.3152 93.3133 52.7011 94.5056C52.6086 94.6832 52.3195 94.8382 52.6331 95.0347C53.1622 95.3672 53.7404 95.7224 54.3752 95.5165C56.2685 94.9005 58.4244 92.2307 58.568 90.0993C58.7002 88.1229 58.2864 86.3242 57.3134 84.6501C55.9699 82.3411 53.8235 81.1489 51.2538 80.9202C48.9222 80.7143 46.7455 81.3643 44.6406 82.5206C42.3468 83.7809 40.8579 85.4493 40.4365 88.0625C40.1739 89.6874 41.0392 91.9038 42.3449 92.6501C42.3241 92.4517 42.3203 92.2609 42.2825 92.0795C41.8366 89.9765 42.3147 88.0266 43.2178 86.1314C43.4238 85.6987 43.7544 85.5759 44.1229 85.7195C44.4535 85.848 44.6784 86.2089 44.4894 86.566C43.9509 87.5863 43.8924 88.7219 43.6864 89.8121C43.3217 91.747 44.1701 94.2298 46.9779 94.003L46.9836 94.0011ZM84.879 11.7463C88.6731 11.7633 92.2178 12.2753 95.7795 12.6702C98.7894 13.0047 101.728 13.5658 104.545 14.6221C106.687 15.4251 108.845 16.2338 110.871 17.3259C111.432 17.6282 111.46 17.2428 111.404 16.8705C111.105 14.9055 110.958 12.9007 110.009 11.0925C109.064 9.29371 108.229 7.40045 106.136 6.59742C105.359 6.30077 104.577 6.00601 103.778 5.77738C101.595 5.15385 99.411 4.87043 97.1928 5.6848C92.9471 7.23984 88.641 8.66073 84.8771 11.7444L84.879 11.7463ZM20.3324 140.418C19.5747 142.61 18.4996 144.384 17.3376 146.106C15.5312 148.779 13.228 150.975 10.6545 152.896C9.57369 153.703 8.53259 154.563 7.64453 155.576C6.74136 156.609 6.56941 157.911 7.09469 158.88C7.23829 159.147 7.40079 159.373 7.72011 159.37C8.09612 159.364 7.94874 159.018 8.04699 158.824C8.59305 157.747 9.10888 156.666 10.1273 155.887C10.6583 155.481 11.004 155.617 11.3328 155.967C11.739 156.399 11.4934 156.696 11.0456 157C10.1821 157.584 9.81555 158.538 9.46788 159.47C9.30916 159.895 9.44143 160.171 10.0007 160.15C10.7546 160.122 11.4953 160.093 12.2322 159.878C14.8661 159.107 17.0674 157.616 19.0835 155.819C21.4094 153.747 23.2762 151.281 25.1336 148.796C25.7911 147.918 25.8667 147.547 24.9541 146.735C23.0514 145.04 21.5681 142.952 20.3305 140.418H20.3324ZM128.271 128.11C128.314 127.944 128.19 127.889 128.101 127.804C126.737 126.525 125.182 125.521 123.555 124.618C123.279 124.465 123.107 124.495 122.948 124.756C121.794 126.661 120.698 128.603 119.613 130.542C118.608 132.335 117.663 134.168 116.52 135.874C114.984 138.166 113.365 140.401 111.74 142.633C111.347 143.173 111.485 143.371 111.978 143.713C113.393 144.694 114.975 145.331 116.515 146.058C117.032 146.302 117.401 146.066 117.614 145.654C118.701 143.557 120.15 141.69 121.429 139.719C123.814 136.048 126.062 132.307 128.105 128.437C128.161 128.329 128.214 128.22 128.271 128.11ZM44.4876 150.26C46.5055 150.432 48.3837 150.366 50.1579 151.067C54.7342 152.877 58.3753 155.91 61.4853 159.651C63.7754 162.406 66.2657 164.932 69.3796 166.784C69.8595 167.069 69.9521 167.075 70.0787 166.521C70.4056 165.108 70.7929 163.708 71.1727 162.306C71.5582 160.877 71.5657 160.879 70.2072 160.313C68.8449 159.744 67.7433 158.778 66.5359 157.975C65.4967 157.284 65.2114 156.483 65.1661 155.432C65.1377 154.761 64.8222 154.234 64.4688 153.722C63.6375 152.52 62.2733 152.016 61.1093 151.256C60.6861 150.979 60.2969 150.525 59.6204 150.593C60.824 152.401 61.7499 154.247 62.3205 156.267C62.4943 156.883 62.243 157.276 61.7215 157.448C61.2076 157.618 60.9223 157.299 60.8032 156.789C60.4008 155.037 59.5996 153.435 58.5321 152.035C56.0682 148.806 52.6256 147.73 48.7162 148.139C47.165 148.299 45.6345 148.809 44.4819 150.264L44.4876 150.26ZM108.473 78.4091C109.818 78.0274 110.963 77.6042 112.165 77.4814C112.785 77.4171 112.802 77.1885 112.789 76.6462C112.73 74.2636 112.598 71.8658 112.783 69.4964C113.008 66.6168 113.066 63.724 113.457 60.852C113.701 59.0589 113.871 57.2639 114.376 55.518C114.958 53.5038 115.496 51.4764 116.511 49.5019C114.659 49.8118 113.236 50.8302 111.666 51.4859C111.477 51.5633 111.337 51.8657 111.264 52.0905C110.873 53.2847 110.451 54.4731 110.149 55.6881C109.329 58.9739 108.949 62.3504 108.696 65.7004C108.416 69.3982 108.339 73.1469 108.953 76.8522C109.04 77.3718 109.057 77.8971 108.475 78.4091H108.473ZM117.116 159.192C117.202 160.972 117.586 161.558 119.047 162.026C120.809 162.591 122.661 162.64 124.484 162.735C126.468 162.837 128.452 162.591 130.425 162.376C133.49 162.041 135.893 160.67 137.495 157.943C138.947 155.472 139.899 152.817 140.732 150.096C141.666 147.052 142.257 143.927 142.533 140.779C142.814 137.55 142.82 136.974 140.339 135.706C140.606 138.315 139.859 140.8 139.447 143.317C139.158 145.083 138.531 146.778 138.055 148.507C137.206 151.583 135.897 154.455 134.355 157.229C133.737 158.34 132.861 159.209 131.574 159.547C129.388 160.122 127.137 160.182 124.902 160.32C122.27 160.481 119.653 160.415 117.116 159.194V159.192ZM66.3923 124.76C66.774 124.512 66.9308 124.067 67.1066 123.692C67.6205 122.602 68.6333 121.718 68.7202 120.469C68.8506 118.589 68.9564 116.698 68.5501 114.819C67.9417 112.008 66.8137 109.542 64.0853 108.204C62.8722 107.609 61.6025 106.999 60.1589 107.45C59.8302 107.552 59.4882 107.655 59.815 108.072C60.1193 108.461 60.4386 108.862 60.824 109.164C62.8061 110.719 63.8264 112.883 64.3441 115.222C64.8637 117.563 64.8675 119.966 63.7981 122.23C63.6847 122.47 63.5354 122.725 63.8245 122.886C64.7598 123.407 65.4117 124.31 66.3923 124.756V124.76ZM132.706 133.255C132.919 132.685 132.672 132.248 131.916 131.955C131.164 131.664 130.451 131.25 129.756 130.831C129.11 130.442 128.74 130.655 128.477 131.271C128.137 132.069 127.666 132.802 127.283 133.573C126.423 135.303 125.131 136.768 124.33 138.525C124.254 138.689 123.948 138.978 124.246 139.071C125.129 139.343 125.537 140.552 126.688 140.273C126.888 140.224 127.128 140.292 127.339 140.346C128.936 140.76 129.983 140.386 130.928 139.052C132.12 137.369 132.641 135.475 132.706 133.253V133.255ZM18.5846 127.239C17.3678 127.636 16.3815 128.014 15.365 128.273C14.4901 128.496 13.8836 129.009 13.3583 129.695C13.0806 130.058 13.0371 130.502 12.8463 130.891C12.6649 131.258 12.3966 131.377 11.9998 131.25C11.5425 131.105 11.5369 130.774 11.6861 130.434C11.86 130.035 12.115 129.673 12.2964 129.278C12.3909 129.074 12.8614 128.839 12.4495 128.637C12.0659 128.45 11.6068 128.01 11.1325 128.452C9.40742 130.058 8.41544 132.053 8.18492 134.389C8.1169 135.073 8.23783 135.772 8.96339 136.231C10.6507 137.297 12.5931 136.949 13.6285 135.235C15.2195 132.603 16.5686 129.824 18.5846 127.241V127.239ZM68.1344 150.109C67.8302 150.085 67.8019 150.336 67.7188 150.523C67.4315 151.179 67.2464 151.904 66.8458 152.481C65.937 153.792 66.4585 155.215 67.1122 156.099C68.0891 157.424 69.5383 158.47 71.3107 158.833C71.817 158.937 72.0249 158.822 72.1912 158.374C72.6295 157.197 73.1378 156.042 73.5346 154.852C73.699 154.357 73.5856 153.86 73.0565 153.493C71.904 152.696 70.8062 151.819 69.663 151.009C69.1831 150.669 68.6484 150.408 68.1325 150.107L68.1344 150.109ZM98.5098 14.7827C98.0752 14.743 97.6708 14.6466 97.4668 15.2324C96.9849 16.6117 96.4691 17.9816 95.9249 19.3382C95.7738 19.7161 95.8267 19.8427 96.214 19.8824C97.3987 20.0071 98.5098 20.419 99.6453 20.7459C100.239 20.9178 100.953 21.1616 101.336 20.2603C101.881 18.9811 102.591 17.7737 102.954 16.4152C103.003 16.2319 103.154 16.0222 102.884 15.9693C101.397 15.6726 100.035 14.9168 98.5116 14.7827H98.5098ZM87.8776 18.898C88.7204 19.1549 89.1549 18.8337 89.3628 17.9664C89.6745 16.6759 89.8937 15.3401 90.6363 14.1856C90.9745 13.6603 90.4984 13.6924 90.2244 13.6754C89.1096 13.5998 87.991 13.5488 86.8743 13.4997C86.3226 13.4751 85.956 13.6716 85.7217 14.2404C85.1662 15.597 84.5824 16.9386 84.1875 18.3576C84.0552 18.828 84.1818 18.9055 84.5862 18.9036C85.6821 18.898 86.7799 18.9017 87.8757 18.9017L87.8776 18.898ZM94.5494 19.5177C94.7648 19.478 95.0822 19.7444 95.1351 19.2947C95.3165 17.7869 96.1706 16.5021 96.5579 15.0604C96.6713 14.6409 96.7563 14.4463 96.2084 14.4029C94.9991 14.3084 93.7955 14.1402 92.5843 14.0495C92.2178 14.0212 91.7964 13.9059 91.5754 14.4652C91.0595 15.7709 90.676 17.1143 90.3018 18.4615C90.179 18.9017 90.3 19.1209 90.8441 19.153C92.0855 19.2248 93.3212 19.3911 94.5494 19.5196V19.5177ZM107.808 18.4331C107.825 18.0288 107.753 17.9098 107.547 17.8039C106.602 17.324 105.641 16.8913 104.645 16.5304C104.271 16.3944 104.071 16.5437 103.948 16.9027C103.46 18.3141 102.893 19.6896 102.058 20.9424C101.941 21.1162 101.799 21.5073 102.17 21.5508C103.551 21.7171 104.743 22.4351 106.049 22.8167C106.243 22.8734 106.41 22.9452 106.491 22.6845C106.95 21.2069 107.407 19.7274 107.808 18.4331ZM84.8223 13.545C83.9041 13.3429 83.0595 13.5091 82.23 13.4298C81.6783 13.3769 81.3004 13.5942 80.93 13.9947C80.3764 14.5937 80.212 15.3646 79.9021 16.0656C79.5299 16.9083 79.4033 17.8833 79.9418 18.6542C80.367 19.2645 81.1303 18.8923 81.7595 18.7808C82.0335 18.7317 82.3226 18.7657 82.6041 18.7638C82.8686 18.7619 83.0424 18.7279 83.1105 18.3783C83.4317 16.7024 84.0873 15.1322 84.8223 13.5432V13.545ZM112.123 20.7459C112.201 20.4832 111.993 20.3642 111.85 20.2017C111.217 19.4837 110.308 19.2135 109.507 18.7732C109.102 18.5503 108.76 18.6504 108.618 19.1663C108.263 20.4492 107.887 21.7284 107.523 23.0076C107.458 23.2324 107.455 23.4063 107.727 23.5385C108.45 23.8919 109.117 24.3472 109.877 24.6458C110.359 24.8347 110.597 24.7365 110.871 24.3227C111.596 23.2305 111.763 21.9551 112.125 20.7421L112.123 20.7459ZM65.4438 152.193C65.7386 151.345 66.0069 150.555 66.2922 149.771C66.3734 149.548 66.4339 149.386 66.1486 149.261C64.7296 148.637 63.3351 147.953 61.8916 147.39C61.0942 147.079 60.9487 147.889 60.6785 148.365C60.414 148.832 60.5916 149.034 61.1093 149.287C62.6342 150.034 63.9908 151.065 65.4438 152.193Z" fill="#491103"/>
<path d="M78.1943 88.9775C78.045 89.8126 78.3435 90.6629 78.4626 91.5226C78.5476 92.1405 78.4701 92.5505 77.8485 92.6336C77.276 92.7111 76.9926 92.3332 76.8433 91.7834C76.5315 90.627 76.6128 89.4461 76.6071 88.2822C76.5958 85.6671 77.1456 83.1428 78.0998 80.711C78.7309 79.1012 79.4905 78.4361 81.5538 78.7176C83.857 79.0331 86.2151 79.0124 88.5486 79.0105C92.3786 79.0105 96.1954 79.4243 100.027 79.3506C101.057 79.3298 101.456 79.7115 101.51 80.7186C101.631 82.9198 101.854 85.1097 102.548 87.2108C103.018 88.6355 103.186 90.1811 104.12 91.4357C104.345 91.738 104.173 91.9836 103.988 92.1915C103.785 92.4201 103.561 92.6733 103.185 92.4938C102.752 92.286 102.406 92.0271 102.2 91.5472C101.669 90.3133 101.185 89.0776 100.955 87.738C100.598 85.6614 99.861 83.6491 99.9441 81.4989C99.963 80.9925 99.57 81.0265 99.2185 81.019C95.9176 80.9623 92.6167 80.9528 89.3195 80.8244C86.6251 80.7204 83.91 80.8357 81.2458 80.3199C80.2784 80.1328 79.8627 80.5674 79.5887 81.3591C78.7422 83.8097 78.2339 86.3209 78.1943 88.9737V88.9775Z" fill="#491103"/>
<path d="M114.25 99.1352C114.21 98.625 114.484 98.1659 114.909 98.1451C115.319 98.1243 115.727 98.4077 115.782 99.0256C116.043 101.928 116.633 104.772 117.439 107.572C117.623 108.208 117.915 108.783 118.218 109.363C118.458 109.822 118.66 110.323 118.002 110.61C117.377 110.882 117.041 110.414 116.865 109.958C116.194 108.224 115.421 106.517 115.06 104.677C114.7 102.844 114.437 100.994 114.25 99.1352Z" fill="#491103"/>
<path d="M85.4005 35.4461C85.9031 35.4669 86.4434 35.3592 86.9328 35.0323C87.3391 34.7602 87.7585 34.6676 88.059 35.1721C88.3197 35.6105 88.3216 36.0678 87.9361 36.4457C86.7703 37.5888 84.1232 37.5151 83.0197 36.3209C82.4075 35.6596 82.347 34.4447 82.895 33.4225C83.3976 32.4853 84.0155 31.6331 84.758 30.8622C85.4307 30.1631 86.0448 29.4073 86.674 28.6685C86.9253 28.3719 87.2125 28.2037 87.5715 28.4172C87.9059 28.6156 87.9909 28.9387 87.8757 29.3185C87.5205 30.49 86.7325 31.3818 85.9125 32.2245C85.3589 32.7933 84.9035 33.4244 84.4992 34.0819C83.8208 35.1854 84.0174 35.4575 85.3986 35.4499L85.4005 35.4461Z" fill="#491103"/>
<path d="M92.5576 37.7831C92.4726 37.0179 92.6426 36.4643 93.4003 36.2621C93.5156 36.2319 93.6422 36.1922 93.7555 36.2073C94.2279 36.2734 95.4013 38.0647 95.2841 38.5238C95.1916 38.8904 94.9591 39.2758 94.5983 39.1303C93.9747 38.879 93.8878 39.255 93.5949 39.6367C91.6563 42.1686 87.3332 43.3854 84.8013 41.5621C84.6256 41.4355 84.4631 41.2881 84.3006 41.1445C83.8735 40.761 83.9945 40.3453 84.2968 39.9844C84.6142 39.6046 84.9713 39.6386 85.353 39.9711C86.7701 41.2088 88.8183 40.9707 90.3167 40.111C90.995 39.7217 91.6185 39.2664 92.1778 38.7165C92.4669 38.4331 92.8599 38.2083 92.5576 37.7831Z" fill="#491103"/>
<path d="M93.0988 23.4854C94.1342 23.5817 95.0733 23.8538 95.7856 24.6266C96.0709 24.9346 96.1748 25.337 96.1314 25.7527C96.069 26.3536 95.8007 26.6257 95.1999 26.2591C95.0657 26.1779 94.907 26.1231 94.8031 26.0135C93.7657 24.9119 92.5924 25.0687 91.3585 25.6016C90.9712 25.7697 90.5366 26.2893 90.1549 25.6375C89.7865 25.0083 90.1436 24.6266 90.6727 24.2544C91.4228 23.7272 92.2561 23.5742 93.1006 23.4872L93.0988 23.4854Z" fill="#491103"/>
<path d="M83.7087 22.9165C84.6799 22.7029 85.4036 23.3605 86.1726 23.7818C86.6488 24.0426 86.8944 24.6056 86.5448 25.1649C86.1367 25.8206 85.5925 25.5126 85.1769 25.2008C84.2227 24.4866 83.2156 24.5263 82.1801 24.891C81.7286 25.0497 81.26 25.1782 81.0521 24.6869C80.8575 24.2259 81.1315 23.761 81.5547 23.4927C82.1953 23.0865 82.8925 22.8201 83.7068 22.9165H83.7087Z" fill="#491103"/>
<path d="M91.1283 31.0799C91.1321 30.2901 91.1453 29.7025 91.4836 29.2585C91.7292 28.9373 91.7594 28.1909 92.4132 28.4309C93.0462 28.6633 93.5261 29.1413 93.4732 29.9104C93.4448 30.309 93.3863 30.7153 93.271 31.0951C93.0802 31.7243 92.7363 32.2665 91.9691 32.1626C91.2228 32.0625 91.0773 31.5051 91.1283 31.0781V31.0799Z" fill="#491103"/>
<path d="M81.9605 29.6116C81.9454 28.7386 82.3913 28.151 82.7446 27.5407C82.9222 27.2327 83.2699 27.2176 83.5835 27.3518C84.0446 27.5501 84.2127 27.9715 84.2052 28.4193C84.1976 28.8482 84.0975 29.2809 83.9973 29.7023C83.8651 30.2634 83.6931 30.8851 82.96 30.8133C82.2382 30.7415 81.8584 30.271 81.9567 29.6116H81.9605Z" fill="#491103"/>
<path d="M104.027 33.5148C103.904 32.6607 104.781 32.7079 105.242 32.4C105.739 32.0693 106.317 31.7897 106.952 31.801C107.345 31.8086 107.731 31.954 107.797 32.3848C107.863 32.8062 107.479 33.0216 107.16 33.0651C106.321 33.1822 105.737 33.7642 105.034 34.1251C104.825 34.2328 104.691 34.4765 104.388 34.28C104.12 34.1043 104.005 33.887 104.027 33.5148Z" fill="#491103"/>
<path d="M15.114 113.691C15.2066 113.056 15.4069 112.279 15.9529 111.654C16.2231 111.344 16.5821 111.068 17.011 111.368C17.406 111.644 17.695 111.983 17.3871 112.536C17.0507 113.143 17.1471 113.921 16.5746 114.458C16.2477 114.766 15.9492 114.977 15.5089 114.811C15.0554 114.641 15.0989 114.239 15.114 113.691Z" fill="#491103"/>
<path d="M20.7473 114.678C20.6811 114.066 21.2782 113.514 21.5956 112.868C21.7525 112.547 22.2078 112.473 22.5895 112.743C22.9032 112.966 23.1696 113.155 22.9863 113.635C22.7992 114.124 22.7652 114.671 22.5801 115.16C22.3722 115.704 22.1304 116.328 21.35 116.169C20.6074 116.018 20.7907 115.389 20.7491 114.676L20.7473 114.678Z" fill="#491103"/>
<path d="M29.4338 77.4859L31.2596 83.2885L14.98 75.2838L23.5665 75.6563L21.7373 69.8427L36.9169 77.9801L29.4338 77.4859Z" fill="#491103"/>
<path d="M29.6436 90.4791L33.6355 92.0879L21.9469 97.3904L26.0078 92.8643L22.0084 91.2525L33.2754 86.6109L29.6436 90.4791Z" fill="#491103"/>
<path d="M41.896 70.3658L45.9609 73.3247L43.9784 58.4625L42.0083 65.2874L37.9357 62.3229L40.3119 76.3583L41.896 70.3658Z" fill="#491103"/>
</svg>
