<svg xmlns="http://www.w3.org/2000/svg" width="59.366" height="31.602" fill="none" overflow="visible"><path d="M 19.656 20.85 C 19.574 21.205 19.492 21.657 19.41 22.204 C 19.328 22.724 19.287 23.217 19.287 23.682 C 19.287 24.256 19.438 24.694 19.739 24.995 C 20.039 25.268 20.395 25.405 20.806 25.405 C 21.271 25.405 21.722 25.2 22.16 24.79 C 22.625 24.379 23.063 23.736 23.473 22.861 C 23.884 21.985 24.226 20.877 24.499 19.536 L 26.839 8.496 L 34.596 8.496 L 29.794 31.192 L 23.596 31.192 L 23.843 28.032 L 23.678 28.032 C 23.186 28.88 22.639 29.564 22.037 30.084 C 21.435 30.604 20.751 30.987 19.985 31.233 C 19.246 31.479 18.398 31.602 17.44 31.602 C 16.045 31.602 14.896 31.315 13.993 30.741 C 13.117 30.139 12.474 29.345 12.064 28.36 C 11.653 27.375 11.448 26.308 11.448 25.159 C 11.448 24.393 11.489 23.613 11.571 22.82 C 11.68 22.026 11.804 21.274 11.941 20.562 L 14.485 8.496 L 22.242 8.496 Z M 46.438 14.776 L 50.173 8.496 L 59.366 8.496 L 50.05 20.029 L 54.605 31.192 L 46.027 31.192 L 44.427 24.626 L 40.2 31.192 L 31.129 31.192 L 40.61 19.618 L 36.465 8.496 L 44.92 8.496 Z M 7.757 31.192 L 0 31.192 L 6.608 0 L 14.365 0 Z" fill="rgb(0,0,0)"></path></svg>